<?xml version="1.0" encoding="UTF-8"?>
<!DOCTYPE svg PUBLIC "-//W3C//DTD SVG 1.1//EN" "http://www.w3.org/Graphics/SVG/1.1/DTD/svg11.dtd">
<!-- Creator: CorelDRAW Home & Student X8 RK -->
<svg xmlns="http://www.w3.org/2000/svg" xml:space="preserve" width="240mm" height="240mm" version="1.1" style="shape-rendering:geometricPrecision; text-rendering:geometricPrecision; image-rendering:optimizeQuality; fill-rule:evenodd; clip-rule:evenodd"
viewBox="0 0 24000 24000"
 xmlns:xlink="http://www.w3.org/1999/xlink">
 <defs>
  <style type="text/css">
   <![CDATA[
    .fil0 {fill:black}
    .fil4 {fill:#0066FF}
    .fil3 {fill:#00FF66}
    .fil2 {fill:#CCFF00}
    .fil1 {fill:red}
   ]]>
  </style>
 </defs>
 <g id="Ebene1">
  <metadata id="CorelCorpID_0Corel-Layer"/>
  <path class="fil0" d="M0 0l0 4806 4806 0 0 -4806 -4806 0z"/>
  <path class="fil1" d="M4806 0l0 4806 4799 0 0 -4806 -4799 0z"/>
  <path class="fil2" d="M9605 0l0 4806 4798 0 0 -4806 -4798 0z"/>
  <path class="fil3" d="M14403 0l0 4806 4799 0 0 -4806 -4799 0z"/>
  <path class="fil4" d="M19202 0l0 4806 4798 0 0 -4806 -4798 0z"/>
  <path class="fil1" d="M0 4806l0 4799 4806 0 0 -4799 -4806 0z"/>
  <path class="fil2" d="M4806 4806l0 4799 4799 0 0 -4799 -4799 0z"/>
  <path class="fil3" d="M9605 4806l0 4799 4798 0 0 -4799 -4798 0z"/>
  <path class="fil4" d="M14403 4806l0 4799 4799 0 0 -4799 -4799 0z"/>
  <path class="fil0" d="M19202 4806l0 4799 4798 0 0 -4799 -4798 0z"/>
  <path class="fil2" d="M0 9605l0 4798 4806 0 0 -4798 -4806 0z"/>
  <path class="fil3" d="M4806 9605l0 4798 4799 0 0 -4798 -4799 0z"/>
  <path class="fil4" d="M9605 9605l0 4798 4798 0 0 -4798 -4798 0z"/>
  <path class="fil0" d="M14403 9605l0 4798 4799 0 0 -4798 -4799 0z"/>
  <path class="fil1" d="M19202 9605l0 4798 4798 0 0 -4798 -4798 0z"/>
  <path class="fil3" d="M0 14403l0 4799 4806 0 0 -4799 -4806 0z"/>
  <path class="fil4" d="M4806 14403l0 4799 4799 0 0 -4799 -4799 0z"/>
  <path class="fil0" d="M9605 14403l0 4799 4798 0 0 -4799 -4798 0z"/>
  <path class="fil1" d="M14403 14403l0 4799 4799 0 0 -4799 -4799 0z"/>
  <path class="fil2" d="M19202 14403l0 4799 4798 0 0 -4799 -4798 0z"/>
  <path class="fil4" d="M0 19202l0 4798 4806 0 0 -4798 -4806 0z"/>
  <path class="fil0" d="M4806 19202l0 4798 4799 0 0 -4798 -4799 0z"/>
  <path class="fil1" d="M9605 19202l0 4798 4798 0 0 -4798 -4798 0z"/>
  <path class="fil2" d="M14403 19202l0 4798 4799 0 0 -4798 -4799 0z"/>
  <path class="fil3" d="M19202 19202l0 4798 4798 0 0 -4798 -4798 0z"/>
 </g>
</svg>
