<svg width="248mm" height="139mm" version="1.1" viewBox="0 0 248 139" xmlns="http://www.w3.org/2000/svg"><rect width="248" height="139" fill="#fff"/><path d="M118 117 175 2M3 117 59 2" fill="none" stroke="#00f" stroke-dasharray="2, 1" stroke-width=".6"/><path d="m203 68-80 65 11-44m3-10 31-63" fill="none" stroke="#999"/><path d="m198 68 10-4-6 9 1-5m-72 23 4-9 1 10-2-3m28-68 7-7-1 10-2-4" fill="#999"/><path d="m143 74-8 8 3-11 1 4m-55-7 9-4-5 8v-4m-72 23 4-9 1 10-2-4m127-6h-11l9-6-2 4m22-32-8-7 10 1-3 2m-117-23 7-7-1 10-2-4"/>
 <g fill="#00f" stroke="#000"><path d="m156 41-19 38m71-15-66 16m66-16-47-21m-73 25-80 65 11-45m1-6 30-62" fill="none"/><circle cx="123.3" cy="133" r="2"/><circle cx="8" cy="133" r="2"/></g>
 <g font-family="Times" font-size="9px"><text x="130" y="135">(0, 0)</text><text x="17" y="135">(0, 0)</text>
 <g font-weight="bold"><text x="15" y="113">a</text><text x="51" y="106">p</text><text x="29" y="49">n</text><text x="155" y="85">a − p</text><text x="101" y="55">((a − p)⋅n)n</text><text x="160" y="39">(a − p) − ((a − p)⋅n)n</text></g></g></svg>