<?xml version="1.0" encoding="utf-8"?>
<!-- Generator: Adobe Illustrator 17.1.0, SVG Export Plug-In . SVG Version: 6.00 Build 0)  -->
<!DOCTYPE svg PUBLIC "-//W3C//DTD SVG 1.1//EN" "http://www.w3.org/Graphics/SVG/1.1/DTD/svg11.dtd">
<svg version="1.1" id="Layer_2" xmlns="http://www.w3.org/2000/svg" xmlns:xlink="http://www.w3.org/1999/xlink" x="0px" y="0px"
	 viewBox="0 0 480 480" style="enable-background:new 0 0 480 480;" width="480" height="480" xml:space="preserve">
<style type="text/css">
	.st0{fill:none;stroke:#000;stroke-width:2;stroke-linecap:round;}
	.st1{fill:#E9C936;fill-opacity:0.8;}
	.st2{fill:#E75252;fill-opacity:0.8;}
	.st3{fill:none;stroke:#fff;stroke-width:3;stroke-linecap:round;}
	.st4{filter:url(#AI_GaussianBlur_4);}
	.st5{fill:none;stroke:#fff;stroke-width:6;}
</style>
<filter  id="AI_GaussianBlur_4">
	<feGaussianBlur  stdDeviation="4"></feGaussianBlur>
</filter>
<line class="st0" x1="430.7" y1="318.9" x2="224.1" y2="247.7"/>
<line class="st0" x1="53.5" y1="346.4" x2="224.1" y2="247.7"/>
<line class="st0" x1="224.1" y1="18.7" x2="224.1" y2="247.7"/>
<line class="st0" x1="224.1" y1="18.7" x2="15.9" y2="73.2"/>
<line class="st0" x1="224.1" y1="18.7" x2="466.1" y2="57"/>
<polygon class="st1" points="357.9,381 358.6,391.5 192.1,266.2 152.8,99.2 "/>
<polygon id="red" class="st2" points="349.4,400.2 72.5,334.2 176.9,30.8 466.1,57 "/>
<line class="st0" x1="466.1" y1="57" x2="430.7" y2="318.9"/>
<line class="st0" x1="430.7" y1="318.9" x2="281" y2="469.7"/>
<line class="st0" x1="53.5" y1="346.4" x2="281" y2="469.7"/>
<line class="st0" x1="15.9" y1="73.2" x2="53.5" y2="346.4"/>
<polygon class="st1" points="152.8,99.2 138.8,39.8 341.2,119.5 357.9,381 "/>
<line class="st3" x1="150.9" y1="96.1" x2="357.9" y2="381"/>
<g class="st4">
	<line class="st5" x1="150.9" y1="96.1" x2="357.9" y2="381"/>
</g>
<line class="st0" x1="15.9" y1="73.2" x2="291.3" y2="144.5"/>
<line class="st0" x1="291.3" y1="144.5" x2="281" y2="469.7"/>
<line class="st0" x1="466.1" y1="57" x2="291.3" y2="144.5"/>
</svg>
