<?xml version="1.0" encoding="UTF-8" standalone="no"?>
<!-- Created with Inkscape (http://www.inkscape.org/) -->

<svg
   xmlns:dc="http://purl.org/dc/elements/1.1/"
   xmlns:cc="http://creativecommons.org/ns#"
   xmlns:rdf="http://www.w3.org/1999/02/22-rdf-syntax-ns#"
   xmlns:svg="http://www.w3.org/2000/svg"
   xmlns="http://www.w3.org/2000/svg"
   version="1.1"
   width="500"
   height="300"
   id="svg4465">
  <defs
     id="defs4467" />
  <metadata
     id="metadata4470">
    <rdf:RDF>
      <cc:Work
         rdf:about="">
        <dc:format>image/svg+xml</dc:format>
        <dc:type
           rdf:resource="http://purl.org/dc/dcmitype/StillImage" />
        <dc:title></dc:title>
        <cc:license
           rdf:resource="http://creativecommons.org/licenses/publicdomain/" />
      </cc:Work>
      <cc:License
         rdf:about="http://creativecommons.org/licenses/publicdomain/">
        <cc:permits
           rdf:resource="http://creativecommons.org/ns#Reproduction" />
        <cc:permits
           rdf:resource="http://creativecommons.org/ns#Distribution" />
        <cc:permits
           rdf:resource="http://creativecommons.org/ns#DerivativeWorks" />
      </cc:License>
    </rdf:RDF>
  </metadata>
  <g
     transform="translate(0,-180)"
     id="layer1">
    <g
       transform="matrix(2.0612424,0,0,2.0612424,-88.640465,-202.23173)"
       id="g4746">
      <path
         d="m 181.54381,330.49569 20,-110 75,0 -15,110 z"
         id="path3061-2-7-3-4-8"
         style="fill:#cccccc;stroke:none" />
      <path
         d="m 206.1296,255.18551 -14.67866,19.57155 0.49116,1.05345 15,-20 z"
         id="path3063-20-6-60-3-0"
         style="font-size:medium;font-style:normal;font-variant:normal;font-weight:normal;font-stretch:normal;text-indent:0;text-align:start;text-decoration:none;line-height:normal;letter-spacing:normal;word-spacing:normal;text-transform:none;direction:ltr;block-progression:tb;writing-mode:lr-tb;text-anchor:start;baseline-shift:baseline;color:#000000;fill:#800000;fill-opacity:1;stroke:none;stroke-width:1px;marker:none;visibility:visible;display:inline;overflow:visible;enable-background:accumulate;font-family:Sans;-inkscape-font-specification:Sans" />
      <path
         d="m 191.54381,275.49569 45.28323,21.19975"
         id="path3275-9-7-02-7-8"
         style="fill:none;stroke:#800000;stroke-width:1px;stroke-linecap:butt;stroke-linejoin:miter;stroke-opacity:1" />
      <path
         d="m 61.54381,330.49568 20,-110 75,0 -15,110 z"
         id="path3061-2-76-1-7"
         style="fill:#cccccc;stroke:none" />
      <path
         d="m 69.54381,190.49568 4,0 -2,-4 z"
         id="path3496-4-7-1-5-7"
         style="fill:#000000;stroke:none" />
      <path
         d="m 101.1296,235.18551 -29.67791,39.57055 -0.13457,1.17945 45.3125,21.21875 0.40625,-0.90625 -44.71877,-20.9375 29.625,-39.5 z"
         id="path3063-2-6-4-1-7-8"
         style="font-size:medium;font-style:normal;font-variant:normal;font-weight:normal;font-stretch:normal;text-indent:0;text-align:start;text-decoration:none;line-height:normal;letter-spacing:normal;word-spacing:normal;text-transform:none;direction:ltr;block-progression:tb;writing-mode:lr-tb;text-anchor:start;baseline-shift:baseline;color:#000000;fill:#800000;fill-opacity:1;stroke:none;stroke-width:1px;marker:none;visibility:visible;display:inline;overflow:visible;enable-background:accumulate;font-family:Sans;-inkscape-font-specification:Sans" />
      <path
         d="m 71.54381,190.49568 0,85"
         id="path3528-2-8-4-3"
         style="fill:none;stroke:#000000;stroke-width:0.60000002;stroke-linecap:butt;stroke-linejoin:miter;stroke-miterlimit:4;stroke-opacity:1;stroke-dasharray:none" />
      <path
         d="M 46.54382,300.49568 71.54381,275.49569"
         id="path3536-0-9-2-8"
         style="fill:none;stroke:#000000;stroke-width:0.60000002;stroke-linecap:butt;stroke-linejoin:miter;stroke-miterlimit:4;stroke-opacity:1;stroke-dasharray:none" />
      <path
         d="m 47.95803,301.9099 -2.82843,-2.82843 -2,4.65686 z"
         id="path3538-1-2-0-3"
         style="fill:#000000;stroke:none" />
      <path
         d="m 156.54381,273.49568 0,4 4,-2 z"
         id="path3496-5-9-7-7"
         style="fill:#000000;stroke:none" />
      <path
         d="m 71.54381,275.49568 77,0"
         id="path3051-5-4-7-1"
         style="fill:none;stroke:#000000;stroke-width:0.60000002;stroke-linecap:butt;stroke-linejoin:miter;stroke-miterlimit:4;stroke-opacity:1;stroke-dasharray:4.80000019, 2.4000001;stroke-dashoffset:2.10000008;marker-start:none" />
      <path
         d="m 156.54381,275.49568 -8,0"
         id="path4682-4-3-2-0"
         style="fill:none;stroke:#000000;stroke-width:0.60000002;stroke-linecap:butt;stroke-linejoin:miter;stroke-miterlimit:4;stroke-opacity:1;stroke-dasharray:none;stroke-dashoffset:0" />
      <path
         d="m 118.2844,294.43127 -2.94332,4.52832 5.61453,-0.14418 z"
         id="path3277-7-3-6-7"
         style="fill:none;stroke:#800000;stroke-width:0.5px;stroke-linecap:butt;stroke-linejoin:miter;stroke-opacity:1" />
      <path
         d="m 84.67981,254.1695 3.72808,2.6524 1.45956,-5.66743 z"
         id="path3065-0-4-5-3"
         style="fill:none;stroke:#800000;stroke-width:0.5px;stroke-linecap:butt;stroke-linejoin:miter;stroke-opacity:1" />
      <path
         d="m 99.66465,234.19112 3.75845,2.60921 1.39407,-5.68389 z"
         id="path3065-33-15-6-1-5-4"
         style="fill:none;stroke:#800000;stroke-width:0.5px;stroke-linecap:butt;stroke-linejoin:miter;stroke-opacity:1" />
      <path
         d="m 189.54381,190.49569 4,0 -2,-4 z"
         id="path3496-4-7-7-74-2-9"
         style="fill:#000000;stroke:none" />
      <path
         d="m 191.54381,275.49569 46.88842,-17.36308"
         id="path3063-2-6-4-8-4-5"
         style="fill:none;stroke:#800000;stroke-width:1px;stroke-linecap:butt;stroke-linejoin:miter;stroke-opacity:1;marker-mid:none;marker-end:none" />
      <path
         d="m 191.54381,190.49569 0,85"
         id="path3528-2-3-2-0-6"
         style="fill:none;stroke:#000000;stroke-width:0.60000002;stroke-linecap:butt;stroke-linejoin:miter;stroke-miterlimit:4;stroke-opacity:1;stroke-dasharray:none" />
      <path
         d="M 166.54382,300.49569 191.54381,275.4957"
         id="path3536-0-5-7-1-5"
         style="fill:none;stroke:#000000;stroke-width:0.60000002;stroke-linecap:butt;stroke-linejoin:miter;stroke-miterlimit:4;stroke-opacity:1;stroke-dasharray:none" />
      <path
         d="m 167.95803,301.90991 -2.82843,-2.82843 -2,4.65686 z"
         id="path3538-1-9-9-4-1"
         style="fill:#000000;stroke:none" />
      <path
         d="m 276.54381,273.49569 0,4 4,-2 z"
         id="path3496-5-8-1-0-0"
         style="fill:#000000;stroke:none" />
      <path
         d="m 191.54381,275.49569 77,0"
         id="path3051-5-8-8-1-9"
         style="fill:none;stroke:#000000;stroke-width:0.60000002;stroke-linecap:butt;stroke-linejoin:miter;stroke-miterlimit:4;stroke-opacity:1;stroke-dasharray:4.80000019, 2.4000001;stroke-dashoffset:2.10000008;marker-start:none" />
      <path
         d="m 276.54381,275.49569 -8,0"
         id="path4682-4-2-6-7-9"
         style="fill:none;stroke:#000000;stroke-width:0.60000002;stroke-linecap:butt;stroke-linejoin:miter;stroke-miterlimit:4;stroke-opacity:1;stroke-dasharray:none;stroke-dashoffset:0" />
      <path
         d="m 238.17964,294.42657 -2.70065,4.6771 5.59914,-0.43979 z"
         id="path3277-7-7-8-7-6"
         style="fill:none;stroke:#800000;stroke-width:0.5px;stroke-linecap:butt;stroke-linejoin:miter;stroke-opacity:1" />
      <path
         d="m 204.66626,254.18876 3.75517,2.6139 1.40117,-5.68215 z"
         id="path3065-0-0-2-3-8"
         style="fill:none;stroke:#800000;stroke-width:0.5px;stroke-linecap:butt;stroke-linejoin:miter;stroke-opacity:1" />
      <path
         d="m 237.90714,255.88844 1.05317,4.65372 4.41174,-4.24343 z"
         id="path3065-33-15-6-0-8-9-3"
         style="fill:none;stroke:#800000;stroke-width:0.5px;stroke-linecap:butt;stroke-linejoin:miter;stroke-opacity:1" />
      <path
         d="m 64.1558,191.73666 c 0.105,0.004 0.20775,-0.024 0.30825,-0.0833 0.1005,-0.0593 0.18974,-0.1725 0.26774,-0.33974 0.15156,-0.33655 0.32244,-0.70944 0.51266,-1.11865 0.19022,-0.40922 0.37244,-0.79744 0.54666,-1.16465 0.17422,-0.36722 0.31311,-0.65611 0.41667,-0.86666 l 0.50399,-1.03499 c 0.14718,-0.31593 0.2758,-0.54805 0.38587,-0.69636 0.11006,-0.14831 0.23643,-0.23418 0.37912,-0.25762 l 0.153,-0.027 c 0.0313,-0.0308 0.0452,-0.0705 0.0416,-0.11925 -0.004,-0.0487 -0.0234,-0.084 -0.0596,-0.10575 -0.12469,0.009 -0.24206,0.0157 -0.35211,0.0202 -0.11007,0.005 -0.22069,0.007 -0.33187,0.007 -0.11738,0 -0.24263,-0.002 -0.37575,-0.007 -0.13313,-0.004 -0.27188,-0.0112 -0.41625,-0.0202 -0.0362,0.0184 -0.0561,0.0536 -0.0596,0.10576 -0.004,0.0521 0.0103,0.0919 0.0416,0.11925 l 0.27899,0.045 c 0.0799,0.0143 0.13612,0.0352 0.16875,0.063 0.0326,0.0278 0.0484,0.0578 0.0472,0.09 -7.5e-4,0.0516 -0.0285,0.15544 -0.0832,0.31162 -0.0548,0.15619 -0.132,0.35231 -0.23175,0.58837 l -0.30599,0.71099 c -0.0831,0.18806 -0.15544,0.34294 -0.21712,0.46462 -0.0617,0.12169 -0.10032,0.18881 -0.11588,0.20137 -0.0232,-0.0255 -0.0645,-0.11624 -0.12375,-0.27224 -0.0592,-0.156 -0.105,-0.27825 -0.13724,-0.36675 l -0.288,-0.82799 c -0.0345,-0.0954 -0.0847,-0.24205 -0.15075,-0.43987 -0.066,-0.1978 -0.10275,-0.33318 -0.11025,-0.40612 3.8e-4,-0.0307 0.0176,-0.0547 0.0517,-0.072 0.0341,-0.0172 0.0829,-0.0322 0.14625,-0.045 l 0.225,-0.045 c 0.0313,-0.0274 0.0452,-0.0671 0.0416,-0.11925 -0.004,-0.0521 -0.0234,-0.0874 -0.0596,-0.10575 -0.14344,0.009 -0.27956,0.0157 -0.40837,0.0202 -0.12881,0.005 -0.25368,0.007 -0.37462,0.007 -0.14756,0 -0.29118,-0.002 -0.43087,-0.007 -0.13969,-0.004 -0.28106,-0.0112 -0.42412,-0.0202 -0.036,0.0184 -0.0563,0.0536 -0.0608,0.10576 -0.004,0.0521 0.007,0.0919 0.0337,0.11925 l 0.225,0.045 c 0.15037,0.0304 0.25912,0.10237 0.32624,0.21599 0.0671,0.11363 0.13537,0.27563 0.20475,0.486 l 0.70199,1.92597 c 0.0576,0.16031 0.0977,0.28294 0.12037,0.36787 0.0227,0.0849 0.0336,0.16931 0.0326,0.25312 -0.002,0.0668 -0.0137,0.138 -0.0349,0.21375 -0.0212,0.0758 -0.0396,0.1335 -0.0551,0.17325 -0.0409,0.11081 -0.10538,0.25368 -0.1935,0.42862 -0.0881,0.17493 -0.19762,0.36505 -0.32849,0.57037 -0.0309,0.0501 -0.0703,0.0894 -0.11813,0.11812 -0.0478,0.0287 -0.10743,0.0433 -0.17887,0.0439 l -0.171,0 c -0.10162,-1.9e-4 -0.18637,0.0294 -0.25424,0.0889 -0.0679,0.0594 -0.10313,0.14981 -0.10575,0.27112 1.8e-4,0.11456 0.0336,0.20718 0.10012,0.27787 0.0666,0.0707 0.16519,0.10706 0.29587,0.10912 z"
         id="path4043-8-4" />
      <path
         d="m 48.57778,308.49569 c 0.20456,0 0.38718,0.002 0.54787,0.007 0.16068,0.005 0.31406,0.0113 0.46012,0.0203 0.06,-0.0904 0.12,-0.22912 0.18,-0.41624 0.06,-0.18712 0.11099,-0.39337 0.153,-0.61874 -0.0161,-0.036 -0.0446,-0.0585 -0.0855,-0.0675 -0.0409,-0.009 -0.0784,-0.005 -0.1125,0.0135 -0.0491,0.11343 -0.0971,0.21506 -0.144,0.30487 -0.0469,0.0898 -0.0949,0.16218 -0.144,0.21712 -0.13256,0.12937 -0.29718,0.20812 -0.49387,0.23625 -0.19668,0.0281 -0.38606,0.0394 -0.56811,0.0337 l -0.306,0 c -0.16856,0.005 -0.26344,-0.0143 -0.28462,-0.0585 -0.0212,-0.0442 0.0167,-0.14475 0.11362,-0.3015 l 1.08899,-1.82698 c 0.13012,-0.21543 0.25012,-0.4078 0.35999,-0.57711 0.10987,-0.16931 0.21187,-0.31893 0.306,-0.44887 0.007,-0.0435 -0.007,-0.0735 -0.045,-0.09 -0.0667,0.0129 -0.14475,0.0208 -0.234,0.0236 -0.0893,0.003 -0.19425,0.004 -0.31499,0.003 l -1.27799,0 c -0.24937,0.003 -0.41662,-0.005 -0.50174,-0.0236 -0.0851,-0.0186 -0.13087,-0.0647 -0.13725,-0.13837 -0.0146,-0.009 -0.0326,-0.0135 -0.054,-0.0135 -0.0214,0 -0.0394,0.005 -0.054,0.0135 -0.0664,0.12375 -0.12937,0.297 -0.18899,0.51974 -0.0596,0.22275 -0.0956,0.4005 -0.108,0.53325 0.0176,0.0364 0.0499,0.0581 0.0968,0.0652 0.0469,0.007 0.0836,-0.003 0.11024,-0.0292 0.0394,-0.10106 0.0844,-0.19819 0.135,-0.29138 0.0506,-0.0932 0.11363,-0.17005 0.189,-0.23062 0.0681,-0.0529 0.15469,-0.0889 0.25987,-0.108 0.10519,-0.0191 0.22556,-0.0281 0.36112,-0.027 l 0.62099,0 c 0.0832,-0.004 0.135,0.009 0.15525,0.0405 0.0203,0.0315 -0.005,0.10801 -0.0743,0.2295 l -0.95398,1.61998 c -0.14288,0.24637 -0.29813,0.49837 -0.46575,0.75599 -0.16762,0.25762 -0.30037,0.44662 -0.39824,0.56699 0,0.0184 0.005,0.0356 0.0135,0.0518 0.009,0.0161 0.0225,0.0289 0.0405,0.0383 0.0563,-0.009 0.16649,-0.0158 0.33074,-0.0203 0.16425,-0.004 0.369,-0.007 0.61424,-0.007 z"
         id="path4046-8-8" />
      <path
         d="m 163.13679,273.70472 c 0.0354,0.0469 0.0501,0.0859 0.0439,0.11699 -0.006,0.0311 -0.0298,0.0701 -0.0709,0.117 -0.11213,0.14175 -0.24787,0.324 -0.40725,0.54675 -0.15937,0.22274 -0.29062,0.39149 -0.39374,0.50624 -0.0795,0.0844 -0.1545,0.14737 -0.225,0.189 -0.0705,0.0416 -0.1455,0.0686 -0.22499,0.081 l -0.207,0.036 c -0.0313,0.0229 -0.0452,0.0604 -0.0416,0.11249 0.004,0.0521 0.0234,0.0896 0.0596,0.1125 0.11568,-0.009 0.22631,-0.0158 0.33187,-0.0203 0.10556,-0.004 0.21394,-0.007 0.32512,-0.007 0.2175,0 0.4395,0.009 0.666,0.027 0.0317,-0.0184 0.0493,-0.0536 0.0529,-0.10575 0.004,-0.0521 -0.008,-0.0919 -0.0349,-0.11924 l -0.153,-0.027 c -0.11081,-0.0142 -0.16593,-0.0487 -0.16537,-0.1035 5.6e-4,-0.0547 0.0467,-0.15225 0.13837,-0.2925 l 0.378,-0.59399 c 0.0326,-0.0506 0.0641,-0.0956 0.0945,-0.135 0.0304,-0.0394 0.0529,-0.0664 0.0675,-0.081 0.0172,0.0126 0.0412,0.0392 0.072,0.0799 0.0307,0.0407 0.0727,0.10106 0.12599,0.18112 l 0.468,0.67499 c 0.0611,0.0804 0.0829,0.14231 0.0652,0.18562 -0.0176,0.0433 -0.0904,0.0714 -0.21825,0.0844 l -0.261,0.027 c -0.0309,0.0274 -0.0433,0.0671 -0.0371,0.11924 0.006,0.0521 0.0276,0.0874 0.0641,0.10575 0.14081,-0.009 0.27769,-0.0158 0.41063,-0.0203 0.13293,-0.004 0.28106,-0.007 0.44437,-0.007 0.26099,0 0.55799,0.009 0.89099,0.027 0.0317,-0.0178 0.0493,-0.0519 0.0529,-0.10237 0.004,-0.0504 -0.008,-0.0913 -0.0349,-0.12262 l -0.144,-0.009 c -0.11813,-0.007 -0.22162,-0.0442 -0.31049,-0.11025 -0.0889,-0.066 -0.18338,-0.17025 -0.2835,-0.31275 l -0.83699,-1.17898 c -0.0583,-0.0757 -0.0879,-0.1335 -0.0889,-0.17325 -9.4e-4,-0.0397 0.0257,-0.093 0.0799,-0.15975 0.18318,-0.24749 0.35006,-0.46349 0.50062,-0.64799 0.15056,-0.1845 0.26568,-0.31049 0.34537,-0.378 0.0486,-0.039 0.10893,-0.069 0.18112,-0.09 0.0722,-0.021 0.16181,-0.042 0.26887,-0.063 l 0.135,-0.027 c 0.0274,-0.0268 0.0401,-0.0654 0.0383,-0.11588 -0.002,-0.0504 -0.0206,-0.0868 -0.0562,-0.10912 -0.0893,0.009 -0.19424,0.0157 -0.31499,0.0202 -0.12075,0.005 -0.23475,0.007 -0.34199,0.007 -0.10894,0 -0.21956,-0.002 -0.33187,-0.007 -0.11232,-0.004 -0.22069,-0.0112 -0.32512,-0.0202 -0.0364,0.0178 -0.0581,0.0519 -0.0653,0.10238 -0.007,0.0504 0.003,0.0913 0.0292,0.12263 l 0.108,0.027 c 0.0992,0.0229 0.15506,0.0559 0.16762,0.099 0.0126,0.0431 -0.0193,0.12113 -0.0956,0.234 -0.10219,0.15619 -0.20831,0.31631 -0.31837,0.48037 -0.11007,0.16406 -0.17794,0.25894 -0.20363,0.28462 -0.0144,-0.0148 -0.0328,-0.0369 -0.0551,-0.0664 -0.0223,-0.0294 -0.0429,-0.0583 -0.0619,-0.0866 l -0.432,-0.62999 c -0.0788,-0.10481 -0.11475,-0.17868 -0.108,-0.22162 0.007,-0.0429 0.0697,-0.0741 0.189,-0.0934 l 0.135,-0.027 c 0.0272,-0.0268 0.0403,-0.0654 0.0394,-0.11588 -9.4e-4,-0.0504 -0.0171,-0.0868 -0.0484,-0.10912 -0.17194,0.009 -0.31631,0.0157 -0.43312,0.0202 -0.11681,0.005 -0.22743,0.007 -0.33187,0.007 -0.10912,0 -0.22387,-0.002 -0.34425,-0.007 -0.12037,-0.004 -0.26662,-0.0112 -0.43874,-0.0202 -0.0317,0.0184 -0.0493,0.0536 -0.0529,0.10576 -0.004,0.0521 0.008,0.0919 0.0349,0.11925 l 0.144,0.027 c 0.12431,0.0234 0.22893,0.0688 0.31387,0.13612 0.0849,0.0673 0.16031,0.15094 0.22612,0.25087 z"
         id="path4049-6-4" />
      <path
         d="m 184.1558,191.73666 c 0.105,0.004 0.20775,-0.024 0.30825,-0.0833 0.1005,-0.0593 0.18974,-0.1725 0.26774,-0.33974 0.15156,-0.33655 0.32244,-0.70944 0.51266,-1.11865 0.19022,-0.40922 0.37244,-0.79744 0.54666,-1.16465 0.17422,-0.36722 0.31311,-0.65611 0.41667,-0.86666 l 0.50399,-1.03499 c 0.14718,-0.31593 0.2758,-0.54805 0.38587,-0.69636 0.11006,-0.14831 0.23643,-0.23418 0.37912,-0.25762 l 0.153,-0.027 c 0.0313,-0.0308 0.0452,-0.0705 0.0416,-0.11925 -0.004,-0.0487 -0.0234,-0.084 -0.0596,-0.10575 -0.12469,0.009 -0.24206,0.0157 -0.35211,0.0202 -0.11007,0.005 -0.22069,0.007 -0.33187,0.007 -0.11738,0 -0.24263,-0.002 -0.37575,-0.007 -0.13313,-0.004 -0.27188,-0.0112 -0.41625,-0.0202 -0.0362,0.0184 -0.0561,0.0536 -0.0596,0.10576 -0.004,0.0521 0.0103,0.0919 0.0416,0.11925 l 0.27899,0.045 c 0.0799,0.0143 0.13612,0.0352 0.16875,0.063 0.0326,0.0278 0.0484,0.0578 0.0473,0.09 -7.5e-4,0.0516 -0.0285,0.15544 -0.0833,0.31162 -0.0547,0.15619 -0.132,0.35231 -0.23175,0.58837 l -0.30599,0.71099 c -0.0831,0.18806 -0.15544,0.34294 -0.21712,0.46462 -0.0617,0.12169 -0.10032,0.18881 -0.11588,0.20137 -0.0233,-0.0255 -0.0645,-0.11624 -0.12375,-0.27224 -0.0593,-0.156 -0.105,-0.27825 -0.13724,-0.36675 l -0.288,-0.82799 c -0.0345,-0.0954 -0.0848,-0.24205 -0.15075,-0.43987 -0.066,-0.1978 -0.10275,-0.33318 -0.11025,-0.40612 3.8e-4,-0.0307 0.0176,-0.0547 0.0518,-0.072 0.0341,-0.0172 0.0829,-0.0322 0.14625,-0.045 l 0.225,-0.045 c 0.0313,-0.0274 0.0452,-0.0671 0.0416,-0.11925 -0.004,-0.0521 -0.0234,-0.0874 -0.0596,-0.10575 -0.14344,0.009 -0.27956,0.0157 -0.40837,0.0202 -0.12881,0.005 -0.25368,0.007 -0.37462,0.007 -0.14756,0 -0.29118,-0.002 -0.43087,-0.007 -0.13969,-0.004 -0.28106,-0.0112 -0.42412,-0.0202 -0.036,0.0184 -0.0562,0.0536 -0.0607,0.10576 -0.005,0.0521 0.007,0.0919 0.0337,0.11925 l 0.225,0.045 c 0.15037,0.0304 0.25912,0.10237 0.32624,0.21599 0.0671,0.11363 0.13537,0.27563 0.20475,0.486 l 0.70199,1.92597 c 0.0576,0.16031 0.0977,0.28294 0.12037,0.36787 0.0227,0.0849 0.0336,0.16931 0.0326,0.25312 -0.002,0.0668 -0.0137,0.138 -0.0349,0.21375 -0.0212,0.0758 -0.0396,0.1335 -0.0551,0.17325 -0.0409,0.11081 -0.10538,0.25368 -0.1935,0.42862 -0.0881,0.17493 -0.19762,0.36505 -0.32849,0.57037 -0.0309,0.0501 -0.0703,0.0894 -0.11813,0.11812 -0.0478,0.0287 -0.10743,0.0433 -0.17887,0.0439 l -0.171,0 c -0.10162,-1.9e-4 -0.18637,0.0294 -0.25424,0.0889 -0.0679,0.0594 -0.10313,0.14981 -0.10575,0.27112 1.8e-4,0.11456 0.0336,0.20718 0.10012,0.27787 0.0666,0.0707 0.16519,0.10706 0.29587,0.10912 z"
         id="path4052-0-9" />
      <path
         d="m 168.57778,308.49569 c 0.20456,0 0.38718,0.002 0.54787,0.007 0.16068,0.005 0.31406,0.0113 0.46012,0.0203 0.06,-0.0904 0.12,-0.22912 0.18,-0.41624 0.06,-0.18712 0.11099,-0.39337 0.153,-0.61874 -0.0161,-0.036 -0.0446,-0.0585 -0.0855,-0.0675 -0.0409,-0.009 -0.0784,-0.005 -0.1125,0.0135 -0.0491,0.11343 -0.0971,0.21506 -0.144,0.30487 -0.0469,0.0898 -0.0949,0.16218 -0.144,0.21712 -0.13256,0.12937 -0.29718,0.20812 -0.49387,0.23625 -0.19668,0.0281 -0.38606,0.0394 -0.56811,0.0337 l -0.306,0 c -0.16856,0.005 -0.26344,-0.0143 -0.28462,-0.0585 -0.0212,-0.0442 0.0167,-0.14475 0.11362,-0.3015 l 1.08899,-1.82698 c 0.13012,-0.21543 0.25012,-0.4078 0.35999,-0.57711 0.10987,-0.16931 0.21187,-0.31893 0.306,-0.44887 0.007,-0.0435 -0.007,-0.0735 -0.045,-0.09 -0.0668,0.0129 -0.14475,0.0208 -0.234,0.0236 -0.0892,0.003 -0.19425,0.004 -0.31499,0.003 l -1.27799,0 c -0.24937,0.003 -0.41662,-0.005 -0.50174,-0.0236 -0.0851,-0.0186 -0.13087,-0.0647 -0.13725,-0.13837 -0.0146,-0.009 -0.0326,-0.0135 -0.054,-0.0135 -0.0214,0 -0.0394,0.005 -0.054,0.0135 -0.0664,0.12375 -0.12937,0.297 -0.18899,0.51974 -0.0596,0.22275 -0.0956,0.4005 -0.108,0.53325 0.0176,0.0364 0.0499,0.0581 0.0967,0.0652 0.0469,0.007 0.0836,-0.003 0.11024,-0.0292 0.0394,-0.10106 0.0844,-0.19819 0.135,-0.29138 0.0506,-0.0932 0.11363,-0.17005 0.189,-0.23062 0.0681,-0.0529 0.15469,-0.0889 0.25987,-0.108 0.10519,-0.0191 0.22556,-0.0281 0.36112,-0.027 l 0.62099,0 c 0.0832,-0.004 0.135,0.009 0.15525,0.0405 0.0203,0.0315 -0.004,0.10801 -0.0742,0.2295 l -0.95398,1.61998 c -0.14288,0.24637 -0.29813,0.49837 -0.46575,0.75599 -0.16762,0.25762 -0.30037,0.44662 -0.39824,0.56699 0,0.0184 0.004,0.0356 0.0135,0.0518 0.009,0.0161 0.0225,0.0289 0.0405,0.0383 0.0562,-0.009 0.16649,-0.0158 0.33074,-0.0203 0.16425,-0.004 0.369,-0.007 0.61424,-0.007 z"
         id="path4055-8-9" />
      <path
         d="m 283.13679,273.70472 c 0.0354,0.0469 0.0501,0.0859 0.0439,0.11699 -0.006,0.0311 -0.0298,0.0701 -0.0709,0.117 -0.11213,0.14175 -0.24787,0.324 -0.40725,0.54675 -0.15937,0.22274 -0.29062,0.39149 -0.39374,0.50624 -0.0795,0.0844 -0.1545,0.14737 -0.225,0.189 -0.0705,0.0416 -0.1455,0.0686 -0.22499,0.081 l -0.207,0.036 c -0.0313,0.0229 -0.0452,0.0604 -0.0416,0.11249 0.004,0.0521 0.0234,0.0896 0.0596,0.1125 0.11568,-0.009 0.22631,-0.0158 0.33187,-0.0203 0.10556,-0.004 0.21394,-0.007 0.32512,-0.007 0.2175,0 0.4395,0.009 0.666,0.027 0.0317,-0.0184 0.0493,-0.0536 0.0529,-0.10575 0.004,-0.0521 -0.008,-0.0919 -0.0349,-0.11924 l -0.153,-0.027 c -0.11081,-0.0142 -0.16593,-0.0487 -0.16537,-0.1035 5.6e-4,-0.0547 0.0467,-0.15225 0.13837,-0.2925 l 0.378,-0.59399 c 0.0326,-0.0506 0.0641,-0.0956 0.0945,-0.135 0.0304,-0.0394 0.0529,-0.0664 0.0675,-0.081 0.0172,0.0126 0.0412,0.0392 0.072,0.0799 0.0307,0.0407 0.0727,0.10106 0.12599,0.18112 l 0.468,0.67499 c 0.0611,0.0804 0.0829,0.14231 0.0652,0.18562 -0.0176,0.0433 -0.0904,0.0714 -0.21825,0.0844 l -0.261,0.027 c -0.0309,0.0274 -0.0433,0.0671 -0.0371,0.11924 0.006,0.0521 0.0276,0.0874 0.0641,0.10575 0.14081,-0.009 0.27769,-0.0158 0.41063,-0.0203 0.13293,-0.004 0.28106,-0.007 0.44437,-0.007 0.26099,0 0.55799,0.009 0.89099,0.027 0.0317,-0.0178 0.0493,-0.0519 0.0529,-0.10237 0.004,-0.0504 -0.008,-0.0913 -0.0349,-0.12262 l -0.144,-0.009 c -0.11813,-0.007 -0.22162,-0.0442 -0.31049,-0.11025 -0.0889,-0.066 -0.18338,-0.17025 -0.2835,-0.31275 l -0.83699,-1.17898 c -0.0583,-0.0757 -0.0879,-0.1335 -0.0889,-0.17325 -9.4e-4,-0.0397 0.0257,-0.093 0.0799,-0.15975 0.18318,-0.24749 0.35006,-0.46349 0.50062,-0.64799 0.15056,-0.1845 0.26568,-0.31049 0.34537,-0.378 0.0486,-0.039 0.10893,-0.069 0.18112,-0.09 0.0722,-0.021 0.16181,-0.042 0.26887,-0.063 l 0.135,-0.027 c 0.0274,-0.0268 0.0401,-0.0654 0.0383,-0.11588 -0.002,-0.0504 -0.0206,-0.0868 -0.0562,-0.10912 -0.0893,0.009 -0.19424,0.0157 -0.31499,0.0202 -0.12075,0.005 -0.23475,0.007 -0.34199,0.007 -0.10894,0 -0.21956,-0.002 -0.33187,-0.007 -0.11232,-0.004 -0.22069,-0.0112 -0.32512,-0.0202 -0.0364,0.0178 -0.0581,0.0519 -0.0653,0.10238 -0.007,0.0504 0.003,0.0913 0.0292,0.12263 l 0.108,0.027 c 0.0992,0.0229 0.15506,0.0559 0.16762,0.099 0.0126,0.0431 -0.0193,0.12113 -0.0956,0.234 -0.10219,0.15619 -0.20831,0.31631 -0.31837,0.48037 -0.11007,0.16406 -0.17794,0.25894 -0.20363,0.28462 -0.0144,-0.0148 -0.0328,-0.0369 -0.0551,-0.0664 -0.0223,-0.0294 -0.0429,-0.0583 -0.0619,-0.0866 l -0.432,-0.62999 c -0.0788,-0.10481 -0.11475,-0.17868 -0.108,-0.22162 0.007,-0.0429 0.0697,-0.0741 0.189,-0.0934 l 0.135,-0.027 c 0.0272,-0.0268 0.0403,-0.0654 0.0394,-0.11588 -9.4e-4,-0.0504 -0.0171,-0.0868 -0.0484,-0.10912 -0.17194,0.009 -0.31631,0.0157 -0.43312,0.0202 -0.11681,0.005 -0.22743,0.007 -0.33187,0.007 -0.10912,0 -0.22387,-0.002 -0.34425,-0.007 -0.12037,-0.004 -0.26662,-0.0112 -0.43874,-0.0202 -0.0317,0.0184 -0.0493,0.0536 -0.0529,0.10576 -0.004,0.0521 0.008,0.0919 0.0349,0.11925 l 0.144,0.027 c 0.12431,0.0234 0.22893,0.0688 0.31387,0.13612 0.0849,0.0673 0.16031,0.15094 0.22612,0.25087 z"
         id="path4058-1-2" />
    </g>
  </g>
</svg>
