<?xml version="1.0" encoding="UTF-8" standalone="no"?>
<!-- Created with Inkscape (http://www.inkscape.org/) -->
<svg
   xmlns:svg="http://www.w3.org/2000/svg"
   xmlns="http://www.w3.org/2000/svg"
   version="1.0"
   width="410"
   height="392.19501"
   id="svg2">
  <defs
     id="defs4" />
  <g
     transform="translate(-39.999992,-27.362186)"
     id="layer1">
    <rect
       width="149.00827"
       height="99.008263"
       x="100.49586"
       y="52.858047"
       style="opacity:1;fill:none;fill-opacity:1;stroke:#000000;stroke-width:0.99173421;stroke-linecap:butt;stroke-linejoin:miter;stroke-miterlimit:4;stroke-dasharray:none;stroke-dashoffset:0;stroke-opacity:1" />
    <rect
       width="149.00827"
       height="99.00827"
       x="27.858053"
       y="-449.50412"
       transform="matrix(0,1,-1,0,0,0)"
       id="rect3423"
       style="fill:none;fill-opacity:1;stroke:#000000;stroke-width:0.99173415;stroke-linecap:butt;stroke-linejoin:miter;stroke-miterlimit:4;stroke-dasharray:none;stroke-dashoffset:0;stroke-opacity:1" />
    <g
       id="g2573">
      <path
         d="M 206,29.3125 C 193.30784,29.00569 182.48619,35.394703 174.5625,52.15625 L 175.4375,52.5625 C 183.25422,36.027246 193.62057,30.014005 205.96875,30.3125 C 218.31693,30.610995 232.71978,37.363768 248.3125,46.75 C 279.49794,65.522464 315.37446,94.715132 349.875,102.84375 L 350.125,101.875 C 315.99522,93.833736 280.09928,64.739715 248.8125,45.90625 C 233.16911,36.489518 218.69216,29.61931 206,29.3125 z"
         id="path3455"
         style="fill:#000000;fill-opacity:1;fill-rule:evenodd;stroke:none;stroke-width:1;stroke-linecap:butt;stroke-linejoin:miter;stroke-miterlimit:4;stroke-dasharray:none;stroke-opacity:1" />
      <path
         d="M 340.61202,95.591693 L 351.29666,102.64959 L 338.58499,104.19511 C 341.05224,102.09571 341.86016,98.618383 340.61202,95.591693 z"
         id="path2577"
         style="font-size:12px;fill-rule:evenodd;stroke-width:0.625;stroke-linejoin:round" />
    </g>
    <rect
       width="149.00821"
       height="99.008263"
       x="100.496"
       y="292.85764"
       id="rect6991"
       style="fill:none;fill-opacity:1;stroke:#000000;stroke-width:0.99199975;stroke-linecap:butt;stroke-linejoin:miter;stroke-miterlimit:4;stroke-dasharray:none;stroke-dashoffset:0;stroke-opacity:1" />
    <rect
       width="149.00827"
       height="99.008224"
       x="267.85764"
       y="-449.50412"
       transform="matrix(0,1,-1,0,0,0)"
       id="rect6993"
       style="fill:none;fill-opacity:1;stroke:#000000;stroke-width:0.99173391;stroke-linecap:butt;stroke-linejoin:miter;stroke-miterlimit:4;stroke-dasharray:none;stroke-dashoffset:0;stroke-opacity:1" />
    <path
       d="M 449.4995,341.86179 L 350.50051,341.86179"
       id="path2479"
       style="fill:none;fill-rule:evenodd;stroke:#000000;stroke-width:0.99999976;stroke-linecap:square;stroke-linejoin:miter;stroke-miterlimit:4;stroke-dasharray:none;stroke-opacity:1" />
    <g
       id="g2565">
      <path
         d="M 175.5,257.53125 C 171.19959,257.67611 167.16605,258.14657 163.4375,259.03125 C 155.98041,260.80061 149.76775,264.20335 145.21875,269.625 C 140.66975,275.04665 137.80162,282.47032 137,292.3125 L 138,292.40625 C 138.78936,282.71461 141.57679,275.48448 145.96875,270.25 C 150.36071,265.01552 156.38626,261.76363 163.6875,260.03125 C 178.28998,256.56649 198.01836,259.30874 219.78125,264.9375 C 263.30703,276.19503 314.83148,298.85117 349.90625,305.34375 L 350.09375,304.375 C 315.25686,297.92645 263.68652,275.25977 220.03125,263.96875 C 203.66052,259.73462 188.40122,257.09668 175.5,257.53125 z"
         id="path4938"
         style="fill:#000000;fill-opacity:1;fill-rule:evenodd;stroke:none;stroke-width:0.99999976px;stroke-linecap:butt;stroke-linejoin:miter;stroke-opacity:1" />
      <path
         d="M 340.29578,298.55298 L 351.30907,305.08619 L 338.68695,307.24432 C 341.04985,305.02811 341.68876,301.5158 340.29578,298.55298 z"
         id="path2571"
         style="font-size:12px;fill-rule:evenodd;stroke-width:0.625;stroke-linejoin:round" />
    </g>
    <g
       id="g2557">
      <path
         d="M 349.90625,379.375 C 321.50967,384.65224 291.61007,403.31116 266.9375,412.84375 C 254.60122,417.61004 243.5936,420.06374 234.8125,417.5625 C 226.0314,415.06126 219.35076,407.65305 215.5,392.25 L 214.5,392.46875 C 218.39924,408.0657 225.40611,415.92311 234.5625,418.53125 C 243.71889,421.13939 254.8988,418.57746 267.3125,413.78125 C 292.13991,404.18884 321.99035,385.56651 350.09375,380.34375 L 349.90625,379.375 z"
         id="path6329"
         style="fill:#000000;fill-opacity:1;fill-rule:evenodd;stroke:none;stroke-width:0.99999976px;stroke-linecap:butt;stroke-linejoin:miter;stroke-opacity:1" />
      <path
         d="M 338.67883,377.45265 L 351.30247,379.60183 L 340.29382,386.14284 C 341.7048,383.22669 341.04166,379.71887 338.67883,377.45265 z"
         id="path2563"
         style="font-size:12px;fill-rule:evenodd;stroke-width:0.625;stroke-linejoin:round" />
    </g>
    <path
       d="M 175.50035,292.86251 L 175.50035,391.86155"
       id="path7973"
       style="fill:none;fill-rule:evenodd;stroke:#000000;stroke-width:0.99999976;stroke-linecap:square;stroke-linejoin:miter;stroke-miterlimit:4;stroke-dasharray:none;stroke-opacity:1" />
    <g
       transform="matrix(2.9999985,0,0,-3,-785.25441,2511.3418)"
       id="g2640"
       xml:space="preserve"
       style="font-style:normal;font-variant:normal;font-weight:normal;font-stretch:normal;letter-spacing:normal;word-spacing:normal;text-anchor:start;fill:none;fill-opacity:1;stroke:#000000;stroke-linecap:butt;stroke-linejoin:miter;stroke-miterlimit:10.43299961;stroke-dasharray:none;stroke-dashoffset:0;stroke-opacity:1">
<path
   d="M 390.2,708.27 L 390.16,708.21 L 390.13,708.15 L 390.09,708.09 L 390.05,708.04 L 390.01,707.99 L 389.98,707.95 L 389.94,707.9 L 389.9,707.86 L 389.87,707.82 L 389.83,707.78 L 389.79,707.75 L 389.75,707.72 L 389.72,707.69 L 389.68,707.66 L 389.64,707.63 L 389.6,707.61 L 389.57,707.59 L 389.53,707.57 L 389.49,707.55 L 389.45,707.53 L 389.41,707.52 L 389.37,707.5 L 389.33,707.49 L 389.3,707.48 L 389.26,707.47 L 389.22,707.46 L 389.18,707.45 L 389.14,707.45 L 389.06,707.44 L 388.98,707.43 C 388.86,707.42 388.77,707.42 388.77,707.23 C 388.77,707.17 388.82,707.12 388.9,707.12 C 389.17,707.12 389.47,707.15 389.75,707.15 C 390.08,707.15 390.43,707.12 390.75,707.12 C 390.81,707.12 390.94,707.12 390.94,707.31 C 390.94,707.42 390.85,707.43 390.78,707.43 C 390.55,707.45 390.31,707.53 390.31,707.78 C 390.31,707.9 390.37,708.01 390.45,708.15 C 390.52,708.27 390.53,708.27 391.21,709.42 L 393.71,709.42 L 393.68,709.73 L 391.4,709.73 L 393.36,713.02 L 393.68,709.73 L 393.71,709.42 C 393.73,709.22 393.87,707.86 393.87,707.76 C 393.87,707.46 393.35,707.43 393.15,707.43 C 393.01,707.43 392.91,707.43 392.91,707.23 C 392.91,707.12 393.03,707.12 393.05,707.12 C 393.46,707.12 393.89,707.15 394.3,707.15 C 394.55,707.15 395.17,707.12 395.42,707.12 C 395.48,707.12 395.6,707.12 395.6,707.32 C 395.6,707.43 395.5,707.43 395.37,707.43 C 394.75,707.43 394.75,707.5 394.72,707.79 L 394.12,714.02 C 394.1,714.22 394.1,714.26 393.93,714.26 C 393.77,714.26 393.73,714.19 393.67,714.09 L 390.2,708.27 z"
   id="path2642"
   style="fill:#000000;stroke-width:0" />
<path
   d="M 399.28,715.46 L 399.28,715.47 L 399.28,715.48 L 399.28,715.49 L 399.29,715.49 L 399.29,715.5 L 399.29,715.51 L 399.29,715.52 L 399.29,715.53 L 399.3,715.54 L 399.3,715.55 L 399.31,715.57 L 399.31,715.58 L 399.31,715.59 L 399.32,715.6 L 399.32,715.61 L 399.33,715.62 L 399.33,715.63 L 399.34,715.63 L 399.34,715.64 L 399.35,715.65 L 399.35,715.65 L 399.36,715.66 L 399.36,715.66 L 399.37,715.67 L 399.38,715.67 L 399.38,715.68 L 399.39,715.68 L 399.4,715.68 L 399.41,715.68 L 399.42,715.69 L 399.43,715.69 L 399.44,715.69 L 399.45,715.69 L 399.47,715.69 L 399.48,715.69 L 399.49,715.7 C 399.53,715.7 399.77,715.7 399.91,715.7 C 400.34,715.7 400.52,715.7 400.69,715.65 C 401.01,715.55 401.02,715.35 401.02,715.1 C 401.02,714.98 401.02,714.89 400.97,714.53 L 400.96,714.46 C 400.96,714.39 401.01,714.35 401.08,714.35 C 401.18,714.35 401.2,714.41 401.21,714.53 L 401.4,715.86 C 401.4,715.95 401.31,715.95 401.19,715.95 L 396.9,715.95 C 396.72,715.95 396.71,715.95 396.66,715.81 L 396.22,714.57 C 396.21,714.55 396.19,714.48 396.19,714.45 C 396.19,714.42 396.2,714.35 396.31,714.35 C 396.4,714.35 396.41,714.39 396.45,714.52 C 396.86,715.63 397.09,715.7 398.15,715.7 L 398.44,715.7 C 398.65,715.7 398.66,715.7 398.66,715.63 C 398.66,715.63 398.66,715.59 398.63,715.49 L 397.71,711.82 C 397.64,711.56 397.62,711.49 396.89,711.49 C 396.64,711.49 396.58,711.49 396.58,711.34 C 396.58,711.32 396.59,711.24 396.7,711.24 C 396.89,711.24 397.1,711.26 397.3,711.26 C 397.49,711.26 397.7,711.27 397.9,711.27 C 398.09,711.27 398.33,711.27 398.52,711.26 C 398.71,711.25 398.92,711.24 399.11,711.24 C 399.17,711.24 399.27,711.24 399.27,711.39 C 399.27,711.49 399.2,711.49 398.98,711.49 C 398.85,711.49 398.71,711.5 398.58,711.51 C 398.34,711.53 398.33,711.55 398.33,711.64 C 398.33,711.69 398.33,711.7 398.36,711.8 L 399.28,715.46 z"
   id="path2644"
   style="fill:#000000;stroke-width:0" />
<path
   d="M 399.41,705.93 L 399.17,705.93 C 399.15,705.78 399.08,705.37 398.99,705.3 C 398.93,705.26 398.4,705.26 398.3,705.26 L 397.02,705.26 C 397.75,705.9 397.99,706.1 398.41,706.43 C 398.93,706.84 399.41,707.27 399.41,707.93 C 399.41,708.78 398.67,709.29 397.78,709.29 C 396.91,709.29 396.33,708.69 396.33,708.04 C 396.33,707.69 396.63,707.65 396.7,707.65 C 396.86,707.65 397.07,707.77 397.07,708.02 C 397.07,708.15 397.02,708.39 396.65,708.39 C 396.87,708.89 397.35,709.04 397.67,709.04 C 398.37,709.04 398.73,708.5 398.73,707.93 C 398.73,707.33 398.3,706.84 398.08,706.59 L 396.4,704.93 C 396.33,704.87 396.33,704.86 396.33,704.66 L 399.2,704.66 L 399.41,705.93 z"
   id="path2646"
   style="fill:#000000;stroke-width:0" />
</g>    <g
       transform="matrix(2.9999985,0,0,-3,-785.25441,2438.9012)"
       id="content"
       xml:space="preserve"
       style="font-style:normal;font-variant:normal;font-weight:normal;font-stretch:normal;letter-spacing:normal;word-spacing:normal;text-anchor:start;fill:none;fill-opacity:1;stroke:#000000;stroke-linecap:butt;stroke-linejoin:miter;stroke-miterlimit:10.43299961;stroke-dasharray:none;stroke-dashoffset:0;stroke-opacity:1">
<path
   d="M 390.2,708.27 L 390.16,708.21 L 390.13,708.15 L 390.09,708.09 L 390.05,708.04 L 390.01,707.99 L 389.98,707.95 L 389.94,707.9 L 389.9,707.86 L 389.87,707.82 L 389.83,707.78 L 389.79,707.75 L 389.75,707.72 L 389.72,707.69 L 389.68,707.66 L 389.64,707.63 L 389.6,707.61 L 389.57,707.59 L 389.53,707.57 L 389.49,707.55 L 389.45,707.53 L 389.41,707.52 L 389.37,707.5 L 389.33,707.49 L 389.3,707.48 L 389.26,707.47 L 389.22,707.46 L 389.18,707.45 L 389.14,707.45 L 389.06,707.44 L 388.98,707.43 C 388.86,707.42 388.77,707.42 388.77,707.23 C 388.77,707.17 388.82,707.12 388.9,707.12 C 389.17,707.12 389.47,707.15 389.75,707.15 C 390.08,707.15 390.43,707.12 390.75,707.12 C 390.81,707.12 390.94,707.12 390.94,707.31 C 390.94,707.42 390.85,707.43 390.78,707.43 C 390.55,707.45 390.31,707.53 390.31,707.78 C 390.31,707.9 390.37,708.01 390.45,708.15 C 390.52,708.27 390.53,708.27 391.21,709.42 L 393.71,709.42 L 393.68,709.73 L 391.4,709.73 L 393.36,713.02 L 393.68,709.73 L 393.71,709.42 C 393.73,709.22 393.87,707.86 393.87,707.76 C 393.87,707.46 393.35,707.43 393.15,707.43 C 393.01,707.43 392.91,707.43 392.91,707.23 C 392.91,707.12 393.03,707.12 393.05,707.12 C 393.46,707.12 393.89,707.15 394.3,707.15 C 394.55,707.15 395.17,707.12 395.42,707.12 C 395.48,707.12 395.6,707.12 395.6,707.32 C 395.6,707.43 395.5,707.43 395.37,707.43 C 394.75,707.43 394.75,707.5 394.72,707.79 L 394.12,714.02 C 394.1,714.22 394.1,714.26 393.93,714.26 C 393.77,714.26 393.73,714.19 393.67,714.09 L 390.2,708.27 z"
   id="path2703"
   style="fill:#000000;stroke-width:0" />
<path
   d="M 399.28,715.46 L 399.28,715.47 L 399.28,715.48 L 399.28,715.49 L 399.29,715.49 L 399.29,715.5 L 399.29,715.51 L 399.29,715.52 L 399.29,715.53 L 399.3,715.54 L 399.3,715.55 L 399.31,715.57 L 399.31,715.58 L 399.31,715.59 L 399.32,715.6 L 399.32,715.61 L 399.33,715.62 L 399.33,715.63 L 399.34,715.63 L 399.34,715.64 L 399.35,715.65 L 399.35,715.65 L 399.36,715.66 L 399.36,715.66 L 399.37,715.67 L 399.38,715.67 L 399.38,715.68 L 399.39,715.68 L 399.4,715.68 L 399.41,715.68 L 399.42,715.69 L 399.43,715.69 L 399.44,715.69 L 399.45,715.69 L 399.47,715.69 L 399.48,715.69 L 399.49,715.7 C 399.53,715.7 399.77,715.7 399.91,715.7 C 400.34,715.7 400.52,715.7 400.69,715.65 C 401.01,715.55 401.02,715.35 401.02,715.1 C 401.02,714.98 401.02,714.89 400.97,714.53 L 400.96,714.46 C 400.96,714.39 401.01,714.35 401.08,714.35 C 401.18,714.35 401.2,714.41 401.21,714.53 L 401.4,715.86 C 401.4,715.95 401.31,715.95 401.19,715.95 L 396.9,715.95 C 396.72,715.95 396.71,715.95 396.66,715.81 L 396.22,714.57 C 396.21,714.55 396.19,714.48 396.19,714.45 C 396.19,714.42 396.2,714.35 396.31,714.35 C 396.4,714.35 396.41,714.39 396.45,714.52 C 396.86,715.63 397.09,715.7 398.15,715.7 L 398.44,715.7 C 398.65,715.7 398.66,715.7 398.66,715.63 C 398.66,715.63 398.66,715.59 398.63,715.49 L 397.71,711.82 C 397.64,711.56 397.62,711.49 396.89,711.49 C 396.64,711.49 396.58,711.49 396.58,711.34 C 396.58,711.32 396.59,711.24 396.7,711.24 C 396.89,711.24 397.1,711.26 397.3,711.26 C 397.49,711.26 397.7,711.27 397.9,711.27 C 398.09,711.27 398.33,711.27 398.52,711.26 C 398.71,711.25 398.92,711.24 399.11,711.24 C 399.17,711.24 399.27,711.24 399.27,711.39 C 399.27,711.49 399.2,711.49 398.98,711.49 C 398.85,711.49 398.71,711.5 398.58,711.51 C 398.34,711.53 398.33,711.55 398.33,711.64 C 398.33,711.69 398.33,711.7 398.36,711.8 L 399.28,715.46 z"
   id="path2705"
   style="fill:#000000;stroke-width:0" />
<path
   d="M 398.22,709.1 L 398.22,709.11 L 398.22,709.12 L 398.22,709.12 L 398.22,709.13 L 398.22,709.14 L 398.22,709.15 L 398.22,709.15 L 398.22,709.16 L 398.22,709.17 L 398.22,709.17 L 398.22,709.18 L 398.22,709.19 L 398.22,709.19 L 398.22,709.2 L 398.22,709.2 L 398.22,709.21 L 398.22,709.21 L 398.22,709.22 L 398.21,709.23 L 398.21,709.23 L 398.21,709.24 L 398.21,709.25 L 398.2,709.26 L 398.2,709.26 L 398.19,709.27 L 398.19,709.27 L 398.18,709.27 L 398.17,709.28 L 398.17,709.28 L 398.16,709.28 L 398.15,709.29 L 398.14,709.29 L 398.14,709.29 L 398.13,709.29 L 398.12,709.29 L 398.12,709.29 L 398.11,709.29 L 398.11,709.29 L 398.1,709.29 L 398.09,709.29 L 398.09,709.29 L 398.08,709.29 L 398.07,709.29 L 398.07,709.29 L 398.06,709.29 L 398.05,709.29 L 398.04,709.29 L 398.03,709.29 L 398.02,709.29 L 398.02,709.29 C 397.57,708.85 396.93,708.85 396.65,708.85 L 396.65,708.6 C 396.82,708.6 397.27,708.6 397.66,708.79 L 397.66,705.23 C 397.66,705 397.66,704.91 396.96,704.91 L 396.7,704.91 L 396.7,704.66 C 396.82,704.67 397.68,704.69 397.94,704.69 C 398.15,704.69 399.03,704.67 399.19,704.66 L 399.19,704.91 L 398.92,704.91 C 398.22,704.91 398.22,705 398.22,705.23 L 398.22,709.1 z"
   id="path2707"
   style="fill:#000000;stroke-width:0" />
</g>    <g
       transform="matrix(2.9999985,0,0,-3,-1044.0094,2472.1968)"
       id="g2757"
       xml:space="preserve"
       style="font-style:normal;font-variant:normal;font-weight:normal;font-stretch:normal;letter-spacing:normal;word-spacing:normal;text-anchor:start;fill:none;fill-opacity:1;stroke:#000000;stroke-linecap:butt;stroke-linejoin:miter;stroke-miterlimit:10.43299961;stroke-dasharray:none;stroke-dashoffset:0;stroke-opacity:1">
<path
   d="M 391.1,708.27 L 391.06,708.21 L 391.03,708.15 L 390.99,708.09 L 390.95,708.04 L 390.91,707.99 L 390.88,707.95 L 390.84,707.9 L 390.8,707.86 L 390.77,707.82 L 390.73,707.78 L 390.69,707.75 L 390.65,707.72 L 390.62,707.69 L 390.58,707.66 L 390.54,707.63 L 390.5,707.61 L 390.47,707.59 L 390.43,707.57 L 390.39,707.55 L 390.35,707.53 L 390.31,707.52 L 390.27,707.5 L 390.23,707.49 L 390.2,707.48 L 390.16,707.47 L 390.12,707.46 L 390.08,707.45 L 390.04,707.45 L 389.96,707.44 L 389.88,707.43 C 389.76,707.42 389.67,707.42 389.67,707.23 C 389.67,707.17 389.72,707.12 389.8,707.12 C 390.07,707.12 390.37,707.15 390.65,707.15 C 390.98,707.15 391.33,707.12 391.65,707.12 C 391.71,707.12 391.84,707.12 391.84,707.31 C 391.84,707.42 391.75,707.43 391.68,707.43 C 391.45,707.45 391.21,707.53 391.21,707.78 C 391.21,707.9 391.27,708.01 391.35,708.15 C 391.42,708.27 391.43,708.27 392.11,709.42 L 394.61,709.42 L 394.58,709.73 L 392.3,709.73 L 394.26,713.02 L 394.58,709.73 L 394.61,709.42 C 394.63,709.22 394.77,707.86 394.77,707.76 C 394.77,707.46 394.25,707.43 394.05,707.43 C 393.91,707.43 393.81,707.43 393.81,707.23 C 393.81,707.12 393.93,707.12 393.95,707.12 C 394.36,707.12 394.79,707.15 395.2,707.15 C 395.45,707.15 396.07,707.12 396.32,707.12 C 396.38,707.12 396.5,707.12 396.5,707.32 C 396.5,707.43 396.4,707.43 396.27,707.43 C 395.65,707.43 395.65,707.5 395.62,707.79 L 395.02,714.02 C 395,714.22 395,714.26 394.83,714.26 C 394.67,714.26 394.63,714.19 394.57,714.09 L 391.1,708.27 z"
   id="path2759"
   style="fill:#000000;stroke-width:0" />
<path
   d="M 399.12,710.07 L 399.12,710.07 L 399.12,710.08 L 399.12,710.09 L 399.12,710.1 L 399.12,710.11 L 399.12,710.11 L 399.12,710.12 L 399.12,710.13 L 399.12,710.13 L 399.12,710.14 L 399.12,710.15 L 399.12,710.15 L 399.12,710.16 L 399.12,710.16 L 399.12,710.17 L 399.12,710.18 L 399.12,710.18 L 399.12,710.19 L 399.11,710.19 L 399.11,710.2 L 399.11,710.21 L 399.11,710.22 L 399.1,710.22 L 399.1,710.23 L 399.09,710.23 L 399.09,710.24 L 399.08,710.24 L 399.07,710.25 L 399.07,710.25 L 399.06,710.25 L 399.05,710.25 L 399.04,710.26 L 399.04,710.26 L 399.03,710.26 L 399.02,710.26 L 399.02,710.26 L 399.01,710.26 L 399.01,710.26 L 399,710.26 L 398.99,710.26 L 398.99,710.26 L 398.98,710.26 L 398.97,710.26 L 398.97,710.26 L 398.96,710.26 L 398.95,710.26 L 398.94,710.26 L 398.93,710.26 L 398.92,710.26 L 398.92,710.26 C 398.47,709.82 397.83,709.81 397.55,709.81 L 397.55,709.56 C 397.71,709.56 398.17,709.56 398.56,709.76 L 398.56,706.2 C 398.56,705.97 398.56,705.88 397.86,705.88 L 397.6,705.88 L 397.6,705.63 C 397.72,705.64 398.58,705.66 398.84,705.66 C 399.05,705.66 399.93,705.64 400.09,705.63 L 400.09,705.88 L 399.82,705.88 C 399.12,705.88 399.12,705.97 399.12,706.2 L 399.12,710.07 z"
   id="path2761"
   style="fill:#000000;stroke-width:0" />
</g>    <g
       transform="matrix(2.9999985,0,0,-3,-969.00943,2472.1968)"
       id="g2817"
       xml:space="preserve"
       style="font-style:normal;font-variant:normal;font-weight:normal;font-stretch:normal;letter-spacing:normal;word-spacing:normal;text-anchor:start;fill:none;fill-opacity:1;stroke:#000000;stroke-linecap:butt;stroke-linejoin:miter;stroke-miterlimit:10.43299961;stroke-dasharray:none;stroke-dashoffset:0;stroke-opacity:1">
<path
   d="M 391.1,708.27 L 391.06,708.21 L 391.03,708.15 L 390.99,708.09 L 390.95,708.04 L 390.91,707.99 L 390.88,707.95 L 390.84,707.9 L 390.8,707.86 L 390.77,707.82 L 390.73,707.78 L 390.69,707.75 L 390.65,707.72 L 390.62,707.69 L 390.58,707.66 L 390.54,707.63 L 390.5,707.61 L 390.47,707.59 L 390.43,707.57 L 390.39,707.55 L 390.35,707.53 L 390.31,707.52 L 390.27,707.5 L 390.23,707.49 L 390.2,707.48 L 390.16,707.47 L 390.12,707.46 L 390.08,707.45 L 390.04,707.45 L 389.96,707.44 L 389.88,707.43 C 389.76,707.42 389.67,707.42 389.67,707.23 C 389.67,707.17 389.72,707.12 389.8,707.12 C 390.07,707.12 390.37,707.15 390.65,707.15 C 390.98,707.15 391.33,707.12 391.65,707.12 C 391.71,707.12 391.84,707.12 391.84,707.31 C 391.84,707.42 391.75,707.43 391.68,707.43 C 391.45,707.45 391.21,707.53 391.21,707.78 C 391.21,707.9 391.27,708.01 391.35,708.15 C 391.42,708.27 391.43,708.27 392.11,709.42 L 394.61,709.42 L 394.58,709.73 L 392.3,709.73 L 394.26,713.02 L 394.58,709.73 L 394.61,709.42 C 394.63,709.22 394.77,707.86 394.77,707.76 C 394.77,707.46 394.25,707.43 394.05,707.43 C 393.91,707.43 393.81,707.43 393.81,707.23 C 393.81,707.12 393.93,707.12 393.95,707.12 C 394.36,707.12 394.79,707.15 395.2,707.15 C 395.45,707.15 396.07,707.12 396.32,707.12 C 396.38,707.12 396.5,707.12 396.5,707.32 C 396.5,707.43 396.4,707.43 396.27,707.43 C 395.65,707.43 395.65,707.5 395.62,707.79 L 395.02,714.02 C 395,714.22 395,714.26 394.83,714.26 C 394.67,714.26 394.63,714.19 394.57,714.09 L 391.1,708.27 z"
   id="path2819"
   style="fill:#000000;stroke-width:0" />
<path
   d="M 400.31,706.9 L 400.07,706.9 C 400.05,706.75 399.98,706.33 399.89,706.27 C 399.83,706.22 399.3,706.22 399.2,706.22 L 397.92,706.22 C 398.65,706.87 398.89,707.07 399.31,707.39 C 399.83,707.81 400.31,708.24 400.31,708.9 C 400.31,709.74 399.57,710.26 398.68,710.26 C 397.81,710.26 397.23,709.65 397.23,709.01 C 397.23,708.66 397.53,708.62 397.6,708.62 C 397.76,708.62 397.97,708.74 397.97,708.99 C 397.97,709.12 397.92,709.36 397.55,709.36 C 397.77,709.86 398.24,710.01 398.57,710.01 C 399.27,710.01 399.63,709.47 399.63,708.9 C 399.63,708.29 399.2,707.81 398.98,707.56 L 397.3,705.9 C 397.23,705.84 397.23,705.83 397.23,705.63 L 400.1,705.63 L 400.31,706.9 z"
   id="path2821"
   style="fill:#000000;stroke-width:0" />
</g>    <g
       transform="matrix(3,0,0,-3,-1010.96,2234.4322)"
       id="g2883"
       xml:space="preserve"
       style="font-style:normal;font-variant:normal;font-weight:normal;font-stretch:normal;letter-spacing:normal;word-spacing:normal;text-anchor:start;fill:none;fill-opacity:1;stroke:#000000;stroke-linecap:butt;stroke-linejoin:miter;stroke-miterlimit:10.43299961;stroke-dasharray:none;stroke-dashoffset:0;stroke-opacity:1">
<path
   d="M 393.34,708.27 L 393.3,708.21 L 393.26,708.15 L 393.22,708.09 L 393.19,708.04 L 393.15,707.99 L 393.11,707.95 L 393.08,707.9 L 393.04,707.86 L 393,707.82 L 392.96,707.78 L 392.93,707.75 L 392.89,707.72 L 392.85,707.69 L 392.81,707.66 L 392.78,707.63 L 392.74,707.61 L 392.7,707.59 L 392.66,707.57 L 392.62,707.55 L 392.59,707.53 L 392.55,707.52 L 392.51,707.5 L 392.47,707.49 L 392.43,707.48 L 392.39,707.47 L 392.35,707.46 L 392.31,707.45 L 392.27,707.45 L 392.19,707.44 L 392.11,707.43 C 391.99,707.42 391.9,707.42 391.9,707.23 C 391.9,707.17 391.95,707.12 392.03,707.12 C 392.3,707.12 392.61,707.15 392.89,707.15 C 393.22,707.15 393.57,707.12 393.88,707.12 C 393.94,707.12 394.07,707.12 394.07,707.31 C 394.07,707.42 393.98,707.43 393.91,707.43 C 393.68,707.45 393.45,707.53 393.45,707.78 C 393.45,707.9 393.51,708.01 393.58,708.15 C 393.65,708.27 393.67,708.27 394.34,709.42 L 396.84,709.42 L 396.81,709.73 L 394.53,709.73 L 396.49,713.02 L 396.81,709.73 L 396.84,709.42 C 396.86,709.22 397,707.86 397,707.76 C 397,707.46 396.48,707.43 396.29,707.43 C 396.14,707.43 396.05,707.43 396.05,707.23 C 396.05,707.12 396.17,707.12 396.18,707.12 C 396.59,707.12 397.02,707.15 397.43,707.15 C 397.68,707.15 398.31,707.12 398.56,707.12 C 398.62,707.12 398.74,707.12 398.74,707.32 C 398.74,707.43 398.64,707.43 398.51,707.43 C 397.89,707.43 397.89,707.5 397.86,707.79 L 397.25,714.02 C 397.23,714.22 397.23,714.26 397.06,714.26 C 396.9,714.26 396.86,714.19 396.8,714.09 L 393.34,708.27 z"
   id="path2885"
   style="fill:#000000;stroke-width:0" />
</g>    <g
       transform="matrix(3,0,0,-3,-785.25502,2236.9672)"
       id="g2951"
       xml:space="preserve"
       style="font-style:normal;font-variant:normal;font-weight:normal;font-stretch:normal;letter-spacing:normal;word-spacing:normal;text-anchor:start;fill:none;fill-opacity:1;stroke:#000000;stroke-linecap:butt;stroke-linejoin:miter;stroke-miterlimit:10.43299961;stroke-dasharray:none;stroke-dashoffset:0;stroke-opacity:1">
<path
   d="M 390.2,708.27 L 390.16,708.21 L 390.13,708.15 L 390.09,708.09 L 390.05,708.04 L 390.01,707.99 L 389.98,707.95 L 389.94,707.9 L 389.9,707.86 L 389.87,707.82 L 389.83,707.78 L 389.79,707.75 L 389.75,707.72 L 389.72,707.69 L 389.68,707.66 L 389.64,707.63 L 389.6,707.61 L 389.57,707.59 L 389.53,707.57 L 389.49,707.55 L 389.45,707.53 L 389.41,707.52 L 389.37,707.5 L 389.33,707.49 L 389.3,707.48 L 389.26,707.47 L 389.22,707.46 L 389.18,707.45 L 389.14,707.45 L 389.06,707.44 L 388.98,707.43 C 388.86,707.42 388.77,707.42 388.77,707.23 C 388.77,707.17 388.82,707.12 388.9,707.12 C 389.17,707.12 389.47,707.15 389.75,707.15 C 390.08,707.15 390.43,707.12 390.75,707.12 C 390.81,707.12 390.94,707.12 390.94,707.31 C 390.94,707.42 390.85,707.43 390.78,707.43 C 390.55,707.45 390.31,707.53 390.31,707.78 C 390.31,707.9 390.37,708.01 390.45,708.15 C 390.52,708.27 390.53,708.27 391.21,709.42 L 393.71,709.42 L 393.68,709.73 L 391.4,709.73 L 393.36,713.02 L 393.68,709.73 L 393.71,709.42 C 393.73,709.22 393.87,707.86 393.87,707.76 C 393.87,707.46 393.35,707.43 393.15,707.43 C 393.01,707.43 392.91,707.43 392.91,707.23 C 392.91,707.12 393.03,707.12 393.05,707.12 C 393.46,707.12 393.89,707.15 394.3,707.15 C 394.55,707.15 395.17,707.12 395.42,707.12 C 395.48,707.12 395.6,707.12 395.6,707.32 C 395.6,707.43 395.5,707.43 395.37,707.43 C 394.75,707.43 394.75,707.5 394.72,707.79 L 394.12,714.02 C 394.1,714.22 394.1,714.26 393.93,714.26 C 393.77,714.26 393.73,714.19 393.67,714.09 L 390.2,708.27 z"
   id="path2953"
   style="fill:#000000;stroke-width:0" />
<path
   d="M 399.28,715.46 L 399.28,715.47 L 399.28,715.48 L 399.28,715.49 L 399.29,715.49 L 399.29,715.5 L 399.29,715.51 L 399.29,715.52 L 399.29,715.53 L 399.3,715.54 L 399.3,715.55 L 399.31,715.57 L 399.31,715.58 L 399.31,715.59 L 399.32,715.6 L 399.32,715.61 L 399.33,715.62 L 399.33,715.63 L 399.34,715.63 L 399.34,715.64 L 399.35,715.65 L 399.35,715.65 L 399.36,715.66 L 399.36,715.66 L 399.37,715.67 L 399.38,715.67 L 399.38,715.68 L 399.39,715.68 L 399.4,715.68 L 399.41,715.68 L 399.42,715.69 L 399.43,715.69 L 399.44,715.69 L 399.45,715.69 L 399.47,715.69 L 399.48,715.69 L 399.49,715.7 C 399.53,715.7 399.77,715.7 399.91,715.7 C 400.34,715.7 400.52,715.7 400.69,715.65 C 401.01,715.55 401.02,715.35 401.02,715.1 C 401.02,714.98 401.02,714.89 400.97,714.53 L 400.96,714.46 C 400.96,714.39 401.01,714.35 401.08,714.35 C 401.18,714.35 401.2,714.41 401.21,714.53 L 401.4,715.86 C 401.4,715.95 401.31,715.95 401.19,715.95 L 396.9,715.95 C 396.72,715.95 396.71,715.95 396.66,715.81 L 396.22,714.57 C 396.21,714.55 396.19,714.48 396.19,714.45 C 396.19,714.42 396.2,714.35 396.31,714.35 C 396.4,714.35 396.41,714.39 396.45,714.52 C 396.86,715.63 397.09,715.7 398.15,715.7 L 398.44,715.7 C 398.65,715.7 398.66,715.7 398.66,715.63 C 398.66,715.63 398.66,715.59 398.63,715.49 L 397.71,711.82 C 397.64,711.56 397.62,711.49 396.89,711.49 C 396.64,711.49 396.58,711.49 396.58,711.34 C 396.58,711.32 396.59,711.24 396.7,711.24 C 396.89,711.24 397.1,711.26 397.3,711.26 C 397.49,711.26 397.7,711.27 397.9,711.27 C 398.09,711.27 398.33,711.27 398.52,711.26 C 398.71,711.25 398.92,711.24 399.11,711.24 C 399.17,711.24 399.27,711.24 399.27,711.39 C 399.27,711.49 399.2,711.49 398.98,711.49 C 398.85,711.49 398.71,711.5 398.58,711.51 C 398.34,711.53 398.33,711.55 398.33,711.64 C 398.33,711.69 398.33,711.7 398.36,711.8 L 399.28,715.46 z"
   id="path2955"
   style="fill:#000000;stroke-width:0" />
</g>    <text
       x="37.597649"
       y="114.90124"
       id="text2533"
       xml:space="preserve"
       style="font-size:40px;font-style:normal;font-weight:normal;fill:#000000;fill-opacity:1;stroke:none;stroke-width:1px;stroke-linecap:butt;stroke-linejoin:miter;stroke-opacity:1;font-family:Bitstream Vera Sans"><tspan
         x="37.597649"
         y="114.90124"
         id="tspan2535"><tspan
           x="37.597649"
           y="114.90124"
           id="tspan2537">a)</tspan></tspan></text>
    <text
       x="36.36718"
       y="354.92035"
       id="text2539"
       xml:space="preserve"
       style="font-size:40px;font-style:normal;font-weight:normal;fill:#000000;fill-opacity:1;stroke:none;stroke-width:1px;stroke-linecap:butt;stroke-linejoin:miter;stroke-opacity:1;font-family:Bitstream Vera Sans"><tspan
         x="36.36718"
         y="354.92035"
         id="tspan2541"><tspan
           x="36.36718"
           y="354.92035"
           id="tspan2543">b)</tspan></tspan></text>
  </g>
</svg>
