<?xml version="1.0" encoding="UTF-8" standalone="no"?>
<!-- Created with Serif DrawPlus 11, 0, 3, 23 (Feb 25, 14:12:55) (http://www.serif.com) -->
<svg version="1.1" xmlns="http://www.w3.org/2000/svg" xmlns:xlink="http://www.w3.org/1999/xlink" width="331.443" height="324.561">
	<g id="dp_group001" transform="matrix(1,0,0,1,-402.427,-659.903)">
		<path id="dp_path002" fill="none" fill-rule="evenodd" stroke="black" stroke-width="0.666667" d="M 542.3,768.072 C 481.001,763.935 425.939,788.003 408.32,831.119 C 386.077,885.553 431.936,949.721 510.748,974.448 C 589.56,999.173 671.483,975.089 693.727,920.659 C 715.969,866.227 670.111,802.056 591.299,777.329 C 574.913,772.188 558.395,769.157 542.3,768.072"/>
		<g id="dp_group003">
			<g id="dp_group004">
				<path id="dp_path005" fill="black" fill-rule="evenodd" d="M 684.485,916.868 L 683.884,918.776 L 682.681,922.591 L 693.721,920.829 L 685.688,913.053 Z "/>
				<path id="dp_path006" fill="black" d="M 550.793,876.823 L 683.884,918.776 L 684.484,916.869 L 551.393,874.916 Z "/>
			</g>
		</g>
		<path id="dp_path007" fill="none" fill-rule="evenodd" stroke="black" stroke-width="0.666667" d="M 591.292,777.503 L 551.093,875.869"/>
		<path id="dp_path008" fill="none" fill-rule="evenodd" stroke="black" stroke-width="0.666667" d="M 551.093,875.869 L 510.743,974.619"/>
		<text id="dp_text001" transform="matrix(1,8.74302e-016,-8.88178e-016,1,556.835,794.747)" xml:space="preserve" fill="#2a04e8" font-family="Arial" font-size="18" font-weight="700" x="0" y="0">a </text>
		<g id="dp_group010">
			<text id="dp_text002" transform="matrix(1,8.74302e-016,-8.88178e-016,1,697.953,927.333)" xml:space="preserve" fill="black" font-family="Arial" font-size="18" font-weight="700" x="0" y="0">r </text>
			<path id="dp_path012" fill="none" fill-rule="evenodd" stroke="black" stroke-width="0.666667" d="M 708.123,924.861 L 708.123,931.921"/>
			<path id="dp_path013" fill="none" fill-rule="evenodd" stroke="black" stroke-width="0.666667" d="M 703.973,931.603 L 712.272,931.603"/>
		</g>
		<path id="dp_path014" fill="none" fill-rule="evenodd" stroke="black" stroke-width="1" d="M 706.723,837.733 L 721.181,745.644"/>
		<g id="dp_group015">
			<g id="dp_group016">
				<path id="dp_path017" fill="black" fill-rule="evenodd" d="M 706.929,833.331 L 707.917,833.485 L 709.893,833.795 L 708.199,828.468 L 704.953,833.021 Z "/>
				<path id="dp_path018" fill="black" d="M 694.216,920.909 L 707.917,833.485 L 706.931,833.331 L 693.229,920.755 Z "/>
			</g>
		</g>
		<text id="dp_text003" transform="matrix(1,8.74302e-016,-8.88178e-016,1,726.784,752.415)" xml:space="preserve" fill="#bd0202" font-family="Arial" font-size="18" font-weight="700" x="0" y="0">r </text>
		<g id="dp_group020">
			<text id="dp_text004" transform="matrix(1,8.74302e-016,-8.88178e-016,1,713.335,839.262)" xml:space="preserve" fill="black" font-family="Arial" font-size="18" font-weight="700" x="0" y="0">r </text>
			<path id="dp_path022" fill="none" fill-rule="evenodd" stroke="black" stroke-width="0.666667" d="M 723.505,836.475 L 723.505,843.535"/>
			<path id="dp_path023" fill="none" fill-rule="evenodd" stroke="black" stroke-width="0.666667" d="M 721.252,836.473 L 721.252,843.533"/>
		</g>
		<g id="dp_group024">
			<g id="dp_group025">
				<path id="dp_path026" fill="black" d="M 696.251,902.075 L 693.451,920.411 L 679.971,916.685 L 682.771,898.349 L 696.251,902.075 L 696.997,901.592 L 682.227,897.509 L 679.224,917.168 L 693.995,921.251 L 696.997,901.592 Z "/>
			</g>
		</g>
		<g id="dp_group027">
			<g id="dp_group028">
				<path id="dp_path029" fill="black" d="M 575.349,863.243 L 568.452,880.507 L 551.629,875.872 L 558.528,858.608 L 575.349,863.243 L 576.243,862.8 L 558.131,857.808 L 550.736,876.315 L 568.849,881.307 L 576.243,862.8 Z "/>
			</g>
		</g>
		<g id="dp_group030">
			<g id="dp_group031">
				<path id="dp_path032" fill="#2a04e8" fill-rule="evenodd" d="M 588.167,783.252 L 589.401,783.755 L 591.871,784.761 L 591.299,777.329 L 585.696,782.247 Z "/>
				<path id="dp_path033" fill="#2a04e8" d="M 551.637,876.463 L 589.401,783.756 L 588.167,783.252 L 550.403,875.959 Z "/>
			</g>
		</g>
		<g id="dp_group034">
			<g id="dp_group035">
				<path id="dp_path036" fill="#bd0202" fill-rule="evenodd" d="M 712.779,750.924 L 713.993,752.512 L 716.424,755.689 L 721.328,745.641 L 710.348,747.747 Z "/>
				<path id="dp_path037" fill="#bd0202" d="M 551.703,876.663 L 713.995,752.513 L 712.779,750.924 L 550.487,875.073 Z "/>
			</g>
		</g>
		<g id="dp_group038">
			<g id="dp_group039">
				<path id="dp_path040" fill="black" d="M 569.481,863.971 L 567.008,880.115 L 551.557,875.857 L 554.031,859.713 L 569.481,863.971 L 570.228,863.488 L 553.487,858.873 L 550.811,876.34 L 567.552,880.955 L 570.228,863.488 Z "/>
			</g>
		</g>
		<g id="dp_group041">
			<g id="dp_group042">
				<path id="dp_path043" fill="black" fill-rule="evenodd" d="M 590.357,841.24 L 589.44,841.64 L 587.208,841.523 L 591.297,844.648 L 591.791,839.524 Z "/>
				<path id="dp_path044" fill="black" d="M 590.357,841.24 L 590.271,841.044 L 589.949,840.371 L 589.623,839.711 L 589.288,839.057 L 588.948,838.411 L 588.601,837.771 L 588.248,837.137 L 587.887,836.509 L 587.52,835.889 L 587.145,835.276 L 586.767,834.671 L 586.379,834.072 L 585.985,833.481 L 585.587,832.897 L 585.181,832.32 L 584.768,831.751 L 584.351,831.191 L 583.924,830.637 L 583.493,830.092 L 583.057,829.555 L 582.613,829.025 L 582.164,828.503 L 581.708,827.991 L 581.247,827.487 L 580.78,826.992 L 580.308,826.503 L 579.827,826.024 L 579.344,825.555 L 578.855,825.095 L 578.357,824.64 L 577.855,824.197 L 577.348,823.765 L 576.835,823.34 L 576.317,822.924 L 575.793,822.519 L 575.264,822.121 L 574.729,821.736 L 574.191,821.359 L 573.644,820.992 L 573.095,820.635 L 572.539,820.288 L 571.979,819.951 L 571.412,819.624 L 570.841,819.308 L 570.265,819.003 L 569.685,818.708 L 569.1,818.424 L 568.511,818.149 L 567.916,817.887 L 567.315,817.635 L 566.712,817.395 L 566.104,817.165 L 565.797,817.053 L 565.489,816.945 L 565.181,816.841 L 564.871,816.739 L 564.56,816.64 L 564.248,816.544 L 563.936,816.451 L 563.623,816.36 L 563.307,816.272 L 562.991,816.188 L 562.675,816.105 L 562.356,816.027 L 562.036,815.951 L 561.716,815.877 L 561.393,815.808 L 561.075,815.741 L 560.872,816.72 L 561.188,816.784 L 561.5,816.853 L 561.812,816.924 L 562.121,816.997 L 562.429,817.073 L 562.737,817.153 L 563.045,817.235 L 563.351,817.32 L 563.656,817.408 L 563.96,817.499 L 564.261,817.592 L 564.564,817.688 L 564.864,817.788 L 565.164,817.889 L 565.461,817.995 L 565.757,818.101 L 566.352,818.325 L 566.939,818.56 L 567.521,818.804 L 568.1,819.059 L 568.673,819.325 L 569.243,819.601 L 569.807,819.888 L 570.367,820.185 L 570.921,820.493 L 571.472,820.812 L 572.019,821.139 L 572.559,821.477 L 573.095,821.824 L 573.625,822.183 L 574.151,822.549 L 574.672,822.927 L 575.188,823.313 L 575.699,823.708 L 576.205,824.113 L 576.705,824.528 L 577.201,824.952 L 577.691,825.384 L 578.175,825.825 L 578.653,826.277 L 579.128,826.736 L 579.596,827.204 L 580.057,827.68 L 580.516,828.167 L 580.967,828.66 L 581.412,829.161 L 581.853,829.671 L 582.287,830.189 L 582.715,830.716 L 583.137,831.251 L 583.553,831.793 L 583.963,832.343 L 584.368,832.901 L 584.765,833.465 L 585.159,834.039 L 585.544,834.619 L 585.924,835.207 L 586.297,835.801 L 586.664,836.404 L 587.025,837.013 L 587.379,837.628 L 587.727,838.251 L 588.068,838.88 L 588.403,839.516 L 588.729,840.159 L 589.051,840.808 L 589.361,841.457 L 589.44,841.64 Z "/>
			</g>
		</g>
		<text id="dp_text005" transform="matrix(1,3.80823e-015,-3.88578e-015,1,580.391,769.948)" xml:space="preserve" fill="#2a04e8" font-family="Arial" font-size="18" font-weight="700" x="0" y="0">a</text>
		<text id="dp_text006" transform="matrix(1,3.80823e-015,-3.88578e-015,1,580.391,769.948)" xml:space="preserve" fill="black" font-family="Arial" font-size="18" font-weight="400" x="9.81067" y="0">×</text>
		<text id="dp_text007" transform="matrix(1,3.80823e-015,-3.88578e-015,1,580.391,769.948)" xml:space="preserve" fill="#bd0202" font-family="Arial" font-size="18" font-weight="700" x="20.0893" y="0">r</text>
		<text id="dp_text008" transform="matrix(1,3.80823e-015,-3.88578e-015,1,580.391,769.948)" xml:space="preserve" fill="#e87a04" font-family="Arial" font-size="18" font-weight="700" x="26.9413" y="0"> </text>
		<g id="dp_group049">
			<g id="dp_group050">
				<path id="dp_path051" fill="black" fill-rule="evenodd" d="M 414.623,834.015 L 415.023,832.743 L 415.824,830.2 L 408.464,831.376 L 413.821,836.559 Z "/>
				<path id="dp_path052" fill="black" d="M 551.292,875.699 L 415.023,832.743 L 414.623,834.015 L 550.892,876.971 Z "/>
			</g>
		</g>
		<text id="dp_text009" transform="matrix(1,3.94701e-015,-3.77476e-015,1,420.955,827.747)" xml:space="preserve" fill="#2a04e8" font-family="Arial" font-size="18" font-weight="700" x="0" y="0">a</text>
		<text id="dp_text010" transform="matrix(1,3.94701e-015,-3.77476e-015,1,420.955,827.747)" xml:space="preserve" fill="black" font-family="Arial" font-size="18" font-weight="400" x="9.81067" y="0">×(</text>
		<text id="dp_text011" transform="matrix(1,3.94701e-015,-3.77476e-015,1,420.955,827.747)" xml:space="preserve" fill="#2a04e8" font-family="Arial" font-size="18" font-weight="700" x="25.9573" y="0">a</text>
		<text id="dp_text012" transform="matrix(1,3.94701e-015,-3.77476e-015,1,420.955,827.747)" xml:space="preserve" fill="black" font-family="Arial" font-size="18" font-weight="400" x="35.768" y="0">×</text>
		<text id="dp_text013" transform="matrix(1,3.94701e-015,-3.77476e-015,1,420.955,827.747)" xml:space="preserve" fill="#bd0202" font-family="Arial" font-size="18" font-weight="700" x="46.0467" y="0">r</text>
		<text id="dp_text014" transform="matrix(1,3.94701e-015,-3.77476e-015,1,420.955,827.747)" xml:space="preserve" fill="black" font-family="Arial" font-size="18" font-weight="400" x="52.8987" y="0">)</text>
		<text id="dp_text015" transform="matrix(1,3.94701e-015,-3.77476e-015,1,420.955,827.747)" xml:space="preserve" fill="#e87a04" font-family="Arial" font-size="18" font-weight="700" x="58.7667" y="0"> </text>
		<g id="dp_group060">
			<g id="dp_group061">
				<path id="dp_path062" fill="black" fill-rule="evenodd" d="M 560.025,852.036 L 559.039,851.873 L 557.229,850.56 L 558.961,855.408 L 562.163,851.376 Z "/>
				<path id="dp_path063" fill="black" d="M 555.972,848.408 L 561.832,835.008 L 559.039,851.873 L 560.025,852.036 L 563.473,831.217 L 562.521,830.936 L 555.055,848.008 Z "/>
			</g>
		</g>
		<g id="dp_group064">
			<g id="dp_group065">
				<path id="dp_path066" fill="#2a04e8" fill-rule="evenodd" d="M 560.172,808.756 L 562.149,809.055 L 566.105,809.651 L 562.651,799.017 L 556.216,808.16 Z "/>
				<path id="dp_path067" fill="#2a04e8" d="M 560.172,808.756 L 550.029,876.064 L 552.008,876.363 L 562.151,809.055 Z "/>
			</g>
		</g>
		<g id="dp_group068">
			<g id="dp_group069">
				<path id="dp_path070" fill="black" fill-rule="evenodd" d="M 588.167,783.252 L 589.401,783.755 L 591.871,784.761 L 591.299,777.329 L 585.696,782.247 Z "/>
				<path id="dp_path071" fill="black" d="M 551.637,876.463 L 589.401,783.756 L 588.167,783.252 L 550.403,875.959 Z "/>
			</g>
		</g>
		<g id="dp_group072">
			<text id="dp_text016" transform="matrix(1,4.52988e-015,-4.66294e-015,1,511.989,702.099)" xml:space="preserve" fill="black" font-family="Arial" font-size="18" font-weight="400" x="0" y="0">= </text>
			<text id="dp_text017" transform="matrix(1,4.52988e-015,-4.66294e-015,1,511.989,702.099)" xml:space="preserve" fill="#2a04e8" font-family="Arial" font-size="18" font-weight="700" x="15.1587" y="0">a</text>
			<text id="dp_text018" transform="matrix(1,4.52988e-015,-4.66294e-015,1,511.989,702.099)" xml:space="preserve" fill="black" font-family="Arial" font-size="18" font-weight="400" x="24.9693" y="0">(</text>
			<text id="dp_text019" transform="matrix(1,4.52988e-015,-4.66294e-015,1,511.989,702.099)" xml:space="preserve" fill="#2a04e8" font-family="Arial" font-size="18" font-weight="700" x="30.8373" y="0">a</text>
			<text id="dp_text020" transform="matrix(1,4.52988e-015,-4.66294e-015,1,511.989,702.099)" xml:space="preserve" fill="black" font-family="Times New Roman" font-size="18" font-weight="400" x="40.648" y="0">∙</text>
			<text id="dp_text021" transform="matrix(1,4.52988e-015,-4.66294e-015,1,511.989,702.099)" xml:space="preserve" fill="#bd0202" font-family="Arial" font-size="18" font-weight="700" x="45.0587" y="0">r</text>
			<text id="dp_text022" transform="matrix(1,4.52988e-015,-4.66294e-015,1,511.989,702.099)" xml:space="preserve" fill="black" font-family="Arial" font-size="18" font-weight="400" x="51.9107" y="0">)</text>
			<text id="dp_text023" transform="matrix(1,4.52988e-015,-4.66294e-015,1,511.989,702.099)" xml:space="preserve" fill="#e87a04" font-family="Arial" font-size="18" font-weight="700" x="57.7787" y="0"> </text>
			<g id="dp_group081">
				<path id="dp_path082" fill="none" fill-rule="evenodd" stroke="black" stroke-width="0.666667" d="M 504.571,699.352 L 504.571,706.412"/>
				<path id="dp_path083" fill="none" fill-rule="evenodd" stroke="black" stroke-width="0.666667" d="M 506.824,699.353 L 506.824,706.413"/>
				<text id="dp_text024" transform="matrix(1,8.74302e-016,-8.88178e-016,1,496.655,702.141)" xml:space="preserve" fill="black" font-family="Arial" font-size="18" font-weight="700" x="0" y="0">r </text>
			</g>
		</g>
		<g id="dp_group085">
			<text id="dp_text025" transform="matrix(1,3.72497e-015,-3.77476e-015,1,451.528,726.083)" xml:space="preserve" fill="black" font-family="Arial" font-size="18" font-weight="400" x="0" y="0">= </text>
			<text id="dp_text026" transform="matrix(1,3.72497e-015,-3.77476e-015,1,451.528,726.083)" xml:space="preserve" fill="black" font-family="Arial" font-size="18" font-weight="400" x="15.1587" y="0">−</text>
			<text id="dp_text027" transform="matrix(1,3.72497e-015,-3.77476e-015,1,451.528,726.083)" xml:space="preserve" fill="black" font-family="Arial" font-size="18" font-weight="400" x="25.436" y="0"> </text>
			<text id="dp_text028" transform="matrix(1,3.72497e-015,-3.77476e-015,1,451.528,726.083)" xml:space="preserve" fill="#2a04e8" font-family="Arial" font-size="18" font-weight="700" x="30.3173" y="0">a</text>
			<text id="dp_text029" transform="matrix(1,3.72497e-015,-3.77476e-015,1,451.528,726.083)" xml:space="preserve" fill="black" font-family="Arial" font-size="18" font-weight="400" x="40.128" y="0">×(</text>
			<text id="dp_text030" transform="matrix(1,3.72497e-015,-3.77476e-015,1,451.528,726.083)" xml:space="preserve" fill="#2a04e8" font-family="Arial" font-size="18" font-weight="700" x="56.2747" y="0">a</text>
			<text id="dp_text031" transform="matrix(1,3.72497e-015,-3.77476e-015,1,451.528,726.083)" xml:space="preserve" fill="black" font-family="Arial" font-size="18" font-weight="400" x="66.0853" y="0">×</text>
			<text id="dp_text032" transform="matrix(1,3.72497e-015,-3.77476e-015,1,451.528,726.083)" xml:space="preserve" fill="#bd0202" font-family="Arial" font-size="18" font-weight="700" x="76.364" y="0">r</text>
			<text id="dp_text033" transform="matrix(1,3.72497e-015,-3.77476e-015,1,451.528,726.083)" xml:space="preserve" fill="black" font-family="Arial" font-size="18" font-weight="400" x="83.216" y="0">) </text>
			<text id="dp_text034" transform="matrix(1,3.72497e-015,-3.77476e-015,1,451.528,726.083)" xml:space="preserve" fill="black" font-family="Arial" font-size="18" font-weight="400" x="93.9653" y="0">= </text>
			<text id="dp_text035" transform="matrix(1,3.72497e-015,-3.77476e-015,1,451.528,726.083)" xml:space="preserve" fill="#bd0202" font-family="Arial" font-size="18" font-weight="700" x="109.124" y="0">r </text>
			<text id="dp_text036" transform="matrix(1,3.72497e-015,-3.77476e-015,1,451.528,726.083)" xml:space="preserve" fill="black" font-family="Arial" font-size="18" font-weight="400" x="120.857" y="0">−</text>
			<text id="dp_text037" transform="matrix(1,3.72497e-015,-3.77476e-015,1,451.528,726.083)" xml:space="preserve" fill="black" font-family="Arial" font-size="18" font-weight="400" x="131.135" y="0"> </text>
			<text id="dp_text038" transform="matrix(1,3.72497e-015,-3.77476e-015,1,451.528,726.083)" xml:space="preserve" fill="#2a04e8" font-family="Arial" font-size="18" font-weight="700" x="136.016" y="0">a</text>
			<text id="dp_text039" transform="matrix(1,3.72497e-015,-3.77476e-015,1,451.528,726.083)" xml:space="preserve" fill="black" font-family="Arial" font-size="18" font-weight="400" x="145.827" y="0">(</text>
			<text id="dp_text040" transform="matrix(1,3.72497e-015,-3.77476e-015,1,451.528,726.083)" xml:space="preserve" fill="#2a04e8" font-family="Arial" font-size="18" font-weight="700" x="151.695" y="0">a</text>
			<text id="dp_text041" transform="matrix(1,3.72497e-015,-3.77476e-015,1,451.528,726.083)" xml:space="preserve" fill="black" font-family="Times New Roman" font-size="18" font-weight="400" x="161.505" y="0">∙</text>
			<text id="dp_text042" transform="matrix(1,3.72497e-015,-3.77476e-015,1,451.528,726.083)" xml:space="preserve" fill="#bd0202" font-family="Arial" font-size="18" font-weight="700" x="165.916" y="0">r</text>
			<text id="dp_text043" transform="matrix(1,3.72497e-015,-3.77476e-015,1,451.528,726.083)" xml:space="preserve" fill="black" font-family="Arial" font-size="18" font-weight="400" x="172.768" y="0">)</text>
			<text id="dp_text044" transform="matrix(1,3.72497e-015,-3.77476e-015,1,451.528,726.083)" xml:space="preserve" fill="#e87a04" font-family="Arial" font-size="18" font-weight="700" x="178.636" y="0"> </text>
			<g id="dp_group106">
				<text id="dp_text045" transform="matrix(1,8.74302e-016,-8.88178e-016,1,436.258,725.967)" xml:space="preserve" fill="black" font-family="Arial" font-size="18" font-weight="700" x="0" y="0">r </text>
				<path id="dp_path108" fill="none" fill-rule="evenodd" stroke="black" stroke-width="0.666667" d="M 446.428,723.495 L 446.428,730.555"/>
				<path id="dp_path109" fill="none" fill-rule="evenodd" stroke="black" stroke-width="0.666667" d="M 442.279,730.236 L 450.577,730.236"/>
			</g>
		</g>
		<g id="dp_group110">
			<g id="dp_group111">
				<path id="dp_path112" fill="none" fill-rule="evenodd" stroke="black" stroke-width="0.666667" d="M 534.119,674.708 L 534.119,681.768"/>
				<path id="dp_path113" fill="none" fill-rule="evenodd" stroke="black" stroke-width="0.666667" d="M 536.372,674.709 L 536.372,681.769"/>
				<text id="dp_text046" transform="matrix(1,8.74302e-016,-8.88178e-016,1,526.203,677.497)" xml:space="preserve" fill="black" font-family="Arial" font-size="18" font-weight="700" x="0" y="0">r </text>
			</g>
			<g id="dp_group115">
				<text id="dp_text047" transform="matrix(1,8.74302e-016,-8.88178e-016,1,552.814,677.501)" xml:space="preserve" fill="black" font-family="Arial" font-size="18" font-weight="700" x="0" y="0">r </text>
				<path id="dp_path117" fill="none" fill-rule="evenodd" stroke="black" stroke-width="0.666667" d="M 562.984,675.029 L 562.984,682.089"/>
				<path id="dp_path118" fill="none" fill-rule="evenodd" stroke="black" stroke-width="0.666667" d="M 558.835,681.771 L 567.133,681.771"/>
			</g>
			<text id="dp_text048" transform="matrix(1,4.52988e-015,-4.66294e-015,1,499.289,677.664)" xml:space="preserve" fill="black" font-family="Arial" font-size="18" font-weight="700" x="0" y="0">r</text>
			<text id="dp_text049" transform="matrix(1,4.52988e-015,-4.66294e-015,1,499.289,677.664)" xml:space="preserve" fill="black" font-family="Arial" font-size="18" font-weight="400" x="6.852" y="0"> =</text>
			<text id="dp_text050" transform="matrix(1,4.52988e-015,-4.66294e-015,1,499.289,677.664)" xml:space="preserve" fill="#e87a04" font-family="Arial" font-size="18" font-weight="700" x="22.0107" y="0"> </text>
			<text id="dp_text051" transform="matrix(1,0,0,1,539.109,677.665)" xml:space="preserve" fill="black" font-family="Arial" font-size="18" font-weight="400" x="0" y="0">+</text>
			<text id="dp_text052" transform="matrix(1,0,0,1,539.109,677.665)" xml:space="preserve" fill="black" font-family="Times New Roman" font-size="16" font-weight="400" x="10.2787" y="0"> </text>
		</g>
	</g>
</svg>