<?xml version="1.0" encoding="UTF-8" standalone="no"?>
<!-- Created with Inkscape (http://www.inkscape.org/) -->

<svg
   xmlns:dc="http://purl.org/dc/elements/1.1/"
   xmlns:cc="http://creativecommons.org/ns#"
   xmlns:rdf="http://www.w3.org/1999/02/22-rdf-syntax-ns#"
   xmlns:svg="http://www.w3.org/2000/svg"
   xmlns="http://www.w3.org/2000/svg"
   xmlns:sodipodi="http://sodipodi.sourceforge.net/DTD/sodipodi-0.dtd"
   xmlns:inkscape="http://www.inkscape.org/namespaces/inkscape"
   width="480"
   height="410"
   id="svg3821"
   sodipodi:version="0.32"
   inkscape:version="0.91 r13725"
   sodipodi:docname="parabola_axis001.svg"
   inkscape:output_extension="org.inkscape.output.svg.inkscape"
   version="1.0">
  <sodipodi:namedview
     id="base"
     pagecolor="#ffffff"
     bordercolor="#666666"
     borderopacity="1.0"
     inkscape:pageopacity="0.0"
     inkscape:pageshadow="2"
     inkscape:zoom="0.79424972"
     inkscape:cx="171.26475"
     inkscape:cy="121.84642"
     inkscape:document-units="px"
     inkscape:current-layer="g7641"
     showgrid="false"
     inkscape:window-width="1373"
     inkscape:window-height="970"
     inkscape:window-x="513"
     inkscape:window-y="0"
     inkscape:window-maximized="0" />
  <defs
     id="defs3823">
    <marker
       inkscape:stockid="Arrow1Mend"
       orient="auto"
       refY="0.0"
       refX="0.0"
       id="Arrow1Mend"
       style="overflow:visible;">
      <path
         id="path4285"
         d="M 0.0,0.0 L 5.0,-5.0 L -12.5,0.0 L 5.0,5.0 L 0.0,0.0 z "
         style="fill-rule:evenodd;stroke:#000000;stroke-width:1.0pt;marker-start:none;"
         transform="scale(0.4) rotate(180) translate(10,0)" />
    </marker>
    <inkscape:perspective
       sodipodi:type="inkscape:persp3d"
       inkscape:vp_x="0 : 526.18109 : 1"
       inkscape:vp_y="0 : 1000 : 0"
       inkscape:vp_z="744.09448 : 526.18109 : 1"
       inkscape:persp3d-origin="372.04724 : 350.78739 : 1"
       id="perspective3829" />
  </defs>
  <metadata
     id="metadata3826">
    <rdf:RDF>
      <cc:Work
         rdf:about="">
        <dc:format>image/svg+xml</dc:format>
        <dc:type
           rdf:resource="http://purl.org/dc/dcmitype/StillImage" />
        <dc:title></dc:title>
      </cc:Work>
    </rdf:RDF>
  </metadata>
  <g
     inkscape:label="Capa 1"
     inkscape:groupmode="layer"
     id="layer1"
     transform="translate(-106.53085,-425.48703)" />
  <g
     id="g7641">
    <path
       id="path4187"
       d="M 44.582954,400.87677 L 44.582954,11.82323"
       style="opacity:1;fill:none;fill-opacity:1;fill-rule:evenodd;stroke:#000000;stroke-width:1.79999995;stroke-linecap:butt;stroke-linejoin:miter;marker:none;marker-start:none;marker-mid:none;marker-end:url(#Arrow1Mend);stroke-miterlimit:4;stroke-dasharray:none;stroke-dashoffset:0;stroke-opacity:1;visibility:visible;display:inline;overflow:visible;enable-background:accumulate" />
    <path
       id="path4189"
       d="M 9.61953,359.46405 L 470.38047,359.46405"
       style="fill:none;fill-opacity:1;fill-rule:evenodd;stroke:#000000;stroke-width:1.79999994999999990;stroke-linecap:butt;stroke-linejoin:miter;marker:none;marker-start:none;marker-mid:none;marker-end:url(#Arrow1Mend);stroke-miterlimit:4;stroke-dasharray:none;stroke-dashoffset:0;stroke-opacity:1;visibility:visible;display:inline;overflow:visible;enable-background:accumulate" />
    <text
       sodipodi:linespacing="125%"
       id="text4241"
       y="48.545223"
       x="167.37315"
       style="font-size:32px;font-style:italic;font-variant:normal;font-weight:normal;font-stretch:normal;text-align:start;line-height:125%;writing-mode:lr;text-anchor:start;fill:#000000;fill-opacity:1;stroke:none;stroke-width:1px;stroke-linecap:butt;stroke-linejoin:miter;stroke-opacity:1;font-family:Georgia;-inkscape-font-specification:Georgia Italic"
       xml:space="preserve"><tspan
         y="48.545223"
         x="167.37315"
         id="tspan4243"
         sodipodi:role="line" /></text>
    <text
       sodipodi:linespacing="125%"
       id="text7624"
       y="387.74292"
       x="445.14136"
       style="font-size:32px;font-style:italic;font-variant:normal;font-weight:normal;font-stretch:normal;text-align:start;line-height:125%;writing-mode:lr-tb;text-anchor:start;fill:#000000;fill-opacity:1;stroke:none;stroke-width:1px;stroke-linecap:butt;stroke-linejoin:miter;stroke-opacity:1;font-family:Georgia;-inkscape-font-specification:Georgia Italic"
       xml:space="preserve"><tspan
         y="387.74292"
         x="445.14136"
         id="tspan7626"
         sodipodi:role="line">x</tspan></text>
    <text
       sodipodi:linespacing="125%"
       id="text7628"
       y="32.520138"
       x="16.915371"
       style="font-size:32px;font-style:italic;font-variant:normal;font-weight:normal;font-stretch:normal;text-align:start;line-height:125%;writing-mode:lr-tb;text-anchor:start;fill:#000000;fill-opacity:1;stroke:none;stroke-width:1px;stroke-linecap:butt;stroke-linejoin:miter;stroke-opacity:1;font-family:Georgia;-inkscape-font-specification:Georgia Italic"
       xml:space="preserve"><tspan
         y="32.520138"
         x="16.915371"
         id="tspan7630"
         sodipodi:role="line">y</tspan></text>
    <g
       id="g8150"
       transform="matrix(1.0918342,0,0,1.0919477,-34.458774,23.215899)">
      <path
         style="display:inline;overflow:visible;visibility:visible;fill:#cd87de;fill-opacity:1;fill-rule:evenodd;stroke:#999999;stroke-width:1.64851618;stroke-linecap:butt;stroke-linejoin:miter;stroke-miterlimit:0;stroke-dasharray:6.59406488, 3.29703243, 1.64851622, 3.29703243;stroke-dashoffset:0;stroke-opacity:1;marker:none;marker-start:none;marker-mid:none;marker-end:none;enable-background:accumulate"
         d="m 369.66291,165.5338 c -197.91528,0 -197.91528,0 -197.91528,0"
         id="path4690"
         inkscape:connector-curvature="0" />
      <path
         style="display:inline;overflow:visible;visibility:visible;fill:#cd87de;fill-opacity:1;fill-rule:evenodd;stroke:#999999;stroke-width:1.64851618;stroke-linecap:butt;stroke-linejoin:miter;stroke-miterlimit:0;stroke-dasharray:6.59406488, 3.29703243, 1.64851622, 3.29703243;stroke-dashoffset:0;stroke-opacity:1;marker:none;marker-start:none;marker-mid:none;marker-end:none;enable-background:accumulate"
         d="m 270.40116,273.61795 0,-209.216833"
         id="path4718"
         inkscape:connector-curvature="0" />
      <path
         style="display:inline;overflow:visible;visibility:visible;fill:#165016;fill-opacity:1;fill-rule:evenodd;stroke:#2ca02c;stroke-width:1.83168471;stroke-linecap:butt;stroke-linejoin:miter;stroke-miterlimit:0;stroke-dasharray:none;stroke-dashoffset:0;stroke-opacity:1;marker:none;marker-start:none;marker-mid:none;marker-end:none;enable-background:accumulate"
         d="m 144.31996,264.92696 252.16239,0"
         id="path4722"
         inkscape:connector-curvature="0" />
      <path
         style="display:inline;overflow:visible;visibility:visible;fill:none;fill-opacity:1;fill-rule:evenodd;stroke:#3771c8;stroke-width:2.28960586;stroke-linecap:butt;stroke-linejoin:miter;stroke-miterlimit:0;stroke-dasharray:none;stroke-dashoffset:0;stroke-opacity:1;marker:none;marker-start:none;marker-mid:none;marker-end:none;enable-background:accumulate"
         d="m 79.039202,30.289585 c 0.54491,1.05287 1.08983,2.10123 1.63475,3.14512 1.1821,2.26452 2.3642,4.5078 3.5463,6.72999 1.1821,2.22217 2.36421,4.42314 3.54631,6.603 1.1821,2.17986 2.3642,4.3385 3.5463,6.47603 1.18211,2.13754 2.3642,4.25384 3.5463,6.34905 1.18209,2.0952 2.3642,4.16918 3.54631,6.22206 1.18209,2.05287 2.364198,4.08453 3.546298,6.09509 1.1821,2.01056 2.3642,3.99988 3.5463,5.9681 1.1821,1.96824 2.3642,3.91522 3.5463,5.84112 1.1821,1.9259 2.36421,3.83057 3.54631,5.71414 1.18209,1.88358 2.3642,3.74592 3.5463,5.58716 1.1821,1.84125 2.3642,3.66127 3.5463,5.460185 1.1821,1.79892 2.3642,3.5766 3.54631,5.3332 1.1821,1.7566 2.3642,3.49195 3.5463,5.20622 1.18211,1.71426 2.3642,3.4073 3.5463,5.07924 1.1821,1.67194 2.3642,3.32264 3.5463,4.95225 1.18211,1.6296 2.36421,3.238 3.54631,4.82528 1.1821,1.5873 2.3642,3.15334 3.5463,4.69829 1.18211,1.54496 2.3642,3.06869 3.5463,4.57132 1.1821,1.5026 2.36421,2.98403 3.54631,4.44433 1.1821,1.46033 2.3642,2.89938 3.5463,4.31735 1.1821,1.41797 2.3642,2.81472 3.5463,4.19037 1.18211,1.37565 2.3642,2.73007 3.54631,4.06339 1.1821,1.33329 2.3642,2.64541 3.5463,3.93641 1.18209,1.29097 2.3642,2.56076 3.5463,3.80943 1.1821,1.24868 2.3642,2.4761 3.5463,3.68244 1.18211,1.20637 2.36421,2.39146 3.54631,3.55547 1.1821,1.16403 2.3642,2.3068 3.5463,3.42848 1.18209,1.12172 2.3642,2.22215 3.5463,3.30151 1.1821,1.07939 2.36421,2.13749 3.54631,3.17452 1.18211,1.03702 2.3642,2.05284 3.5463,3.04754 1.18209,0.99469 2.3642,1.96819 3.5463,2.92056 1.18209,0.95239 2.3642,1.88353 3.54631,2.79358 1.18211,0.91007 2.3642,1.79888 3.5463,2.6666 1.18211,0.86771 2.3642,1.71423 3.5463,2.53962 1.18209,0.82539 2.3642,1.62957 3.5463,2.41264 1.1821,0.78304 2.36421,1.54491 3.54631,2.28566 1.18211,0.74073 2.3642,1.46026 3.5463,2.15867 1.18211,0.69845 2.3642,1.37561 3.5463,2.0317 1.18212,0.65608 2.36421,1.29095 3.54631,1.90471 1.1821,0.61373 2.3642,1.2063 3.5463,1.77773 1.1821,0.57143 2.3642,1.12165 3.5463,1.65076 1.18211,0.5291 2.3642,1.03699 3.5463,1.52377 1.18212,0.48681 2.36421,0.95233 3.54631,1.39679 1.1821,0.44448 2.3642,0.86768 3.5463,1.26981 1.1821,0.40212 2.3642,0.78302 3.5463,1.14282 1.18211,0.3598 2.36421,0.69838 3.54631,1.01585 1.18209,0.31746 2.3642,0.61372 3.5463,0.88887 1.1821,0.27513 2.3642,0.52906 3.5463,0.76188 1.1821,0.23279 2.3642,0.44442 3.54631,0.63491 1.18209,0.19048 2.3642,0.35976 3.5463,0.50792 1.18209,0.14815 2.3642,0.27511 3.5463,0.38094 1.1821,0.10584 2.3642,0.19045 3.5463,0.25397 1.18211,0.0635 2.36421,0.10579 3.54631,0.12698 1.18209,0.0212 2.3642,0.0211 3.5463,0 1.18209,-0.0211 2.3642,-0.0635 3.5463,-0.12698 1.18209,-0.0635 2.36421,-0.14817 3.54631,-0.25397 1.18211,-0.10579 2.3642,-0.23281 3.5463,-0.38094 1.18211,-0.14814 2.3642,-0.31747 3.5463,-0.50792 1.18209,-0.19046 2.3642,-0.40213 3.54631,-0.63491 1.1821,-0.2328 2.3642,-0.48678 3.5463,-0.76188 1.18211,-0.27512 2.3642,-0.57144 3.5463,-0.88887 1.18211,-0.31745 2.3642,-0.65609 3.5463,-1.01585 1.1821,-0.35975 2.36421,-0.74074 3.54631,-1.14282 1.1821,-0.40209 2.3642,-0.8254 3.5463,-1.26981 1.18211,-0.44439 2.3642,-0.91005 3.5463,-1.39679 1.18211,-0.48671 2.36421,-0.99471 3.54631,-1.52377 1.1821,-0.52907 2.3642,-1.07936 3.5463,-1.65076 1.1821,-0.5714 2.3642,-1.16401 3.5463,-1.77773 1.18211,-0.61375 2.3642,-1.24867 3.5463,-1.90471 1.18212,-0.65606 2.36421,-1.33332 3.54631,-2.0317 1.1821,-0.69834 2.3642,-1.41797 3.5463,-2.15867 1.1821,-0.74071 2.3642,-1.50263 3.5463,-2.28566 1.1821,-0.78306 2.36421,-1.58728 3.54631,-2.41264 1.18209,-0.82536 2.3642,-1.67193 3.5463,-2.53962 1.18209,-0.8677 2.3642,-1.75659 3.5463,-2.6666 1.1821,-0.90999 2.3642,-1.84124 3.54631,-2.79358 1.18211,-0.95232 2.3642,-1.92589 3.5463,-2.92056 1.18209,-0.99468 2.3642,-2.01055 3.5463,-3.04754 1.18209,-1.037 2.3642,-2.09521 3.5463,-3.17452 1.18211,-1.07929 2.36421,-2.17986 3.54631,-3.30151 1.18211,-1.12161 2.3642,-2.26451 3.5463,-3.42848 1.18209,-1.16395 2.3642,-2.34917 3.5463,-3.55547 1.18209,-1.20626 2.36421,-2.43382 3.54631,-3.68244 1.18211,-1.24861 2.3642,-2.51848 3.5463,-3.80943 1.18211,-1.29097 2.3642,-2.60313 3.5463,-3.93641 1.18209,-1.33331 2.3642,-2.68778 3.54631,-4.06339 1.1821,-1.37561 2.3642,-2.77244 3.5463,-4.19037 1.18211,-1.41793 2.3642,-2.85709 3.5463,-4.31735 1.18211,-1.46023 2.3642,-2.94175 3.5463,-4.44433 1.18212,-1.50262 2.36421,-3.0264 3.54631,-4.57132 1.1821,-1.54491 2.3642,-3.11105 3.5463,-4.69829 1.1821,-1.58722 2.3642,-3.19571 3.5463,-4.82528 1.18211,-1.62957 2.36421,-3.28036 3.54631,-4.95225 1.18209,-1.67189 2.3642,-3.36502 3.5463,-5.07924 1.1821,-1.71423 2.3642,-3.44967 3.5463,-5.20622 1.1821,-1.75653 2.3642,-3.53432 3.54631,-5.3332 1.18209,-1.798865 2.3642,-3.618975 3.5463,-5.460185 1.18209,-1.8412 2.3642,-3.70363 3.5463,-5.58716 1.1821,-1.88352 2.3642,-3.78828 3.5463,-5.71414 1.1821,-1.92585 2.36421,-3.87294 3.54631,-5.84112 1.18209,-1.96817 2.3642,-3.95759 3.5463,-5.9681 1.18212,-2.0105 2.3642,-4.04225 3.5463,-6.09509 1.1821,-2.05284 2.3642,-4.1269 3.54631,-6.22206 1.18208,-2.09517 2.3642,-4.21156 3.5463,-6.34905 1.18212,-2.13748 2.3642,-4.29621 3.5463,-6.47603 1.18209,-2.17981 2.3642,-4.38086 3.5463,-6.603 1.18214,-2.22216 2.36421,-4.46552 3.54631,-6.72999 0.54492,-1.04386 1.08984,-2.09223 1.63476,-3.14511"
         id="path3196"
         inkscape:connector-curvature="0" />
      <path
         inkscape:connector-curvature="0"
         style="font-style:italic;font-variant:normal;font-weight:normal;font-stretch:normal;font-size:18px;line-height:125%;font-family:Georgia;-inkscape-font-specification:'Georgia Italic';text-align:start;writing-mode:lr-tb;text-anchor:start;fill:#005500;fill-opacity:1;stroke:none;stroke-width:1px;stroke-linecap:butt;stroke-linejoin:miter;stroke-opacity:1"
         d="m 320.44944,291.50633 -0.0962,0 c -0.98334,0.823 -1.91855,1.46966 -2.80567,1.93994 -0.88715,0.47028 -1.8972,0.70543 -3.03015,0.70543 -1.02608,0 -1.83839,-0.29394 -2.43693,-0.88179 -0.59855,-0.59856 -0.89782,-1.3788 -0.89782,-2.34076 0,-0.25651 0.0214,-0.56112 0.0641,-0.91384 0.0428,-0.35271 0.14429,-0.87644 0.30463,-1.57118 l 1.25052,-5.00214 c 0.11757,-0.48096 0.20843,-0.89781 0.27256,-1.25052 0.0641,-0.36341 0.0962,-0.71078 0.0962,-1.04212 0,-0.59854 -0.10153,-0.99401 -0.30461,-1.1864 -0.1924,-0.20306 -0.59321,-0.30461 -1.20244,-0.30463 -0.23515,2e-5 -0.53442,0.0428 -0.89782,0.12827 -0.36341,0.0855 -0.64664,0.15498 -0.84973,0.20841 l 0.2405,-1.02608 c 0.83369,-0.37408 1.56582,-0.65731 2.19645,-0.84972 0.64129,-0.19238 1.15433,-0.28856 1.53912,-0.28858 0.85506,2e-5 1.48567,0.19241 1.89183,0.57718 0.41683,0.38478 0.62526,0.96196 0.62526,1.73151 0,0.19239 -0.0214,0.45426 -0.0641,0.78558 -0.0428,0.33136 -0.10689,0.66269 -0.19239,0.99401 l -1.45897,5.85186 c -0.10687,0.44892 -0.19773,0.8711 -0.27254,1.26658 -0.0748,0.38478 -0.11224,0.67871 -0.11224,0.88177 0,0.71612 0.17101,1.28261 0.51304,1.69944 0.35272,0.41685 0.86576,0.62528 1.53912,0.62528 0.78024,0 1.53912,-0.19239 2.27662,-0.57718 0.74817,-0.38476 1.44826,-0.91384 2.10026,-1.58722 l 2.66138,-11.99228 2.77363,-0.19239 0.19239,0.24047 -2.75759,12.55345 c -0.40616,1.83838 -0.92455,3.40957 -1.55515,4.71354 -0.63063,1.30399 -1.36811,2.35677 -2.21249,3.15841 -0.88713,0.84438 -1.84375,1.4536 -2.86981,1.8277 -1.02608,0.37409 -2.19646,0.56112 -3.51112,0.56114 -0.9085,-2e-5 -1.62996,-0.0641 -2.16438,-0.19239 -0.53442,-0.12828 -0.9566,-0.30463 -1.26656,-0.52908 -0.30997,-0.21377 -0.51838,-0.45426 -0.62527,-0.72146 -0.10688,-0.2672 -0.16033,-0.53442 -0.16033,-0.80162 0,-0.45961 0.13895,-0.86576 0.41685,-1.21847 0.27789,-0.35272 0.67871,-0.52908 1.20244,-0.52908 0.39546,0 0.73214,0.11222 1.01005,0.33669 0.27789,0.22446 0.50235,0.47028 0.67336,0.7375 0.19237,0.28857 0.36873,0.61457 0.52907,0.97797 0.16033,0.36341 0.28858,0.65199 0.38477,0.86576 l 0.38478,0 c 0.60923,0 1.25054,-0.14964 1.92391,-0.44891 0.68405,-0.29928 1.30931,-0.76422 1.8758,-1.39482 0.60922,-0.68406 1.15433,-1.56585 1.6353,-2.64537 0.49166,-1.07951 0.88179,-2.37281 1.17039,-3.87986 m 25.95659,-8.62547 -16.17679,0 0,-2.00407 16.17679,0 0,2.00407 m 0,5.96409 -16.17679,0 0,-2.00408 16.17679,0 0,2.00408 m 19.22294,-9.36299 c -2e-5,0.4703 -0.18705,0.90853 -0.56112,1.31468 -0.36343,0.39547 -0.81767,0.59321 -1.36276,0.59319 -0.35274,2e-5 -0.70011,-0.0481 -1.04212,-0.14429 -0.34204,-0.0962 -0.71614,-0.24048 -1.12228,-0.43287 -0.58787,0.33134 -1.19709,0.74285 -1.8277,1.23449 -0.61993,0.48099 -1.29864,1.06885 -2.03612,1.76358 0.60922,1.58187 1.12226,2.88052 1.53912,3.89589 0.42752,1.00472 0.79093,1.82771 1.09021,2.46901 0.38477,0.80162 0.80695,1.37345 1.26656,1.71547 0.47028,0.33134 0.98332,0.49701 1.53912,0.49701 0.25651,0 0.60922,-0.0374 1.05814,-0.11222 0.44889,-0.0855 0.79626,-0.17101 1.04212,-0.25653 l -0.2405,1.05815 c -0.99403,0.40616 -1.77427,0.67871 -2.34073,0.81765 -0.56651,0.13895 -1.13832,0.20843 -1.71548,0.20843 -0.68407,0 -1.27192,-0.18705 -1.76358,-0.56115 -0.48097,-0.38478 -0.94593,-1.07416 -1.39483,-2.06819 -0.43821,-0.95125 -0.82834,-1.88647 -1.17037,-2.80567 -0.34202,-0.92989 -0.67871,-1.80632 -1.01004,-2.62934 l -1.8758,1.60326 -1.3788,6.18854 -2.98203,0 4.76165,-20.63382 c 0.0748,-0.33132 0.12291,-0.56111 0.14428,-0.6894 0.0321,-0.12824 0.0481,-0.28856 0.0481,-0.48097 -2e-5,-0.38477 -0.0641,-0.67869 -0.19239,-0.88179 -0.12828,-0.21373 -0.30998,-0.37406 -0.54511,-0.48097 -0.22446,-0.0962 -0.5077,-0.16031 -0.84972,-0.19239 -0.34203,-0.032 -0.6894,-0.0694 -1.04212,-0.11222 l 0.22446,-0.978 5.94805,-0.36873 0.16033,0.24048 -3.91193,16.68983 0.0641,0 c 1.20776,-1.30397 2.30332,-2.4316 3.28664,-3.38287 0.99401,-0.96193 2.03078,-1.93992 3.11031,-2.93393 0.76955,-0.70542 1.37878,-1.18641 1.8277,-1.44293 0.4489,-0.2672 0.92987,-0.4008 1.44293,-0.40082 0.54509,2e-5 0.9833,0.15499 1.31466,0.46495 0.33132,0.29929 0.49698,0.71078 0.497,1.23449 m 11.5434,4.40895 -0.57717,2.43692 -9.55536,0 0.57717,-2.43692 9.55536,0 m 18.77404,-0.11224 c -2e-5,1.43224 -0.25118,2.78966 -0.75352,4.07225 -0.50236,1.2826 -1.1704,2.3942 -2.00407,3.33476 -0.92989,1.03677 -1.93994,1.80632 -3.03013,2.30867 -1.07953,0.50237 -2.19113,0.75354 -3.33477,0.75354 -0.9192,0 -1.67272,-0.11222 -2.26057,-0.33669 -0.58786,-0.22446 -1.11159,-0.50235 -1.57118,-0.83368 l -0.9299,4.2005 c -0.0641,0.26722 -0.11756,0.51839 -0.16032,0.75354 -0.0321,0.23513 -0.0481,0.42217 -0.0481,0.56114 -10e-6,0.28858 0.10154,0.51836 0.30462,0.6894 0.21375,0.17099 0.45425,0.29392 0.72146,0.36873 0.2672,0.0855 0.56647,0.14963 0.89781,0.19239 0.33134,0.0428 0.63061,0.0748 0.89782,0.0962 l -0.22446,1.01005 -8.83389,0 0.22446,-1.01005 c 0.34203,-0.0214 0.66267,-0.0481 0.96194,-0.0802 0.29927,-0.0321 0.58252,-0.0855 0.84972,-0.16032 0.33134,-0.0962 0.59321,-0.27789 0.78559,-0.54511 0.20308,-0.25651 0.34737,-0.57717 0.43288,-0.96194 l 3.35079,-14.74989 c 0.0855,-0.40615 0.16567,-0.81229 0.24049,-1.21847 0.0748,-0.41684 0.11222,-0.77488 0.11222,-1.07417 0,-0.59854 -0.0962,-0.99935 -0.28858,-1.20244 -0.1817,-0.20306 -0.58252,-0.30461 -1.20243,-0.30463 -0.23515,2e-5 -0.53442,0.0481 -0.89783,0.14431 -0.3634,0.0855 -0.64664,0.15498 -0.84972,0.20841 l 0.2405,-1.02608 c 0.8123,-0.36339 1.54446,-0.64128 2.19644,-0.83369 0.65199,-0.20306 1.20779,-0.30459 1.66738,-0.30461 0.74819,2e-5 1.31466,0.19241 1.69944,0.57718 0.38478,0.37409 0.62526,0.89782 0.72147,1.57118 l 0.12825,0 c 0.72681,-0.67336 1.50171,-1.22914 2.32472,-1.66739 0.83367,-0.43819 1.66201,-0.65731 2.48503,-0.65733 1.62462,2e-5 2.88583,0.55582 3.78367,1.66738 0.90849,1.10092 1.36274,2.58659 1.36276,4.45703 m -5.00214,6.62143 c 0.54509,-0.87645 0.96194,-1.87046 1.25054,-2.98205 0.29927,-1.12227 0.4489,-2.30867 0.4489,-3.55921 0,-0.56647 -0.0534,-1.13296 -0.16032,-1.69944 -0.0962,-0.57716 -0.25653,-1.05279 -0.48097,-1.4269 -0.23515,-0.41684 -0.5558,-0.73748 -0.96195,-0.96194 -0.40618,-0.23513 -0.94058,-0.3527 -1.60325,-0.35272 -0.49168,2e-5 -1.03677,0.14965 -1.63531,0.4489 -0.58786,0.29929 -1.30933,0.86043 -2.16439,1.68341 l -2.05216,9.09043 c 0.0748,0.60924 0.40082,1.18105 0.97799,1.71547 0.58785,0.52373 1.29328,0.7856 2.11628,0.7856 0.84438,0 1.6353,-0.24584 2.3728,-0.7375 0.73749,-0.49166 1.36811,-1.15967 1.89184,-2.00405"
         id="text4145" />
      <path
         transform="matrix(0.7022708,0,0,0.7022708,129.95721,79.794346)"
         style="display:inline;overflow:visible;visibility:visible;fill:#ff6600;fill-opacity:1;fill-rule:evenodd;stroke:none;stroke-width:2;stroke-linecap:butt;stroke-linejoin:miter;stroke-miterlimit:0;stroke-dashoffset:0;stroke-opacity:1;marker:none;marker-start:none;marker-mid:none;marker-end:none;enable-background:accumulate"
         d="m 203.63345,192.48497 c 0,1.9867 -1.6124,3.5991 -3.5991,3.5991 -1.98671,0 -3.59911,-1.6124 -3.59911,-3.5991 0,-1.9867 1.6124,-3.5991 3.59911,-3.5991 1.9867,0 3.5991,1.6124 3.5991,3.5991 z"
         id="path4149"
         inkscape:connector-curvature="0" />
      <g
         transform="matrix(1.5564325,0,0,1.5564325,-152.8044,-121.60711)"
         id="g8142">
        <path
           inkscape:connector-curvature="0"
           id="text4155"
           d="m 287.63071,231.52893 -0.13184,0.5625 c -0.52735,0.21094 -0.93751,0.36328 -1.23047,0.45703 -0.29297,0.0996 -0.58887,0.14942 -0.88769,0.14942 -0.46876,0 -0.82032,-0.12012 -1.05469,-0.36036 -0.23438,-0.24609 -0.35157,-0.54785 -0.35156,-0.90527 -1e-5,-0.1289 0.0117,-0.26953 0.0351,-0.42187 0.0234,-0.15821 0.0615,-0.34278 0.11426,-0.55371 l 0.86133,-3.27833 c 0.0644,-0.25194 0.11425,-0.48046 0.14941,-0.68554 0.041,-0.20507 0.0615,-0.36914 0.0615,-0.49219 -10e-6,-0.39257 -0.0938,-0.70312 -0.28125,-0.93164 -0.18751,-0.22851 -0.46583,-0.34277 -0.83496,-0.34277 -0.37501,0 -0.78224,0.12012 -1.22168,0.36035 -0.4336,0.24024 -0.84669,0.57715 -1.23926,1.01074 l -1.48535,6.45117 -1.63477,0 2.61035,-11.31152 c 0.0293,-0.13476 0.0527,-0.24901 0.0703,-0.34277 0.0234,-0.0937 0.0352,-0.19335 0.0352,-0.29883 0,-0.21093 -0.0352,-0.37206 -0.10547,-0.4834 -0.0703,-0.11718 -0.16992,-0.20507 -0.29883,-0.26367 -0.11133,-0.0527 -0.26367,-0.0879 -0.45703,-0.10547 -0.19336,-0.0176 -0.38672,-0.0381 -0.58008,-0.0615 l 0.12305,-0.53613 3.26074,-0.20215 0.0879,0.13184 -1.40625,6.08203 0.0352,0 c 0.60351,-0.48632 1.14257,-0.85253 1.61719,-1.09863 0.4746,-0.25195 1.01366,-0.37792 1.61719,-0.37793 0.56249,1e-5 1.00194,0.16407 1.31836,0.49219 0.31639,0.32227 0.4746,0.74707 0.4746,1.27441 0,0.10548 -0.0176,0.29297 -0.0527,0.5625 -0.0293,0.26954 -0.0791,0.53614 -0.14941,0.7998 l -0.73829,2.82129 c -0.0469,0.18751 -0.0967,0.4043 -0.14941,0.65039 -0.0527,0.24024 -0.0791,0.42774 -0.0791,0.5625 -1e-5,0.33399 0.0732,0.5625 0.21973,0.68555 0.14647,0.11719 0.38671,0.17578 0.7207,0.17578 0.11132,0 0.26952,-0.0176 0.47461,-0.0527 0.21093,-0.041 0.37206,-0.082 0.4834,-0.12305 m 4.13965,0.1582 c -1e-5,0.49805 -0.11427,0.96094 -0.34278,1.38868 -0.22852,0.43359 -0.52149,0.82324 -0.8789,1.16894 -0.33985,0.33398 -0.69141,0.61816 -1.05469,0.85254 -0.36328,0.24023 -0.68555,0.42773 -0.9668,0.5625 l -0.28125,-0.58887 c 0.26953,-0.14648 0.54199,-0.31348 0.81738,-0.50097 0.27539,-0.18165 0.50684,-0.36622 0.69434,-0.55371 0.23437,-0.22852 0.43066,-0.45411 0.58887,-0.67676 0.16406,-0.22266 0.29296,-0.49219 0.38672,-0.8086 l -0.41309,0 c -0.35742,0 -0.62695,-0.0879 -0.80859,-0.26367 -0.17579,-0.18164 -0.26368,-0.41601 -0.26368,-0.70312 0,-0.30469 0.11719,-0.58594 0.35157,-0.84375 0.23437,-0.25781 0.55078,-0.38672 0.94922,-0.38672 0.42773,0 0.73827,0.12598 0.93164,0.37793 0.19335,0.24609 0.29003,0.57129 0.29004,0.97558 m 14.99414,-7.00488 c -10e-6,0.25782 -0.10255,0.49806 -0.30762,0.7207 -0.19923,0.21681 -0.44825,0.32521 -0.74707,0.3252 -0.19337,1e-5 -0.3838,-0.0264 -0.57129,-0.0791 -0.18751,-0.0527 -0.39259,-0.13183 -0.61524,-0.23731 -0.32227,0.18165 -0.65625,0.40724 -1.00195,0.67676 -0.33985,0.26368 -0.71192,0.58594 -1.11621,0.9668 0.33398,0.86719 0.61523,1.5791 0.84375,2.13574 0.23437,0.55078 0.43359,1.00196 0.59766,1.35352 0.21093,0.43945 0.44237,0.75293 0.69433,0.94043 0.25781,0.18164 0.53906,0.27246 0.84375,0.27246 0.14062,0 0.33398,-0.0205 0.58008,-0.0615 0.24609,-0.0469 0.43652,-0.0937 0.57129,-0.14062 l -0.13184,0.58008 c -0.54493,0.22265 -0.97266,0.37207 -1.2832,0.44824 -0.31055,0.0762 -0.62403,0.11426 -0.94043,0.11426 -0.375,0 -0.69727,-0.10254 -0.9668,-0.30762 -0.26367,-0.21094 -0.51856,-0.58887 -0.76464,-1.13379 -0.24024,-0.52148 -0.45411,-1.03418 -0.64161,-1.53809 -0.1875,-0.50976 -0.37207,-0.99023 -0.55371,-1.4414 l -1.02832,0.8789 -0.75586,3.39258 -1.63476,0 2.61035,-11.31152 c 0.041,-0.18163 0.0674,-0.30761 0.0791,-0.37793 0.0176,-0.0703 0.0264,-0.15819 0.0264,-0.26367 0,-0.21093 -0.0352,-0.37206 -0.10547,-0.4834 -0.0703,-0.11718 -0.16992,-0.20507 -0.29883,-0.26367 -0.12305,-0.0527 -0.27832,-0.0879 -0.46582,-0.10547 -0.1875,-0.0176 -0.37793,-0.0381 -0.57129,-0.0615 l 0.12305,-0.53613 3.26074,-0.20215 0.0879,0.13184 -2.14453,9.14941 0.0352,0 c 0.6621,-0.71484 1.26269,-1.333 1.80175,-1.85449 0.54492,-0.52734 1.11328,-1.06347 1.70508,-1.6084 0.42187,-0.38671 0.75586,-0.65038 1.00196,-0.79101 0.24608,-0.14648 0.50975,-0.21972 0.79101,-0.21973 0.29882,1e-5 0.53906,0.085 0.7207,0.25488 0.18164,0.16407 0.27246,0.38966 0.27247,0.67676"
           style="font-style:italic;font-variant:normal;font-weight:normal;font-stretch:normal;font-size:18px;line-height:125%;font-family:Georgia;-inkscape-font-specification:'Georgia Italic';text-align:start;writing-mode:lr-tb;text-anchor:start;fill:#aa4400;fill-opacity:1;stroke:none;stroke-width:1px;stroke-linecap:butt;stroke-linejoin:miter;stroke-opacity:1" />
        <path
           inkscape:connector-curvature="0"
           id="text4159"
           d="m 279.74728,234.89549 c -1.59961,-0.19922 -2.85644,-1.00488 -3.7705,-2.41699 -0.90821,-1.41211 -1.36231,-3.31347 -1.36231,-5.7041 0,-2.43163 0.4541,-4.35644 1.36231,-5.77442 0.91406,-1.42381 2.17089,-2.24119 3.7705,-2.45214 l 0,0.72949 c -1.125,0.20509 -1.98047,0.92286 -2.5664,2.15332 -0.58594,1.23048 -0.87891,3.01758 -0.87891,5.36133 0,2.23242 0.28711,3.96972 0.86133,5.21191 0.57421,1.23633 1.43554,1.95996 2.58398,2.1709 l 0,0.7207 m 32.4668,-8.12109 c 0,2.39063 -0.45704,4.29199 -1.37109,5.7041 -0.90821,1.41211 -2.16211,2.21777 -3.76172,2.41699 l 0,-0.7207 c 1.14843,-0.21094 2.00976,-0.93457 2.58398,-2.1709 0.57422,-1.24219 0.86133,-2.97949 0.86133,-5.21191 0,-2.34375 -0.29297,-4.13085 -0.87891,-5.36133 -0.58594,-1.23046 -1.4414,-1.94823 -2.5664,-2.15332 l 0,-0.72949 c 1.59961,0.21095 2.85351,1.02833 3.76172,2.45214 0.91405,1.41798 1.37109,3.34279 1.37109,5.77442"
           style="font-style:normal;font-variant:normal;font-weight:normal;font-stretch:normal;font-size:18px;line-height:125%;font-family:Georgia;-inkscape-font-specification:Georgia;text-align:start;writing-mode:lr-tb;text-anchor:start;fill:#aa4400;fill-opacity:1;stroke:none;stroke-width:1px;stroke-linecap:butt;stroke-linejoin:miter;stroke-opacity:1" />
      </g>
      <circle
         style="font-style:italic;font-variant:normal;font-weight:normal;font-stretch:normal;font-size:25.63113785px;line-height:125%;font-family:Georgia;-inkscape-font-specification:'Georgia Italic';text-align:start;writing-mode:lr-tb;text-anchor:start;display:inline;overflow:visible;visibility:visible;fill:#ff0000;fill-opacity:1;fill-rule:evenodd;stroke:none;stroke-width:2;stroke-linecap:butt;stroke-linejoin:miter;stroke-miterlimit:0;stroke-dasharray:none;stroke-dashoffset:0;stroke-opacity:1;marker:none;marker-start:none;marker-mid:none;marker-end:none;enable-background:accumulate"
         id="path4163"
         transform="matrix(0.7022708,0,0,0.7022708,129.95721,30.354049)"
         cx="200.03435"
         cy="192.48497"
         r="3.5991027" />
      <g
         transform="matrix(1.5096196,0,0,1.5096196,-139.15289,-84.060727)"
         id="g8146">
        <path
           inkscape:connector-curvature="0"
           id="text4169"
           d="m 288.12628,160.02611 -0.13183,0.5625 c -0.52736,0.21094 -0.93751,0.36328 -1.23047,0.45703 -0.29298,0.0996 -0.58888,0.14941 -0.8877,0.14941 -0.46876,0 -0.82032,-0.12011 -1.05469,-0.36035 -0.23438,-0.24609 -0.35156,-0.54785 -0.35156,-0.90527 0,-0.12891 0.0117,-0.26953 0.0352,-0.42188 0.0234,-0.1582 0.0615,-0.34277 0.11426,-0.55371 l 0.86132,-3.27832 c 0.0644,-0.25195 0.11425,-0.48046 0.14942,-0.68555 0.041,-0.20507 0.0615,-0.36913 0.0615,-0.49218 -1e-5,-0.39257 -0.0938,-0.70312 -0.28125,-0.93164 -0.18751,-0.22851 -0.46583,-0.34277 -0.83496,-0.34278 -0.37501,1e-5 -0.78223,0.12013 -1.22168,0.36035 -0.4336,0.24025 -0.84668,0.57716 -1.23926,1.01075 l -1.48535,6.45117 -1.63476,0 2.61035,-11.31152 c 0.0293,-0.13476 0.0527,-0.24902 0.0703,-0.34278 0.0234,-0.0937 0.0351,-0.19335 0.0352,-0.29883 -1e-5,-0.21092 -0.0352,-0.37205 -0.10547,-0.48339 -0.0703,-0.11718 -0.16993,-0.20507 -0.29883,-0.26368 -0.11133,-0.0527 -0.26368,-0.0879 -0.45703,-0.10547 -0.19336,-0.0176 -0.38672,-0.0381 -0.58008,-0.0615 l 0.12305,-0.53613 3.26074,-0.20215 0.0879,0.13184 -1.40625,6.08203 0.0352,0 c 0.60351,-0.48632 1.14257,-0.85253 1.61718,-1.09864 0.47461,-0.25194 1.01367,-0.37792 1.61719,-0.37793 0.56249,1e-5 1.00195,0.16408 1.31836,0.49219 0.3164,0.32228 0.4746,0.74708 0.47461,1.27442 -10e-6,0.10547 -0.0176,0.29297 -0.0527,0.5625 -0.0293,0.26953 -0.0791,0.53614 -0.14942,0.7998 l -0.73828,2.82129 c -0.0469,0.1875 -0.0967,0.4043 -0.14941,0.65039 -0.0527,0.24024 -0.0791,0.42774 -0.0791,0.5625 0,0.33399 0.0732,0.5625 0.21973,0.68555 0.14648,0.11719 0.38671,0.17578 0.7207,0.17578 0.11132,0 0.26953,-0.0176 0.47461,-0.0527 0.21093,-0.041 0.37206,-0.082 0.4834,-0.12304 m 4.13965,0.1582 c 0,0.49805 -0.11426,0.96094 -0.34277,1.38867 -0.22852,0.4336 -0.52149,0.82324 -0.87891,1.16895 -0.33985,0.33398 -0.69141,0.61816 -1.05469,0.85254 -0.36328,0.24023 -0.68554,0.42773 -0.96679,0.5625 l -0.28125,-0.58887 c 0.26953,-0.14649 0.54199,-0.31348 0.81738,-0.50098 0.27539,-0.18164 0.50683,-0.36621 0.69433,-0.55371 0.23438,-0.22851 0.43067,-0.4541 0.58887,-0.67676 0.16406,-0.22265 0.29297,-0.49218 0.38672,-0.80859 l -0.41309,0 c -0.35742,0 -0.62695,-0.0879 -0.80859,-0.26367 -0.17578,-0.18164 -0.26367,-0.41602 -0.26367,-0.70313 0,-0.30468 0.11719,-0.58593 0.35156,-0.84375 0.23438,-0.25781 0.55078,-0.38671 0.94922,-0.38671 0.42773,0 0.73828,0.12597 0.93164,0.37792 0.19336,0.2461 0.29004,0.5713 0.29004,0.97559 m 14.99414,-7.00488 c -10e-6,0.25782 -0.10255,0.49805 -0.30762,0.7207 -0.19922,0.21681 -0.44825,0.3252 -0.74707,0.3252 -0.19336,0 -0.38379,-0.0264 -0.57129,-0.0791 -0.1875,-0.0527 -0.39258,-0.13182 -0.61523,-0.2373 -0.32227,0.18165 -0.65626,0.40723 -1.00195,0.67676 -0.33985,0.26368 -0.71192,0.58594 -1.11621,0.96679 0.33397,0.8672 0.61522,1.57911 0.84375,2.13575 0.23436,0.55078 0.43358,1.00195 0.59765,1.35351 0.21093,0.43946 0.44238,0.75293 0.69434,0.94043 0.2578,0.18164 0.53905,0.27246 0.84375,0.27246 0.14061,0 0.33397,-0.0205 0.58008,-0.0615 0.24608,-0.0469 0.43651,-0.0937 0.57129,-0.14063 l -0.13184,0.58008 c -0.54493,0.22266 -0.97267,0.37207 -1.2832,0.44825 -0.31056,0.0762 -0.62403,0.11425 -0.94043,0.11425 -0.37501,0 -0.69728,-0.10254 -0.9668,-0.30761 -0.26368,-0.21094 -0.51856,-0.58887 -0.76465,-1.13379 -0.24024,-0.52149 -0.45411,-1.03418 -0.6416,-1.53809 -0.1875,-0.50976 -0.37207,-0.99023 -0.55371,-1.44141 l -1.02832,0.87891 -0.75586,3.39258 -1.63477,0 2.61035,-11.31152 c 0.041,-0.18163 0.0674,-0.30761 0.0791,-0.37793 0.0176,-0.0703 0.0264,-0.1582 0.0264,-0.26368 0,-0.21092 -0.0352,-0.37205 -0.10547,-0.48339 -0.0703,-0.11718 -0.16992,-0.20507 -0.29882,-0.26368 -0.12305,-0.0527 -0.27833,-0.0879 -0.46582,-0.10547 -0.18751,-0.0176 -0.37794,-0.0381 -0.57129,-0.0615 l 0.12304,-0.53613 3.26075,-0.20215 0.0879,0.13184 -2.14453,9.14941 0.0352,0 c 0.66211,-0.71484 1.26269,-1.333 1.80176,-1.85449 0.54492,-0.52734 1.11328,-1.06347 1.70508,-1.6084 0.42187,-0.38671 0.75585,-0.65038 1.00195,-0.79102 0.24609,-0.14647 0.50976,-0.21971 0.79102,-0.21972 0.29882,1e-5 0.53905,0.085 0.7207,0.25488 0.18163,0.16407 0.27245,0.38966 0.27246,0.67676 m 10.6084,3.49804 -3.96387,0 0,3.96387 -1.11621,0 0,-3.96387 -3.96387,0 0,-1.09863 3.96387,0 0,-3.96387 1.11621,0 0,3.96387 3.96387,0 0,1.09863 m 10.82812,-1.14257 c -10e-6,0.78516 -0.1377,1.5293 -0.41308,2.23242 -0.2754,0.70313 -0.64161,1.3125 -1.09863,1.82812 -0.50978,0.56836 -1.06349,0.99024 -1.66114,1.26563 -0.5918,0.27539 -1.20117,0.41308 -1.82812,0.41308 -0.50391,0 -0.917,-0.0615 -1.23926,-0.18457 -0.32227,-0.12304 -0.60938,-0.27539 -0.86133,-0.45703 l -0.50976,2.30274 c -0.0352,0.14648 -0.0645,0.28417 -0.0879,0.41308 -0.0176,0.12891 -0.0264,0.23145 -0.0264,0.30762 0,0.1582 0.0557,0.28418 0.16699,0.37793 0.11719,0.0937 0.24902,0.16113 0.39551,0.20215 0.14648,0.0469 0.31054,0.082 0.49219,0.10547 0.18163,0.0234 0.3457,0.041 0.49218,0.0527 l -0.12304,0.55371 -4.84278,0 0.12305,-0.55371 c 0.1875,-0.0117 0.36328,-0.0264 0.52734,-0.0439 0.16407,-0.0176 0.31934,-0.0469 0.46582,-0.0879 0.18164,-0.0527 0.3252,-0.15235 0.43067,-0.29883 0.11133,-0.14063 0.19043,-0.31641 0.2373,-0.52735 l 1.83692,-8.08593 c 0.0469,-0.22265 0.0908,-0.44531 0.13183,-0.66797 0.041,-0.22851 0.0615,-0.4248 0.0615,-0.58887 -10e-6,-0.32812 -0.0527,-0.54784 -0.15821,-0.65918 -0.0996,-0.11132 -0.31933,-0.16698 -0.65918,-0.16699 -0.1289,1e-5 -0.29297,0.0264 -0.49218,0.0791 -0.19922,0.0469 -0.3545,0.085 -0.46582,0.11426 l 0.13183,-0.5625 c 0.44531,-0.19921 0.84668,-0.35156 1.2041,-0.45703 0.35742,-0.11132 0.66211,-0.16699 0.91407,-0.167 0.41015,1e-5 0.72069,0.10548 0.93164,0.31641 0.21093,0.20509 0.34277,0.4922 0.3955,0.86133 l 0.0703,0 c 0.39843,-0.36913 0.82323,-0.67382 1.27441,-0.91406 0.45703,-0.24023 0.91113,-0.36035 1.36231,-0.36036 0.89061,1e-5 1.58202,0.3047 2.07421,0.91407 0.49804,0.60352 0.74706,1.41797 0.74707,2.44336 m -2.74218,3.62988 c 0.29882,-0.48047 0.52733,-1.02539 0.68554,-1.63477 0.16406,-0.61523 0.24609,-1.26562 0.2461,-1.95117 -10e-6,-0.31054 -0.0293,-0.62109 -0.0879,-0.93164 -0.0528,-0.3164 -0.14064,-0.57714 -0.26368,-0.78223 -0.12891,-0.2285 -0.30469,-0.40428 -0.52734,-0.52734 -0.22266,-0.1289 -0.51563,-0.19335 -0.87891,-0.19336 -0.26953,10e-6 -0.56836,0.082 -0.89648,0.2461 -0.32227,0.16407 -0.71778,0.47168 -1.18652,0.92285 l -1.125,4.9834 c 0.041,0.33398 0.21972,0.64746 0.53613,0.94043 0.32226,0.28711 0.70898,0.43066 1.16016,0.43066 0.46288,0 0.89647,-0.13477 1.30078,-0.4043 0.40429,-0.26953 0.74999,-0.63574 1.03711,-1.09863"
           style="font-style:italic;font-variant:normal;font-weight:normal;font-stretch:normal;font-size:18px;line-height:125%;font-family:Georgia;-inkscape-font-specification:'Georgia Italic';text-align:start;writing-mode:lr-tb;text-anchor:start;fill:#d40000;fill-opacity:1;stroke:none;stroke-width:1px;stroke-linecap:butt;stroke-linejoin:miter;stroke-opacity:1" />
        <path
           inkscape:connector-curvature="0"
           id="text4173"
           d="m 278.18527,162.32976 c -1.59961,-0.19922 -2.85645,-1.00489 -3.77051,-2.41699 -0.9082,-1.41211 -1.3623,-3.31348 -1.3623,-5.70411 0,-2.43163 0.4541,-4.35643 1.3623,-5.77441 0.91406,-1.42382 2.1709,-2.2412 3.77051,-2.45215 l 0,0.72949 c -1.125,0.20509 -1.98047,0.92287 -2.5664,2.15332 -0.58594,1.23048 -0.87891,3.01759 -0.87891,5.36133 0,2.23243 0.28711,3.96973 0.86133,5.21192 0.57421,1.23632 1.43554,1.95996 2.58398,2.17089 l 0,0.72071 m 54.26367,-8.1211 c 0,2.39063 -0.45703,4.292 -1.37109,5.70411 -0.90821,1.4121 -2.16211,2.21777 -3.76172,2.41699 l 0,-0.72071 c 1.14844,-0.21093 2.00976,-0.93457 2.58399,-2.17089 0.57421,-1.24219 0.86132,-2.97949 0.86132,-5.21192 0,-2.34374 -0.29297,-4.13085 -0.8789,-5.36133 -0.58594,-1.23045 -1.44141,-1.94823 -2.56641,-2.15332 l 0,-0.72949 c 1.59961,0.21095 2.85351,1.02833 3.76172,2.45215 0.91406,1.41798 1.37109,3.34278 1.37109,5.77441"
           style="font-style:normal;font-variant:normal;font-weight:normal;font-stretch:normal;font-size:18px;line-height:125%;font-family:Georgia;-inkscape-font-specification:Georgia;text-align:start;writing-mode:lr-tb;text-anchor:start;fill:#d40000;fill-opacity:1;stroke:none;stroke-width:1px;stroke-linecap:butt;stroke-linejoin:miter;stroke-opacity:1" />
      </g>
      <g
         id="g4267"
         transform="translate(24.750411,-15.341696)">
        <path
           id="text4245"
           d="m 160.92892,62.097115 c -0.0104,0.60418 -0.23439,1.052096 -0.67187,1.34375 -0.4271,0.281262 -0.89585,0.421887 -1.40625,0.421875 -0.31251,1.2e-5 -0.66668,-0.05207 -1.0625,-0.15625 -0.39585,-0.114571 -0.70835,-0.208321 -0.9375,-0.28125 -0.46876,0.416679 -1.01564,1.031261 -1.64063,1.84375 -0.61459,0.81251 -1.19792,1.708342 -1.75,2.6875 0.25,0.98959 0.47395,1.838548 0.67188,2.546875 0.19791,0.697921 0.41145,1.401045 0.64062,2.109375 0.19791,0.635419 0.5052,1.145835 0.92188,1.53125 0.42707,0.375001 0.98436,0.562501 1.67187,0.5625 0.24999,10e-7 0.59374,-0.03125 1.03125,-0.09375 0.43749,-0.07292 0.77603,-0.15104 1.01563,-0.234375 l -0.28125,1.03125 c -1.00001,0.416667 -1.75522,0.6875 -2.26563,0.8125 -0.50001,0.124999 -1.04167,0.187499 -1.625,0.1875 -0.72917,-10e-7 -1.33334,-0.166667 -1.8125,-0.5 -0.46875,-0.333333 -0.84896,-1.020833 -1.14062,-2.0625 -0.20834,-0.760414 -0.38022,-1.39583 -0.51563,-1.90625 -0.125,-0.520829 -0.25,-1.036454 -0.375,-1.546875 -0.47917,0.718755 -0.875,1.333337 -1.1875,1.84375 -0.3125,0.500003 -0.83333,1.192711 -1.5625,2.078125 -0.63542,0.770834 -1.21875,1.317708 -1.75,1.640625 -0.53125,0.322916 -1.07291,0.484374 -1.625,0.484375 -0.48958,-10e-7 -0.89062,-0.140626 -1.20312,-0.421875 -0.32292,-0.291667 -0.48437,-0.692708 -0.48438,-1.203125 1e-5,-0.489582 0.18751,-0.906248 0.5625,-1.25 0.375,-0.354164 0.89063,-0.531247 1.54688,-0.53125 0.33333,3e-6 0.65625,0.0625 0.96875,0.1875 0.32291,0.114586 0.65625,0.223961 1,0.328125 0.39583,-0.374997 0.91666,-0.95833 1.5625,-1.75 0.65624,-0.791662 1.26562,-1.692703 1.82812,-2.703125 -0.19792,-0.739576 -0.41667,-1.552075 -0.65625,-2.4375 -0.22917,-0.885407 -0.44792,-1.661448 -0.65625,-2.328125 -0.27083,-0.843738 -0.58333,-1.385404 -0.9375,-1.625 -0.35417,-0.23957 -0.80729,-0.359362 -1.35937,-0.359375 -0.30209,1.3e-5 -0.625,0.04168 -0.96875,0.125 -0.33334,0.08335 -0.64584,0.16668 -0.9375,0.25 l 0.29687,-1.03125 c 0.80209,-0.333319 1.52083,-0.604152 2.15625,-0.8125 0.64583,-0.218735 1.08333,-0.32811 1.3125,-0.328125 0.71875,1.5e-5 1.3125,0.177098 1.78125,0.53125 0.47916,0.343764 0.85937,1.015639 1.14063,2.015625 0.32291,1.156261 0.51041,1.864594 0.5625,2.125 0.0625,0.25001 0.17707,0.75001 0.34375,1.5 0.49999,-0.770824 0.90624,-1.421865 1.21875,-1.953125 0.31249,-0.531239 0.82291,-1.234363 1.53125,-2.109375 0.65624,-0.822903 1.2604,-1.385402 1.8125,-1.6875 0.56249,-0.312485 1.09894,-0.468735 1.60937,-0.46875 0.45832,1.5e-5 0.84374,0.151057 1.15625,0.453125 0.3229,0.291681 0.47915,0.671889 0.46875,1.140625 m 10.46875,4.359375 -0.5625,2.375 -9.3125,0 0.5625,-2.375 9.3125,0 m 17.98438,7.875 -0.23438,1 c -0.93751,0.375 -1.66668,0.645833 -2.1875,0.8125 -0.52084,0.177083 -1.04688,0.265624 -1.57812,0.265625 -0.83335,-10e-7 -1.45835,-0.213542 -1.875,-0.640625 -0.41668,-0.4375 -0.62501,-0.973957 -0.625,-1.609375 -1e-5,-0.229165 0.0208,-0.479165 0.0625,-0.75 0.0417,-0.281247 0.10936,-0.609372 0.20312,-0.984375 l 1.53125,-5.828125 c 0.11458,-0.447907 0.20312,-0.854157 0.26563,-1.21875 0.0729,-0.364573 0.10936,-0.656239 0.10937,-0.875 -1e-5,-0.697905 -0.16667,-1.249988 -0.5,-1.65625 -0.33334,-0.406237 -0.82813,-0.609362 -1.48437,-0.609375 -0.66668,1.3e-5 -1.39063,0.213555 -2.17188,0.640625 -0.77084,0.427096 -1.50521,1.026053 -2.20312,1.796875 l -2.64063,11.46875 -2.90625,0 4.64063,-20.109375 c 0.0521,-0.239563 0.0937,-0.442688 0.125,-0.609375 0.0417,-0.166646 0.0625,-0.343729 0.0625,-0.53125 -1e-5,-0.374979 -0.0625,-0.661437 -0.1875,-0.859375 -0.12501,-0.208311 -0.30209,-0.364561 -0.53125,-0.46875 -0.19792,-0.09373 -0.46875,-0.156228 -0.8125,-0.1875 -0.34375,-0.03123 -0.6875,-0.06769 -1.03125,-0.109375 l 0.21875,-0.953125 5.79687,-0.359375 0.15625,0.234375 -2.5,10.8125 0.0625,0 c 1.07291,-0.86457 2.03125,-1.515611 2.875,-1.953125 0.84374,-0.447902 1.80208,-0.67186 2.875,-0.671875 0.99999,1.5e-5 1.78124,0.291682 2.34375,0.875 0.56249,0.572931 0.84374,1.328138 0.84375,2.265625 -1e-5,0.187512 -0.0313,0.520845 -0.0937,1 -0.0521,0.479177 -0.14064,0.953135 -0.26562,1.421875 l -1.3125,5.015625 c -0.0833,0.333338 -0.17189,0.718754 -0.26563,1.15625 -0.0938,0.427087 -0.14063,0.76042 -0.14062,1 -1e-5,0.593752 0.13019,1.000002 0.39062,1.21875 0.26041,0.208335 0.68749,0.312501 1.28125,0.3125 0.19791,10e-7 0.47916,-0.03125 0.84375,-0.09375 0.37499,-0.07292 0.66145,-0.145832 0.85938,-0.21875"
           style="font-style:italic;font-variant:normal;font-weight:normal;font-stretch:normal;font-size:32px;line-height:125%;font-family:Georgia;-inkscape-font-specification:'Georgia Italic';text-align:start;writing-mode:lr-tb;text-anchor:start;fill:#002255;fill-opacity:1;stroke:none;stroke-width:1px;stroke-linecap:butt;stroke-linejoin:miter;stroke-opacity:1"
           inkscape:connector-curvature="0" />
        <path
           id="text4249"
           d="m 147.16638,79.939835 c -2.84376,-0.354172 -5.07813,-1.786462 -6.70312,-4.296875 -1.61459,-2.510415 -2.42188,-5.89062 -2.42188,-10.140625 0,-4.322903 0.80729,-7.744775 2.42188,-10.265625 1.62499,-2.531228 3.85936,-3.984352 6.70312,-4.359375 l 0,1.296875 c -2.00001,0.364605 -3.52084,1.640646 -4.5625,3.828125 -1.04167,2.187516 -1.5625,5.364596 -1.5625,9.53125 0,3.968755 0.51041,7.057293 1.53125,9.265625 1.02083,2.197914 2.55208,3.484371 4.59375,3.859375 l 0,1.28125 m 49.96875,-14.4375 c -1e-5,4.250005 -0.81251,7.63021 -2.4375,10.140625 -1.61459,2.510413 -3.84375,3.942703 -6.6875,4.296875 l 0,-1.28125 c 2.04167,-0.375004 3.57291,-1.661461 4.59375,-3.859375 1.02083,-2.208332 1.53124,-5.29687 1.53125,-9.265625 -1e-5,-4.166654 -0.52084,-7.343734 -1.5625,-9.53125 -1.04167,-2.187479 -2.5625,-3.46352 -4.5625,-3.828125 l 0,-1.296875 c 2.84375,0.375023 5.07291,1.828147 6.6875,4.359375 1.62499,2.52085 2.43749,5.942722 2.4375,10.265625 m 15.89063,1.65625 -11.76563,0 0,-1.734375 c 0.40625,-0.677074 1.02604,-1.34374 1.85938,-2 0.83333,-0.656238 1.83853,-1.354154 3.01562,-2.09375 0.36458,-0.229153 0.76562,-0.531236 1.20313,-0.90625 0.4479,-0.385402 0.79165,-0.739569 1.03125,-1.0625 0.31249,-0.416651 0.54686,-0.848942 0.70312,-1.296875 0.16666,-0.458317 0.24999,-1.031233 0.25,-1.71875 -1e-5,-0.999981 -0.25522,-1.760397 -0.76562,-2.28125 -0.51043,-0.520812 -1.1823,-0.781229 -2.01563,-0.78125 -0.59376,2.1e-5 -1.10417,0.104188 -1.53125,0.3125 -0.41667,0.197937 -0.71875,0.432312 -0.90625,0.703125 0.0625,0.25002 0.1302,0.536478 0.20313,0.859375 0.0833,0.312519 0.12499,0.640644 0.125,0.984375 -1e-5,0.322935 -0.14584,0.604184 -0.4375,0.84375 -0.28126,0.239601 -0.69792,0.359392 -1.25,0.359375 -0.50001,1.7e-5 -0.85938,-0.161441 -1.07813,-0.484375 -0.20833,-0.333315 -0.3125,-0.703107 -0.3125,-1.109375 0,-0.947897 0.54167,-1.791646 1.625,-2.53125 1.09375,-0.739561 2.35937,-1.109353 3.79688,-1.109375 1.6354,2.2e-5 2.96874,0.395855 4,1.1875 1.03123,0.78127 1.54686,1.833353 1.54687,3.15625 -1e-5,0.781267 -0.1198,1.463558 -0.35937,2.046875 -0.22918,0.572932 -0.53647,1.062515 -0.92188,1.46875 -0.40626,0.427097 -0.86459,0.796889 -1.375,1.109375 -0.50001,0.312513 -1.02084,0.598971 -1.5625,0.859375 -0.66667,0.322929 -1.47917,0.75522 -2.4375,1.296875 -0.94792,0.541677 -1.72917,1.098968 -2.34375,1.671875 l 9.70313,0 0,2.25 m 27.85937,-3.015625 -15.76562,0 0,-1.953125 15.76562,0 0,1.953125 m 0,5.8125 -15.76562,0 0,-1.953125 15.76562,0 0,1.953125 m 27.07813,3.453125 -3.17188,0 0,7.109375 -3,0 0,-7.109375 -10,0 0,-2.40625 10.95313,-13.359375 2.04687,0 0,13.71875 3.17188,0 0,2.046875 m -6.17188,-2.046875 0,-10.234375 -8.4375,10.234375 8.4375,0 m 33.75,8.578125 c -2.84376,-0.354172 -5.07813,-1.786462 -6.70312,-4.296875 -1.61459,-2.510415 -2.42188,-5.89062 -2.42188,-10.140625 0,-4.322903 0.80729,-7.744775 2.42188,-10.265625 1.62499,-2.531228 3.85936,-3.984352 6.70312,-4.359375 l 0,1.296875 c -2.00001,0.364605 -3.52084,1.640646 -4.5625,3.828125 -1.04167,2.187516 -1.5625,5.364596 -1.5625,9.53125 0,3.968755 0.51041,7.057293 1.53125,9.265625 1.02083,2.197914 2.55208,3.484371 4.59375,3.859375 l 0,1.28125 m 57.71875,-14.4375 c -1e-5,4.250005 -0.81251,7.63021 -2.4375,10.140625 -1.61459,2.510413 -3.84375,3.942703 -6.6875,4.296875 l 0,-1.28125 c 2.04167,-0.375004 3.57291,-1.661461 4.59375,-3.859375 1.02083,-2.208332 1.53124,-5.29687 1.53125,-9.265625 -1e-5,-4.166654 -0.52084,-7.343734 -1.5625,-9.53125 -1.04167,-2.187479 -2.5625,-3.46352 -4.5625,-3.828125 l 0,-1.296875 c 2.84375,0.375023 5.07291,1.828147 6.6875,4.359375 1.62499,2.52085 2.43749,5.942722 2.4375,10.265625"
           style="font-style:normal;font-variant:normal;font-weight:normal;font-stretch:normal;font-size:32px;line-height:100%;font-family:Georgia;-inkscape-font-specification:Georgia;text-align:start;writing-mode:lr-tb;text-anchor:start;fill:#002255;fill-opacity:1;stroke:none;stroke-width:1px;stroke-linecap:butt;stroke-linejoin:miter;stroke-opacity:1"
           inkscape:connector-curvature="0" />
        <path
           id="text4255"
           d="m 285.60706,65.011688 c -2e-5,1.395842 -0.24481,2.718757 -0.73438,3.96875 -0.4896,1.250005 -1.14064,2.333337 -1.95312,3.25 -0.90627,1.010418 -1.89064,1.760418 -2.95313,2.25 -1.05209,0.489583 -2.13543,0.734375 -3.25,0.734375 -0.89584,0 -1.63021,-0.109375 -2.20312,-0.328125 -0.57293,-0.21875 -1.08334,-0.489583 -1.53125,-0.8125 l -0.90625,4.09375 c -0.0625,0.260413 -0.11459,0.505205 -0.15625,0.734375 -0.0313,0.229163 -0.0469,0.411454 -0.0469,0.546875 0,0.281245 0.099,0.505203 0.29688,0.671875 0.20832,0.166661 0.4427,0.286453 0.70312,0.359375 0.26041,0.08333 0.55208,0.145828 0.875,0.1875 0.32291,0.04166 0.61458,0.07291 0.875,0.09375 l -0.21875,0.984375 -8.60937,0 0.21875,-0.984375 c 0.33333,-0.02084 0.64583,-0.04688 0.9375,-0.07813 0.29166,-0.03126 0.5677,-0.08334 0.82812,-0.15625 0.32292,-0.09376 0.57813,-0.270839 0.76563,-0.53125 0.19791,-0.250005 0.33854,-0.562504 0.42187,-0.9375 l 3.26563,-14.375 c 0.0833,-0.395823 0.16145,-0.791656 0.23437,-1.1875 0.0729,-0.406238 0.10937,-0.755196 0.10938,-1.046875 -10e-6,-0.58332 -0.0938,-0.973945 -0.28125,-1.171875 -0.17709,-0.197903 -0.56772,-0.296861 -1.17188,-0.296875 -0.22917,1.4e-5 -0.52084,0.04689 -0.875,0.140625 -0.35417,0.08335 -0.63021,0.151055 -0.82812,0.203125 l 0.23437,-1 c 0.79167,-0.354152 1.50521,-0.624985 2.14063,-0.8125 0.63541,-0.197901 1.17707,-0.296859 1.625,-0.296875 0.72916,1.6e-5 1.28124,0.187516 1.65625,0.5625 0.37499,0.364598 0.60936,0.875014 0.70312,1.53125 l 0.125,0 c 0.70833,-0.656236 1.46353,-1.197902 2.26563,-1.625 0.81248,-0.427068 1.61978,-0.640609 2.42187,-0.640625 1.58332,1.6e-5 2.81249,0.541682 3.6875,1.625 0.8854,1.07293 1.32811,2.520845 1.32813,4.34375 m -4.875,6.453125 c 0.53123,-0.854162 0.93748,-1.822911 1.21875,-2.90625 0.29165,-1.093742 0.43748,-2.249991 0.4375,-3.46875 -2e-5,-0.552073 -0.0521,-1.104156 -0.15625,-1.65625 -0.0938,-0.562488 -0.25002,-1.026029 -0.46875,-1.390625 -0.22918,-0.406237 -0.54168,-0.718736 -0.9375,-0.9375 -0.39585,-0.229153 -0.91668,-0.343736 -1.5625,-0.34375 -0.47918,1.4e-5 -1.01043,0.145847 -1.59375,0.4375 -0.57293,0.29168 -1.27605,0.838555 -2.10938,1.640625 l -2,8.859375 c 0.0729,0.593753 0.39062,1.151044 0.95313,1.671875 0.57291,0.510418 1.2604,0.765626 2.0625,0.765625 0.8229,10e-7 1.59374,-0.239582 2.3125,-0.71875 0.71873,-0.479165 1.33332,-1.130206 1.84375,-1.953125"
           style="font-style:italic;font-variant:normal;font-weight:normal;font-stretch:normal;font-size:32px;line-height:125%;font-family:Georgia;-inkscape-font-specification:'Georgia Italic';text-align:start;writing-mode:lr-tb;text-anchor:start;fill:#002255;fill-opacity:1;stroke:none;stroke-width:1px;stroke-linecap:butt;stroke-linejoin:miter;stroke-opacity:1"
           inkscape:connector-curvature="0" />
        <path
           id="text4259"
           d="m 307.88669,72.558052 -0.0937,0 c -0.95835,0.802085 -1.8698,1.432293 -2.73438,1.890625 -0.86459,0.458333 -1.84896,0.6875 -2.95312,0.6875 -1.00001,0 -1.79167,-0.286458 -2.375,-0.859375 -0.58334,-0.583332 -0.875,-1.343748 -0.875,-2.28125 0,-0.249997 0.0208,-0.546872 0.0625,-0.890625 0.0417,-0.343746 0.14062,-0.854162 0.29687,-1.53125 l 1.21875,-4.875 c 0.11458,-0.468739 0.20312,-0.874989 0.26563,-1.21875 0.0625,-0.354155 0.0937,-0.692696 0.0937,-1.015625 -10e-6,-0.58332 -0.099,-0.968737 -0.29688,-1.15625 -0.1875,-0.197903 -0.57813,-0.296861 -1.17187,-0.296875 -0.22917,1.4e-5 -0.52084,0.04168 -0.875,0.125 -0.35417,0.08335 -0.63021,0.151055 -0.82813,0.203125 l 0.23438,-1 c 0.8125,-0.364568 1.52604,-0.64061 2.14062,-0.828125 0.625,-0.187484 1.125,-0.281234 1.5,-0.28125 0.83333,1.6e-5 1.44791,0.187515 1.84375,0.5625 0.40625,0.375015 0.60937,0.937514 0.60938,1.6875 -10e-6,0.187513 -0.0208,0.442721 -0.0625,0.765625 -0.0417,0.322929 -0.10418,0.645845 -0.1875,0.96875 l -1.42188,5.703125 c -0.10417,0.437506 -0.19271,0.848963 -0.26562,1.234375 -0.0729,0.375004 -0.10938,0.661462 -0.10938,0.859375 0,0.69792 0.16666,1.250003 0.5,1.65625 0.34375,0.406252 0.84375,0.609377 1.5,0.609375 0.76041,2e-6 1.49999,-0.187498 2.21875,-0.5625 0.72916,-0.374997 1.41145,-0.890622 2.04688,-1.546875 l 2.59375,-11.6875 2.70312,-0.1875 0.1875,0.234375 -2.6875,12.234375 c -0.39584,1.791668 -0.90105,3.322916 -1.51562,4.59375 -0.6146,1.270831 -1.33335,2.296871 -2.15625,3.078125 -0.86459,0.822911 -1.79689,1.416661 -2.79688,1.78125 -1,0.364577 -2.14063,0.546868 -3.42187,0.546875 -0.88542,-7e-6 -1.58855,-0.06251 -2.10938,-0.1875 -0.52083,-0.125007 -0.93229,-0.296881 -1.23437,-0.515625 -0.30209,-0.208339 -0.50521,-0.442714 -0.60938,-0.703125 -0.10416,-0.260422 -0.15625,-0.520838 -0.15625,-0.78125 0,-0.447921 0.13542,-0.843754 0.40625,-1.1875 0.27084,-0.343753 0.66146,-0.515628 1.17188,-0.515625 0.38541,-3e-6 0.71354,0.109372 0.98437,0.328125 0.27083,0.218746 0.48958,0.45833 0.65625,0.71875 0.1875,0.281246 0.35937,0.598954 0.51563,0.953125 0.15624,0.354161 0.28124,0.635411 0.375,0.84375 l 0.375,0 c 0.59374,-6e-6 1.21874,-0.145839 1.875,-0.4375 0.66666,-0.291672 1.27603,-0.744796 1.82812,-1.359375 0.59374,-0.66667 1.12499,-1.526044 1.59375,-2.578125 0.47916,-1.052084 0.85937,-2.312499 1.14063,-3.78125 m 17.84375,-7.421875 -0.5625,2.375 -9.3125,0 0.5625,-2.375 9.3125,0 m 17.625,-4.296875 c -2e-5,0.458347 -0.18231,0.88543 -0.54688,1.28125 -0.35418,0.385429 -0.79689,0.578137 -1.32812,0.578125 -0.34377,1.2e-5 -0.68231,-0.04686 -1.01563,-0.140625 -0.33334,-0.09374 -0.69793,-0.234362 -1.09375,-0.421875 -0.57293,0.322929 -1.16668,0.72397 -1.78125,1.203125 -0.60417,0.468761 -1.26563,1.041677 -1.98437,1.71875 0.59374,1.541675 1.09374,2.807299 1.5,3.796875 0.41665,0.979172 0.77082,1.781254 1.0625,2.40625 0.37499,0.781253 0.78644,1.338544 1.23437,1.671875 0.45832,0.322918 0.95832,0.484376 1.5,0.484375 0.24999,10e-7 0.59374,-0.03646 1.03125,-0.109375 0.43749,-0.08333 0.77603,-0.166665 1.01563,-0.25 l -0.23438,1.03125 c -0.96876,0.395834 -1.72918,0.661458 -2.28125,0.796875 -0.55209,0.135417 -1.10938,0.203125 -1.67187,0.203125 -0.66668,0 -1.2396,-0.182292 -1.71875,-0.546875 -0.46876,-0.374999 -0.92189,-1.046874 -1.35938,-2.015625 -0.42709,-0.92708 -0.8073,-1.838537 -1.14062,-2.734375 -0.33334,-0.906244 -0.66147,-1.76041 -0.98438,-2.5625 l -1.82812,1.5625 -1.34375,6.03125 -2.90625,0 4.64062,-20.109375 c 0.0729,-0.322896 0.11979,-0.546854 0.14063,-0.671875 0.0312,-0.124979 0.0469,-0.281229 0.0469,-0.46875 0,-0.374978 -0.0625,-0.661436 -0.1875,-0.859375 -0.125,-0.208311 -0.30209,-0.364561 -0.53125,-0.46875 -0.21875,-0.09373 -0.49479,-0.156227 -0.82812,-0.1875 -0.33334,-0.03123 -0.67188,-0.06769 -1.01563,-0.109375 l 0.21875,-0.953125 5.79688,-0.359375 0.15625,0.234375 -3.8125,16.265625 0.0625,0 c 1.17707,-1.270824 2.24478,-2.369782 3.20312,-3.296875 0.96874,-0.937488 1.97916,-1.890612 3.03125,-2.859375 0.74999,-0.687485 1.34374,-1.156235 1.78125,-1.40625 0.43749,-0.260401 0.90624,-0.390609 1.40625,-0.390625 0.53124,1.6e-5 0.95832,0.151057 1.28125,0.453125 0.3229,0.291682 0.48436,0.692723 0.48438,1.203125"
           style="font-style:italic;font-variant:normal;font-weight:normal;font-stretch:normal;font-size:32px;line-height:125%;font-family:Georgia;-inkscape-font-specification:'Georgia Italic';text-align:start;writing-mode:lr-tb;text-anchor:start;fill:#002255;fill-opacity:1;stroke:none;stroke-width:1px;stroke-linecap:butt;stroke-linejoin:miter;stroke-opacity:1"
           inkscape:connector-curvature="0" />
      </g>
      <text
         sodipodi:linespacing="125%"
         id="text8102"
         y="251.53757"
         x="360.88751"
         style="font-style:normal;font-weight:normal;font-size:24.39452362px;line-height:125%;font-family:sans-serif;letter-spacing:0px;word-spacing:0px;fill:#165016;fill-opacity:1;stroke:none;stroke-width:1px;stroke-linecap:butt;stroke-linejoin:miter;stroke-opacity:1"
         xml:space="preserve"><tspan
           y="251.53757"
           x="360.88751"
           id="tspan8104"
           sodipodi:role="line">준선</tspan></text>
      <text
         sodipodi:linespacing="125%"
         id="text8102-2"
         y="156.30708"
         x="218.81207"
         style="font-style:normal;font-weight:normal;font-size:24.39452362px;line-height:125%;font-family:sans-serif;letter-spacing:0px;word-spacing:0px;fill:#ff0000;fill-opacity:1;stroke:none;stroke-width:1px;stroke-linecap:butt;stroke-linejoin:miter;stroke-opacity:1"
         xml:space="preserve"><tspan
           y="156.30708"
           x="218.81207"
           id="tspan8104-5"
           sodipodi:role="line">초점</tspan></text>
      <text
         inkscape:transform-center-y="-1.335424"
         inkscape:transform-center-x="-16.025089"
         sodipodi:linespacing="125%"
         id="text8102-2-6"
         y="238.53625"
         x="197.81122"
         style="font-style:normal;font-weight:normal;font-size:24.39452362px;line-height:125%;font-family:sans-serif;letter-spacing:0px;word-spacing:0px;fill:#aa4400;fill-opacity:1;stroke:none;stroke-width:1px;stroke-linecap:butt;stroke-linejoin:miter;stroke-opacity:1"
         xml:space="preserve"><tspan
           y="238.53625"
           x="197.81122"
           id="tspan8104-5-9"
           sodipodi:role="line">꼭지점</tspan></text>
    </g>
  </g>
</svg>
