<?xml version="1.0" encoding="UTF-8"?>
<svg xmlns="http://www.w3.org/2000/svg" xmlns:xlink="http://www.w3.org/1999/xlink" width="102pt" height="62pt" viewBox="0 0 102 62" version="1.1">
<defs>
<g>
<symbol overflow="visible" id="glyph0-0">
<path style="stroke:none;" d=""/>
</symbol>
<symbol overflow="visible" id="glyph0-1">
<path style="stroke:none;" d="M 3.734375 17.640625 C 3.953125 17.640625 4 17.640625 4 17.5 C 4.03125 10.515625 4.828125 4.71875 8.328125 -0.15625 C 8.390625 -0.25 8.390625 -0.265625 8.390625 -0.296875 C 8.390625 -0.390625 8.328125 -0.390625 8.171875 -0.390625 C 8 -0.390625 7.984375 -0.390625 7.96875 -0.375 C 7.921875 -0.34375 6.65625 1.109375 5.65625 3.125 C 4.34375 5.75 3.515625 8.765625 3.140625 12.40625 C 3.109375 12.703125 2.90625 14.78125 2.90625 17.140625 L 2.90625 17.53125 C 2.90625 17.640625 2.96875 17.640625 3.1875 17.640625 Z M 3.734375 17.640625 "/>
</symbol>
<symbol overflow="visible" id="glyph1-0">
<path style="stroke:none;" d=""/>
</symbol>
<symbol overflow="visible" id="glyph1-1">
<path style="stroke:none;" d="M 4 0.171875 C 4 -0.09375 4 -0.09375 3.734375 -0.09375 L 3.1875 -0.09375 C 2.90625 -0.09375 2.90625 -0.09375 2.90625 0.171875 L 2.90625 5.8125 C 2.90625 6.078125 2.90625 6.078125 3.1875 6.078125 L 3.734375 6.078125 C 4 6.078125 4 6.078125 4 5.8125 Z M 4 0.171875 "/>
</symbol>
<symbol overflow="visible" id="glyph2-0">
<path style="stroke:none;" d=""/>
</symbol>
<symbol overflow="visible" id="glyph2-1">
<path style="stroke:none;" d="M 4 0.171875 C 4 -0.09375 4 -0.09375 3.734375 -0.09375 L 3.1875 -0.09375 C 2.90625 -0.09375 2.90625 -0.09375 2.90625 0.171875 L 2.90625 5.8125 C 2.90625 6.078125 2.90625 6.078125 3.1875 6.078125 L 3.734375 6.078125 C 4 6.078125 4 6.078125 4 5.8125 Z M 4 0.171875 "/>
</symbol>
<symbol overflow="visible" id="glyph3-0">
<path style="stroke:none;" d=""/>
</symbol>
<symbol overflow="visible" id="glyph3-1">
<path style="stroke:none;" d="M 4 0.171875 C 4 -0.09375 4 -0.09375 3.734375 -0.09375 L 3.1875 -0.09375 C 2.90625 -0.09375 2.90625 -0.09375 2.90625 0.171875 L 2.90625 5.8125 C 2.90625 6.078125 2.90625 6.078125 3.1875 6.078125 L 3.734375 6.078125 C 4 6.078125 4 6.078125 4 5.8125 Z M 4 0.171875 "/>
</symbol>
<symbol overflow="visible" id="glyph4-0">
<path style="stroke:none;" d=""/>
</symbol>
<symbol overflow="visible" id="glyph4-1">
<path style="stroke:none;" d="M 4 0.171875 C 4 -0.09375 4 -0.09375 3.734375 -0.09375 L 3.1875 -0.09375 C 2.90625 -0.09375 2.90625 -0.09375 2.90625 0.171875 L 2.90625 5.8125 C 2.90625 6.078125 2.90625 6.078125 3.1875 6.078125 L 3.734375 6.078125 C 4 6.078125 4 6.078125 4 5.8125 Z M 4 0.171875 "/>
</symbol>
<symbol overflow="visible" id="glyph5-0">
<path style="stroke:none;" d=""/>
</symbol>
<symbol overflow="visible" id="glyph5-1">
<path style="stroke:none;" d="M 3.1875 -0.5 C 2.96875 -0.5 2.90625 -0.5 2.90625 -0.390625 L 2.90625 0 C 2.90625 6.09375 3.984375 9.65625 4.296875 10.671875 C 4.96875 12.875 6.078125 15.21875 7.75 17.265625 C 7.890625 17.453125 7.9375 17.5 7.96875 17.515625 C 8 17.53125 8 17.53125 8.171875 17.53125 C 8.328125 17.53125 8.390625 17.53125 8.390625 17.4375 C 8.390625 17.421875 8.390625 17.390625 8.328125 17.3125 C 5.015625 12.703125 4.015625 7.15625 4 -0.359375 C 4 -0.5 3.953125 -0.5 3.734375 -0.5 Z M 3.1875 -0.5 "/>
</symbol>
<symbol overflow="visible" id="glyph6-0">
<path style="stroke:none;" d=""/>
</symbol>
<symbol overflow="visible" id="glyph6-1">
<path style="stroke:none;" d="M 4.578125 -3.1875 C 4.578125 -3.984375 4.53125 -4.78125 4.1875 -5.515625 C 3.734375 -6.484375 2.90625 -6.640625 2.5 -6.640625 C 1.890625 -6.640625 1.171875 -6.375 0.75 -5.453125 C 0.4375 -4.765625 0.390625 -3.984375 0.390625 -3.1875 C 0.390625 -2.4375 0.421875 -1.546875 0.84375 -0.78125 C 1.265625 0.015625 2 0.21875 2.484375 0.21875 C 3.015625 0.21875 3.78125 0.015625 4.21875 -0.9375 C 4.53125 -1.625 4.578125 -2.40625 4.578125 -3.1875 Z M 2.484375 0 C 2.09375 0 1.5 -0.25 1.328125 -1.203125 C 1.21875 -1.796875 1.21875 -2.71875 1.21875 -3.3125 C 1.21875 -3.953125 1.21875 -4.609375 1.296875 -5.140625 C 1.484375 -6.328125 2.234375 -6.421875 2.484375 -6.421875 C 2.8125 -6.421875 3.46875 -6.234375 3.65625 -5.25 C 3.765625 -4.6875 3.765625 -3.9375 3.765625 -3.3125 C 3.765625 -2.5625 3.765625 -1.890625 3.65625 -1.25 C 3.5 -0.296875 2.9375 0 2.484375 0 Z M 2.484375 0 "/>
</symbol>
<symbol overflow="visible" id="glyph7-0">
<path style="stroke:none;" d=""/>
</symbol>
<symbol overflow="visible" id="glyph7-1">
<path style="stroke:none;" d="M 5.15625 -2.21875 L 4.6875 -2.21875 C 4.65625 -2.015625 4.5625 -1.375 4.421875 -1.3125 C 4.3125 -1.25 3.5625 -1.25 3.40625 -1.25 L 1.9375 -1.25 C 2.40625 -1.640625 2.9375 -2.0625 3.375 -2.390625 C 4.515625 -3.234375 5.15625 -3.703125 5.15625 -4.640625 C 5.15625 -5.796875 4.109375 -6.53125 2.71875 -6.53125 C 1.5 -6.53125 0.5625 -5.90625 0.5625 -5.015625 C 0.5625 -4.421875 1.046875 -4.28125 1.28125 -4.28125 C 1.609375 -4.28125 2 -4.5 2 -5 C 2 -5.515625 1.578125 -5.671875 1.4375 -5.71875 C 1.71875 -5.953125 2.109375 -6.0625 2.46875 -6.0625 C 3.3125 -6.0625 3.78125 -5.390625 3.78125 -4.640625 C 3.78125 -3.953125 3.40625 -3.265625 2.703125 -2.5625 L 0.703125 -0.515625 C 0.5625 -0.40625 0.5625 -0.375 0.5625 -0.171875 L 0.5625 0 L 4.84375 0 Z M 5.15625 -2.21875 "/>
</symbol>
<symbol overflow="visible" id="glyph8-0">
<path style="stroke:none;" d=""/>
</symbol>
<symbol overflow="visible" id="glyph8-1">
<path style="stroke:none;" d="M 2.9375 -6.375 C 2.9375 -6.625 2.9375 -6.640625 2.703125 -6.640625 C 2.078125 -6 1.203125 -6 0.890625 -6 L 0.890625 -5.6875 C 1.09375 -5.6875 1.671875 -5.6875 2.1875 -5.953125 L 2.1875 -0.78125 C 2.1875 -0.421875 2.15625 -0.3125 1.265625 -0.3125 L 0.953125 -0.3125 L 0.953125 0 C 1.296875 -0.03125 2.15625 -0.03125 2.5625 -0.03125 C 2.953125 -0.03125 3.828125 -0.03125 4.171875 0 L 4.171875 -0.3125 L 3.859375 -0.3125 C 2.953125 -0.3125 2.9375 -0.421875 2.9375 -0.78125 Z M 2.9375 -6.375 "/>
</symbol>
<symbol overflow="visible" id="glyph9-0">
<path style="stroke:none;" d=""/>
</symbol>
<symbol overflow="visible" id="glyph9-1">
<path style="stroke:none;" d="M 6.5625 -2.296875 C 6.734375 -2.296875 6.921875 -2.296875 6.921875 -2.5 C 6.921875 -2.6875 6.734375 -2.6875 6.5625 -2.6875 L 1.171875 -2.6875 C 1 -2.6875 0.828125 -2.6875 0.828125 -2.5 C 0.828125 -2.296875 1 -2.296875 1.171875 -2.296875 Z M 6.5625 -2.296875 "/>
</symbol>
<symbol overflow="visible" id="glyph10-0">
<path style="stroke:none;" d=""/>
</symbol>
<symbol overflow="visible" id="glyph10-1">
<path style="stroke:none;" d="M 2.9375 -6.375 C 2.9375 -6.625 2.9375 -6.640625 2.703125 -6.640625 C 2.078125 -6 1.203125 -6 0.890625 -6 L 0.890625 -5.6875 C 1.09375 -5.6875 1.671875 -5.6875 2.1875 -5.953125 L 2.1875 -0.78125 C 2.1875 -0.421875 2.15625 -0.3125 1.265625 -0.3125 L 0.953125 -0.3125 L 0.953125 0 C 1.296875 -0.03125 2.15625 -0.03125 2.5625 -0.03125 C 2.953125 -0.03125 3.828125 -0.03125 4.171875 0 L 4.171875 -0.3125 L 3.859375 -0.3125 C 2.953125 -0.3125 2.9375 -0.421875 2.9375 -0.78125 Z M 2.9375 -6.375 "/>
</symbol>
<symbol overflow="visible" id="glyph10-2">
<path style="stroke:none;" d="M 4.578125 -3.1875 C 4.578125 -3.984375 4.53125 -4.78125 4.1875 -5.515625 C 3.734375 -6.484375 2.90625 -6.640625 2.5 -6.640625 C 1.890625 -6.640625 1.171875 -6.375 0.75 -5.453125 C 0.4375 -4.765625 0.390625 -3.984375 0.390625 -3.1875 C 0.390625 -2.4375 0.421875 -1.546875 0.84375 -0.78125 C 1.265625 0.015625 2 0.21875 2.484375 0.21875 C 3.015625 0.21875 3.78125 0.015625 4.21875 -0.9375 C 4.53125 -1.625 4.578125 -2.40625 4.578125 -3.1875 Z M 2.484375 0 C 2.09375 0 1.5 -0.25 1.328125 -1.203125 C 1.21875 -1.796875 1.21875 -2.71875 1.21875 -3.3125 C 1.21875 -3.953125 1.21875 -4.609375 1.296875 -5.140625 C 1.484375 -6.328125 2.234375 -6.421875 2.484375 -6.421875 C 2.8125 -6.421875 3.46875 -6.234375 3.65625 -5.25 C 3.765625 -4.6875 3.765625 -3.9375 3.765625 -3.3125 C 3.765625 -2.5625 3.765625 -1.890625 3.65625 -1.25 C 3.5 -0.296875 2.9375 0 2.484375 0 Z M 2.484375 0 "/>
</symbol>
<symbol overflow="visible" id="glyph11-0">
<path style="stroke:none;" d=""/>
</symbol>
<symbol overflow="visible" id="glyph11-1">
<path style="stroke:none;" d="M 4.578125 -3.1875 C 4.578125 -3.984375 4.53125 -4.78125 4.1875 -5.515625 C 3.734375 -6.484375 2.90625 -6.640625 2.5 -6.640625 C 1.890625 -6.640625 1.171875 -6.375 0.75 -5.453125 C 0.4375 -4.765625 0.390625 -3.984375 0.390625 -3.1875 C 0.390625 -2.4375 0.421875 -1.546875 0.84375 -0.78125 C 1.265625 0.015625 2 0.21875 2.484375 0.21875 C 3.015625 0.21875 3.78125 0.015625 4.21875 -0.9375 C 4.53125 -1.625 4.578125 -2.40625 4.578125 -3.1875 Z M 2.484375 0 C 2.09375 0 1.5 -0.25 1.328125 -1.203125 C 1.21875 -1.796875 1.21875 -2.71875 1.21875 -3.3125 C 1.21875 -3.953125 1.21875 -4.609375 1.296875 -5.140625 C 1.484375 -6.328125 2.234375 -6.421875 2.484375 -6.421875 C 2.8125 -6.421875 3.46875 -6.234375 3.65625 -5.25 C 3.765625 -4.6875 3.765625 -3.9375 3.765625 -3.3125 C 3.765625 -2.5625 3.765625 -1.890625 3.65625 -1.25 C 3.5 -0.296875 2.9375 0 2.484375 0 Z M 2.484375 0 "/>
</symbol>
<symbol overflow="visible" id="glyph12-0">
<path style="stroke:none;" d=""/>
</symbol>
<symbol overflow="visible" id="glyph12-1">
<path style="stroke:none;" d="M 4.578125 -3.1875 C 4.578125 -3.984375 4.53125 -4.78125 4.1875 -5.515625 C 3.734375 -6.484375 2.90625 -6.640625 2.5 -6.640625 C 1.890625 -6.640625 1.171875 -6.375 0.75 -5.453125 C 0.4375 -4.765625 0.390625 -3.984375 0.390625 -3.1875 C 0.390625 -2.4375 0.421875 -1.546875 0.84375 -0.78125 C 1.265625 0.015625 2 0.21875 2.484375 0.21875 C 3.015625 0.21875 3.78125 0.015625 4.21875 -0.9375 C 4.53125 -1.625 4.578125 -2.40625 4.578125 -3.1875 Z M 2.484375 0 C 2.09375 0 1.5 -0.25 1.328125 -1.203125 C 1.21875 -1.796875 1.21875 -2.71875 1.21875 -3.3125 C 1.21875 -3.953125 1.21875 -4.609375 1.296875 -5.140625 C 1.484375 -6.328125 2.234375 -6.421875 2.484375 -6.421875 C 2.8125 -6.421875 3.46875 -6.234375 3.65625 -5.25 C 3.765625 -4.6875 3.765625 -3.9375 3.765625 -3.3125 C 3.765625 -2.5625 3.765625 -1.890625 3.65625 -1.25 C 3.5 -0.296875 2.9375 0 2.484375 0 Z M 2.484375 0 "/>
</symbol>
<symbol overflow="visible" id="glyph13-0">
<path style="stroke:none;" d=""/>
</symbol>
<symbol overflow="visible" id="glyph13-1">
<path style="stroke:none;" d="M 4.578125 -3.1875 C 4.578125 -3.984375 4.53125 -4.78125 4.1875 -5.515625 C 3.734375 -6.484375 2.90625 -6.640625 2.5 -6.640625 C 1.890625 -6.640625 1.171875 -6.375 0.75 -5.453125 C 0.4375 -4.765625 0.390625 -3.984375 0.390625 -3.1875 C 0.390625 -2.4375 0.421875 -1.546875 0.84375 -0.78125 C 1.265625 0.015625 2 0.21875 2.484375 0.21875 C 3.015625 0.21875 3.78125 0.015625 4.21875 -0.9375 C 4.53125 -1.625 4.578125 -2.40625 4.578125 -3.1875 Z M 2.484375 0 C 2.09375 0 1.5 -0.25 1.328125 -1.203125 C 1.21875 -1.796875 1.21875 -2.71875 1.21875 -3.3125 C 1.21875 -3.953125 1.21875 -4.609375 1.296875 -5.140625 C 1.484375 -6.328125 2.234375 -6.421875 2.484375 -6.421875 C 2.8125 -6.421875 3.46875 -6.234375 3.65625 -5.25 C 3.765625 -4.6875 3.765625 -3.9375 3.765625 -3.3125 C 3.765625 -2.5625 3.765625 -1.890625 3.65625 -1.25 C 3.5 -0.296875 2.9375 0 2.484375 0 Z M 2.484375 0 "/>
</symbol>
<symbol overflow="visible" id="glyph14-0">
<path style="stroke:none;" d=""/>
</symbol>
<symbol overflow="visible" id="glyph14-1">
<path style="stroke:none;" d="M 3.515625 -3.515625 C 4.203125 -3.71875 4.921875 -4.28125 4.921875 -5.140625 C 4.921875 -5.90625 4.171875 -6.53125 2.765625 -6.53125 C 1.578125 -6.53125 0.796875 -5.890625 0.796875 -5.09375 C 0.796875 -4.671875 1.109375 -4.390625 1.484375 -4.390625 C 1.9375 -4.390625 2.1875 -4.71875 2.1875 -5.078125 C 2.1875 -5.65625 1.640625 -5.765625 1.609375 -5.78125 C 1.953125 -6.0625 2.390625 -6.140625 2.703125 -6.140625 C 3.53125 -6.140625 3.5625 -5.5 3.5625 -5.171875 C 3.5625 -5.046875 3.546875 -3.734375 2.515625 -3.671875 C 2.109375 -3.65625 2.078125 -3.65625 2.03125 -3.640625 C 1.9375 -3.625 1.90625 -3.53125 1.90625 -3.46875 C 1.90625 -3.296875 2.015625 -3.296875 2.1875 -3.296875 L 2.625 -3.296875 C 3.71875 -3.296875 3.71875 -2.3125 3.71875 -1.796875 C 3.71875 -1.328125 3.71875 -0.3125 2.6875 -0.3125 C 2.421875 -0.3125 1.90625 -0.359375 1.421875 -0.65625 C 1.75 -0.75 2 -1 2 -1.40625 C 2 -1.859375 1.6875 -2.15625 1.25 -2.15625 C 0.828125 -2.15625 0.484375 -1.890625 0.484375 -1.390625 C 0.484375 -0.484375 1.453125 0.109375 2.734375 0.109375 C 4.515625 0.109375 5.25 -0.890625 5.25 -1.796875 C 5.25 -2.34375 4.953125 -3.203125 3.515625 -3.515625 Z M 3.515625 -3.515625 "/>
</symbol>
<symbol overflow="visible" id="glyph15-0">
<path style="stroke:none;" d=""/>
</symbol>
<symbol overflow="visible" id="glyph15-1">
<path style="stroke:none;" d="M 2.9375 -6.375 C 2.9375 -6.625 2.9375 -6.640625 2.703125 -6.640625 C 2.078125 -6 1.203125 -6 0.890625 -6 L 0.890625 -5.6875 C 1.09375 -5.6875 1.671875 -5.6875 2.1875 -5.953125 L 2.1875 -0.78125 C 2.1875 -0.421875 2.15625 -0.3125 1.265625 -0.3125 L 0.953125 -0.3125 L 0.953125 0 C 1.296875 -0.03125 2.15625 -0.03125 2.5625 -0.03125 C 2.953125 -0.03125 3.828125 -0.03125 4.171875 0 L 4.171875 -0.3125 L 3.859375 -0.3125 C 2.953125 -0.3125 2.9375 -0.421875 2.9375 -0.78125 Z M 2.9375 -6.375 "/>
</symbol>
<symbol overflow="visible" id="glyph16-0">
<path style="stroke:none;" d=""/>
</symbol>
<symbol overflow="visible" id="glyph16-1">
<path style="stroke:none;" d="M 4.578125 -3.1875 C 4.578125 -3.984375 4.53125 -4.78125 4.1875 -5.515625 C 3.734375 -6.484375 2.90625 -6.640625 2.5 -6.640625 C 1.890625 -6.640625 1.171875 -6.375 0.75 -5.453125 C 0.4375 -4.765625 0.390625 -3.984375 0.390625 -3.1875 C 0.390625 -2.4375 0.421875 -1.546875 0.84375 -0.78125 C 1.265625 0.015625 2 0.21875 2.484375 0.21875 C 3.015625 0.21875 3.78125 0.015625 4.21875 -0.9375 C 4.53125 -1.625 4.578125 -2.40625 4.578125 -3.1875 Z M 2.484375 0 C 2.09375 0 1.5 -0.25 1.328125 -1.203125 C 1.21875 -1.796875 1.21875 -2.71875 1.21875 -3.3125 C 1.21875 -3.953125 1.21875 -4.609375 1.296875 -5.140625 C 1.484375 -6.328125 2.234375 -6.421875 2.484375 -6.421875 C 2.8125 -6.421875 3.46875 -6.234375 3.65625 -5.25 C 3.765625 -4.6875 3.765625 -3.9375 3.765625 -3.3125 C 3.765625 -2.5625 3.765625 -1.890625 3.65625 -1.25 C 3.5 -0.296875 2.9375 0 2.484375 0 Z M 2.484375 0 "/>
</symbol>
<symbol overflow="visible" id="glyph17-0">
<path style="stroke:none;" d=""/>
</symbol>
<symbol overflow="visible" id="glyph17-1">
<path style="stroke:none;" d="M 4.578125 -3.1875 C 4.578125 -3.984375 4.53125 -4.78125 4.1875 -5.515625 C 3.734375 -6.484375 2.90625 -6.640625 2.5 -6.640625 C 1.890625 -6.640625 1.171875 -6.375 0.75 -5.453125 C 0.4375 -4.765625 0.390625 -3.984375 0.390625 -3.1875 C 0.390625 -2.4375 0.421875 -1.546875 0.84375 -0.78125 C 1.265625 0.015625 2 0.21875 2.484375 0.21875 C 3.015625 0.21875 3.78125 0.015625 4.21875 -0.9375 C 4.53125 -1.625 4.578125 -2.40625 4.578125 -3.1875 Z M 2.484375 0 C 2.09375 0 1.5 -0.25 1.328125 -1.203125 C 1.21875 -1.796875 1.21875 -2.71875 1.21875 -3.3125 C 1.21875 -3.953125 1.21875 -4.609375 1.296875 -5.140625 C 1.484375 -6.328125 2.234375 -6.421875 2.484375 -6.421875 C 2.8125 -6.421875 3.46875 -6.234375 3.65625 -5.25 C 3.765625 -4.6875 3.765625 -3.9375 3.765625 -3.3125 C 3.765625 -2.5625 3.765625 -1.890625 3.65625 -1.25 C 3.5 -0.296875 2.9375 0 2.484375 0 Z M 2.484375 0 "/>
</symbol>
<symbol overflow="visible" id="glyph18-0">
<path style="stroke:none;" d=""/>
</symbol>
<symbol overflow="visible" id="glyph18-1">
<path style="stroke:none;" d="M 4.578125 -3.1875 C 4.578125 -3.984375 4.53125 -4.78125 4.1875 -5.515625 C 3.734375 -6.484375 2.90625 -6.640625 2.5 -6.640625 C 1.890625 -6.640625 1.171875 -6.375 0.75 -5.453125 C 0.4375 -4.765625 0.390625 -3.984375 0.390625 -3.1875 C 0.390625 -2.4375 0.421875 -1.546875 0.84375 -0.78125 C 1.265625 0.015625 2 0.21875 2.484375 0.21875 C 3.015625 0.21875 3.78125 0.015625 4.21875 -0.9375 C 4.53125 -1.625 4.578125 -2.40625 4.578125 -3.1875 Z M 2.484375 0 C 2.09375 0 1.5 -0.25 1.328125 -1.203125 C 1.21875 -1.796875 1.21875 -2.71875 1.21875 -3.3125 C 1.21875 -3.953125 1.21875 -4.609375 1.296875 -5.140625 C 1.484375 -6.328125 2.234375 -6.421875 2.484375 -6.421875 C 2.8125 -6.421875 3.46875 -6.234375 3.65625 -5.25 C 3.765625 -4.6875 3.765625 -3.9375 3.765625 -3.3125 C 3.765625 -2.5625 3.765625 -1.890625 3.65625 -1.25 C 3.5 -0.296875 2.9375 0 2.484375 0 Z M 2.484375 0 "/>
</symbol>
<symbol overflow="visible" id="glyph19-0">
<path style="stroke:none;" d=""/>
</symbol>
<symbol overflow="visible" id="glyph19-1">
<path style="stroke:none;" d="M 4.578125 -3.1875 C 4.578125 -3.984375 4.53125 -4.78125 4.1875 -5.515625 C 3.734375 -6.484375 2.90625 -6.640625 2.5 -6.640625 C 1.890625 -6.640625 1.171875 -6.375 0.75 -5.453125 C 0.4375 -4.765625 0.390625 -3.984375 0.390625 -3.1875 C 0.390625 -2.4375 0.421875 -1.546875 0.84375 -0.78125 C 1.265625 0.015625 2 0.21875 2.484375 0.21875 C 3.015625 0.21875 3.78125 0.015625 4.21875 -0.9375 C 4.53125 -1.625 4.578125 -2.40625 4.578125 -3.1875 Z M 2.484375 0 C 2.09375 0 1.5 -0.25 1.328125 -1.203125 C 1.21875 -1.796875 1.21875 -2.71875 1.21875 -3.3125 C 1.21875 -3.953125 1.21875 -4.609375 1.296875 -5.140625 C 1.484375 -6.328125 2.234375 -6.421875 2.484375 -6.421875 C 2.8125 -6.421875 3.46875 -6.234375 3.65625 -5.25 C 3.765625 -4.6875 3.765625 -3.9375 3.765625 -3.3125 C 3.765625 -2.5625 3.765625 -1.890625 3.65625 -1.25 C 3.5 -0.296875 2.9375 0 2.484375 0 Z M 2.484375 0 "/>
</symbol>
<symbol overflow="visible" id="glyph20-0">
<path style="stroke:none;" d=""/>
</symbol>
<symbol overflow="visible" id="glyph20-1">
<path style="stroke:none;" d="M 6.5625 -2.296875 C 6.734375 -2.296875 6.921875 -2.296875 6.921875 -2.5 C 6.921875 -2.6875 6.734375 -2.6875 6.5625 -2.6875 L 1.171875 -2.6875 C 1 -2.6875 0.828125 -2.6875 0.828125 -2.5 C 0.828125 -2.296875 1 -2.296875 1.171875 -2.296875 Z M 6.5625 -2.296875 "/>
</symbol>
<symbol overflow="visible" id="glyph21-0">
<path style="stroke:none;" d=""/>
</symbol>
<symbol overflow="visible" id="glyph21-1">
<path style="stroke:none;" d="M 3.53125 -6.203125 C 3.53125 -6.4375 3.53125 -6.53125 3.265625 -6.53125 C 3.15625 -6.53125 3.140625 -6.53125 3.046875 -6.453125 C 2.28125 -5.890625 1.25 -5.890625 1.046875 -5.890625 L 0.84375 -5.890625 L 0.84375 -5.421875 L 1.046875 -5.421875 C 1.203125 -5.421875 1.75 -5.4375 2.34375 -5.625 L 2.34375 -0.46875 L 0.953125 -0.46875 L 0.953125 0 C 1.390625 -0.03125 2.453125 -0.03125 2.9375 -0.03125 C 3.421875 -0.03125 4.484375 -0.03125 4.921875 0 L 4.921875 -0.46875 L 3.53125 -0.46875 Z M 3.53125 -6.203125 "/>
</symbol>
<symbol overflow="visible" id="glyph22-0">
<path style="stroke:none;" d=""/>
</symbol>
<symbol overflow="visible" id="glyph22-1">
<path style="stroke:none;" d="M 4.578125 -3.1875 C 4.578125 -3.984375 4.53125 -4.78125 4.1875 -5.515625 C 3.734375 -6.484375 2.90625 -6.640625 2.5 -6.640625 C 1.890625 -6.640625 1.171875 -6.375 0.75 -5.453125 C 0.4375 -4.765625 0.390625 -3.984375 0.390625 -3.1875 C 0.390625 -2.4375 0.421875 -1.546875 0.84375 -0.78125 C 1.265625 0.015625 2 0.21875 2.484375 0.21875 C 3.015625 0.21875 3.78125 0.015625 4.21875 -0.9375 C 4.53125 -1.625 4.578125 -2.40625 4.578125 -3.1875 Z M 2.484375 0 C 2.09375 0 1.5 -0.25 1.328125 -1.203125 C 1.21875 -1.796875 1.21875 -2.71875 1.21875 -3.3125 C 1.21875 -3.953125 1.21875 -4.609375 1.296875 -5.140625 C 1.484375 -6.328125 2.234375 -6.421875 2.484375 -6.421875 C 2.8125 -6.421875 3.46875 -6.234375 3.65625 -5.25 C 3.765625 -4.6875 3.765625 -3.9375 3.765625 -3.3125 C 3.765625 -2.5625 3.765625 -1.890625 3.65625 -1.25 C 3.5 -0.296875 2.9375 0 2.484375 0 Z M 2.484375 0 "/>
</symbol>
<symbol overflow="visible" id="glyph23-0">
<path style="stroke:none;" d=""/>
</symbol>
<symbol overflow="visible" id="glyph23-1">
<path style="stroke:none;" d="M 4.578125 -3.1875 C 4.578125 -3.984375 4.53125 -4.78125 4.1875 -5.515625 C 3.734375 -6.484375 2.90625 -6.640625 2.5 -6.640625 C 1.890625 -6.640625 1.171875 -6.375 0.75 -5.453125 C 0.4375 -4.765625 0.390625 -3.984375 0.390625 -3.1875 C 0.390625 -2.4375 0.421875 -1.546875 0.84375 -0.78125 C 1.265625 0.015625 2 0.21875 2.484375 0.21875 C 3.015625 0.21875 3.78125 0.015625 4.21875 -0.9375 C 4.53125 -1.625 4.578125 -2.40625 4.578125 -3.1875 Z M 2.484375 0 C 2.09375 0 1.5 -0.25 1.328125 -1.203125 C 1.21875 -1.796875 1.21875 -2.71875 1.21875 -3.3125 C 1.21875 -3.953125 1.21875 -4.609375 1.296875 -5.140625 C 1.484375 -6.328125 2.234375 -6.421875 2.484375 -6.421875 C 2.8125 -6.421875 3.46875 -6.234375 3.65625 -5.25 C 3.765625 -4.6875 3.765625 -3.9375 3.765625 -3.3125 C 3.765625 -2.5625 3.765625 -1.890625 3.65625 -1.25 C 3.5 -0.296875 2.9375 0 2.484375 0 Z M 2.484375 0 "/>
</symbol>
<symbol overflow="visible" id="glyph24-0">
<path style="stroke:none;" d=""/>
</symbol>
<symbol overflow="visible" id="glyph24-1">
<path style="stroke:none;" d="M 5.8125 17.140625 C 5.8125 11.0625 4.71875 7.484375 4.421875 6.484375 C 3.734375 4.265625 2.625 1.9375 0.96875 -0.125 C 0.8125 -0.296875 0.78125 -0.34375 0.734375 -0.375 C 0.71875 -0.375 0.703125 -0.390625 0.546875 -0.390625 C 0.40625 -0.390625 0.3125 -0.390625 0.3125 -0.296875 C 0.3125 -0.265625 0.3125 -0.25 0.453125 -0.0625 C 3.921875 4.78125 4.6875 10.75 4.703125 17.5 C 4.703125 17.640625 4.765625 17.640625 4.984375 17.640625 L 5.53125 17.640625 C 5.734375 17.640625 5.796875 17.640625 5.8125 17.53125 Z M 5.8125 17.140625 "/>
</symbol>
<symbol overflow="visible" id="glyph25-0">
<path style="stroke:none;" d=""/>
</symbol>
<symbol overflow="visible" id="glyph25-1">
<path style="stroke:none;" d="M 5.8125 0.171875 C 5.8125 -0.09375 5.796875 -0.09375 5.53125 -0.09375 L 4.984375 -0.09375 C 4.71875 -0.09375 4.703125 -0.09375 4.703125 0.171875 L 4.703125 5.8125 C 4.703125 6.078125 4.71875 6.078125 4.984375 6.078125 L 5.53125 6.078125 C 5.796875 6.078125 5.8125 6.078125 5.8125 5.8125 Z M 5.8125 0.171875 "/>
</symbol>
<symbol overflow="visible" id="glyph26-0">
<path style="stroke:none;" d=""/>
</symbol>
<symbol overflow="visible" id="glyph26-1">
<path style="stroke:none;" d="M 5.8125 0.171875 C 5.8125 -0.09375 5.796875 -0.09375 5.53125 -0.09375 L 4.984375 -0.09375 C 4.71875 -0.09375 4.703125 -0.09375 4.703125 0.171875 L 4.703125 5.8125 C 4.703125 6.078125 4.71875 6.078125 4.984375 6.078125 L 5.53125 6.078125 C 5.796875 6.078125 5.8125 6.078125 5.8125 5.8125 Z M 5.8125 0.171875 "/>
</symbol>
<symbol overflow="visible" id="glyph27-0">
<path style="stroke:none;" d=""/>
</symbol>
<symbol overflow="visible" id="glyph27-1">
<path style="stroke:none;" d="M 5.8125 0.171875 C 5.8125 -0.09375 5.796875 -0.09375 5.53125 -0.09375 L 4.984375 -0.09375 C 4.71875 -0.09375 4.703125 -0.09375 4.703125 0.171875 L 4.703125 5.8125 C 4.703125 6.078125 4.71875 6.078125 4.984375 6.078125 L 5.53125 6.078125 C 5.796875 6.078125 5.8125 6.078125 5.8125 5.8125 Z M 5.8125 0.171875 "/>
</symbol>
<symbol overflow="visible" id="glyph28-0">
<path style="stroke:none;" d=""/>
</symbol>
<symbol overflow="visible" id="glyph28-1">
<path style="stroke:none;" d="M 5.8125 0.171875 C 5.8125 -0.09375 5.796875 -0.09375 5.53125 -0.09375 L 4.984375 -0.09375 C 4.71875 -0.09375 4.703125 -0.09375 4.703125 0.171875 L 4.703125 5.8125 C 4.703125 6.078125 4.71875 6.078125 4.984375 6.078125 L 5.53125 6.078125 C 5.796875 6.078125 5.8125 6.078125 5.8125 5.8125 Z M 5.8125 0.171875 "/>
</symbol>
<symbol overflow="visible" id="glyph29-0">
<path style="stroke:none;" d=""/>
</symbol>
<symbol overflow="visible" id="glyph29-1">
<path style="stroke:none;" d="M 5.8125 -0.390625 C 5.796875 -0.5 5.734375 -0.5 5.53125 -0.5 L 4.984375 -0.5 C 4.765625 -0.5 4.703125 -0.5 4.703125 -0.359375 C 4.703125 0.671875 4.6875 3.046875 4.4375 5.515625 C 3.890625 10.671875 2.578125 14.25 0.390625 17.3125 C 0.3125 17.390625 0.3125 17.421875 0.3125 17.4375 C 0.3125 17.53125 0.40625 17.53125 0.546875 17.53125 C 0.703125 17.53125 0.734375 17.53125 0.75 17.515625 C 0.78125 17.484375 2.046875 16.03125 3.0625 14.03125 C 4.375 11.390625 5.203125 8.375 5.578125 4.75 C 5.609375 4.4375 5.8125 2.359375 5.8125 0 Z M 5.8125 -0.390625 "/>
</symbol>
</g>
</defs>
<g id="surface25273">
<path style=" stroke:none;fill-rule:evenodd;fill:rgb(100%,75.3%,79.6%);fill-opacity:1;" d="M 93 2 L 21 2 L 21 14 L 53 14 L 53 26 L 73 26 L 73 38 L 97 38 L 97 14 "/>
<path style=" stroke:none;fill-rule:evenodd;fill:rgb(87.8%,100%,100%);fill-opacity:1;" d="M 9 2 L 21 2 L 21 14 L 53 14 L 53 26 L 73 26 L 73 38 L 5 38 L 5 10 "/>
<g style="fill:rgb(0%,0%,0%);fill-opacity:1;">
  <use xlink:href="#glyph0-1" x="1" y="2.052"/>
</g>
<g style="fill:rgb(0%,0%,0%);fill-opacity:1;">
  <use xlink:href="#glyph1-1" x="1" y="19.586"/>
</g>
<g style="fill:rgb(0%,0%,0%);fill-opacity:1;">
  <use xlink:href="#glyph2-1" x="1" y="25.564"/>
</g>
<g style="fill:rgb(0%,0%,0%);fill-opacity:1;">
  <use xlink:href="#glyph3-1" x="1" y="31.542"/>
</g>
<g style="fill:rgb(0%,0%,0%);fill-opacity:1;">
  <use xlink:href="#glyph4-1" x="1" y="37.519"/>
</g>
<g style="fill:rgb(0%,0%,0%);fill-opacity:1;">
  <use xlink:href="#glyph5-1" x="1" y="43.896"/>
</g>
<g style="fill:rgb(0%,0%,100%);fill-opacity:1;">
  <use xlink:href="#glyph6-1" x="9.717" y="10.022"/>
</g>
<g style="fill:rgb(100%,0%,0%);fill-opacity:1;">
  <use xlink:href="#glyph7-1" x="24.661" y="10.022"/>
</g>
<g style="fill:rgb(0%,0%,0%);fill-opacity:1;">
  <use xlink:href="#glyph8-1" x="40.352" y="10.022"/>
</g>
<g style="fill:rgb(0%,0%,0%);fill-opacity:1;">
  <use xlink:href="#glyph9-1" x="55.296" y="10.022"/>
</g>
<g style="fill:rgb(0%,0%,0%);fill-opacity:1;">
  <use xlink:href="#glyph10-1" x="63.045" y="10.022"/>
  <use xlink:href="#glyph10-2" x="82.232968" y="10.022"/>
</g>
<g style="fill:rgb(0%,0%,100%);fill-opacity:1;">
  <use xlink:href="#glyph11-1" x="9.717" y="21.978"/>
</g>
<g style="fill:rgb(0%,0%,100%);fill-opacity:1;">
  <use xlink:href="#glyph12-1" x="25.039479" y="21.978"/>
</g>
<g style="fill:rgb(0%,0%,100%);fill-opacity:1;">
  <use xlink:href="#glyph13-1" x="40.351995" y="21.978"/>
</g>
<g style="fill:rgb(100%,0%,0%);fill-opacity:1;">
  <use xlink:href="#glyph14-1" x="58.797" y="21.978"/>
</g>
<g style="fill:rgb(0%,0%,0%);fill-opacity:1;">
  <use xlink:href="#glyph15-1" x="82.237" y="21.978"/>
</g>
<g style="fill:rgb(0%,0%,100%);fill-opacity:1;">
  <use xlink:href="#glyph16-1" x="9.717" y="33.933"/>
</g>
<g style="fill:rgb(0%,0%,100%);fill-opacity:1;">
  <use xlink:href="#glyph17-1" x="25.039479" y="33.933"/>
</g>
<g style="fill:rgb(0%,0%,100%);fill-opacity:1;">
  <use xlink:href="#glyph18-1" x="40.351995" y="33.933"/>
</g>
<g style="fill:rgb(0%,0%,100%);fill-opacity:1;">
  <use xlink:href="#glyph19-1" x="59.171346" y="33.933"/>
</g>
<g style="fill:rgb(100%,0%,0%);fill-opacity:1;">
  <use xlink:href="#glyph20-1" x="77.989" y="33.933"/>
</g>
<g style="fill:rgb(100%,0%,0%);fill-opacity:1;">
  <use xlink:href="#glyph21-1" x="85.738" y="33.933"/>
</g>
<g style="fill:rgb(0%,0%,0%);fill-opacity:1;">
  <use xlink:href="#glyph22-1" x="9.717" y="45.888"/>
  <use xlink:href="#glyph22-1" x="25.039479" y="45.888"/>
  <use xlink:href="#glyph22-1" x="40.351995" y="45.888"/>
  <use xlink:href="#glyph22-1" x="59.171346" y="45.888"/>
  <use xlink:href="#glyph22-1" x="82.234765" y="45.888"/>
</g>
<g style="fill:rgb(0%,0%,0%);fill-opacity:1;">
  <use xlink:href="#glyph23-1" x="9.717" y="57.843"/>
  <use xlink:href="#glyph23-1" x="25.039479" y="57.843"/>
  <use xlink:href="#glyph23-1" x="40.351995" y="57.843"/>
  <use xlink:href="#glyph23-1" x="59.171346" y="57.843"/>
  <use xlink:href="#glyph23-1" x="82.234765" y="57.843"/>
</g>
<g style="fill:rgb(0%,0%,0%);fill-opacity:1;">
  <use xlink:href="#glyph24-1" x="91.466" y="2.052"/>
</g>
<g style="fill:rgb(0%,0%,0%);fill-opacity:1;">
  <use xlink:href="#glyph25-1" x="91.466" y="19.587"/>
</g>
<g style="fill:rgb(0%,0%,0%);fill-opacity:1;">
  <use xlink:href="#glyph26-1" x="91.466" y="25.564"/>
</g>
<g style="fill:rgb(0%,0%,0%);fill-opacity:1;">
  <use xlink:href="#glyph27-1" x="91.466" y="31.542"/>
</g>
<g style="fill:rgb(0%,0%,0%);fill-opacity:1;">
  <use xlink:href="#glyph28-1" x="91.466" y="37.519"/>
</g>
<g style="fill:rgb(0%,0%,0%);fill-opacity:1;">
  <use xlink:href="#glyph29-1" x="91.466" y="43.896"/>
</g>
<path style="fill:none;stroke-width:0.4;stroke-linecap:butt;stroke-linejoin:round;stroke:rgb(0%,0%,100%);stroke-opacity:1;stroke-miterlimit:10;" d="M 216 752 L 228 752 L 228 740 L 260 740 L 260 728 L 280 728 L 280 716 L 304 716 " transform="matrix(1,0,0,-1,-207,754)"/>
</g>
</svg>
