<?xml version="1.0" encoding="UTF-8" standalone="no"?>
<!-- Created with Inkscape (http://www.inkscape.org/) -->

<svg
   xmlns:dc="http://purl.org/dc/elements/1.1/"
   xmlns:cc="http://creativecommons.org/ns#"
   xmlns:rdf="http://www.w3.org/1999/02/22-rdf-syntax-ns#"
   xmlns:svg="http://www.w3.org/2000/svg"
   xmlns="http://www.w3.org/2000/svg"
   xmlns:sodipodi="http://sodipodi.sourceforge.net/DTD/sodipodi-0.dtd"
   xmlns:inkscape="http://www.inkscape.org/namespaces/inkscape"
   version="1.0"
   width="635"
   height="340"
   viewBox="0 0 650 300"
   id="svg2"
   inkscape:version="0.48.4 r9939"
   sodipodi:docname="Gewinnschwelle_1.1.svg">
  <metadata
     id="metadata3045">
    <rdf:RDF>
      <cc:Work
         rdf:about="">
        <dc:format>image/svg+xml</dc:format>
        <dc:type
           rdf:resource="http://purl.org/dc/dcmitype/StillImage" />
        <dc:title></dc:title>
      </cc:Work>
    </rdf:RDF>
  </metadata>
  <sodipodi:namedview
     pagecolor="#ffffff"
     bordercolor="#666666"
     borderopacity="1"
     objecttolerance="10"
     gridtolerance="10"
     guidetolerance="10"
     inkscape:pageopacity="0"
     inkscape:pageshadow="2"
     inkscape:window-width="1920"
     inkscape:window-height="1018"
     id="namedview3043"
     showgrid="false"
     inkscape:snap-global="true"
     inkscape:zoom="2.4441176"
     inkscape:cx="367.47867"
     inkscape:cy="137.26835"
     inkscape:window-x="-8"
     inkscape:window-y="892"
     inkscape:window-maximized="1"
     inkscape:current-layer="svg2" />
  <defs
     id="defs4" />
  <g
     transform="matrix(1.1674091,0,0,1.1674091,-32.875525,282.16477)"
     id="g2185">
    <g
       transform="translate(-51.206896,-353.57142)"
       id="g2529">
      <path
         d="M 66.220703,57.574868 L 68.004883,57.574868 L 68.004883,65.546547 C 68.004879,66.952801 68.259762,67.966472 68.769531,68.587563 C 69.279292,69.202799 70.105463,69.510416 71.248047,69.510414 C 72.384758,69.510416 73.207999,69.202799 73.717773,68.587563 C 74.227529,67.966472 74.482412,66.952801 74.482422,65.546547 L 74.482422,57.574868 L 76.266602,57.574868 L 76.266602,65.766274 C 76.26659,67.477215 75.841786,68.769205 74.992188,69.64225 C 74.148428,70.515297 72.900382,70.95182 71.248047,70.951821 C 69.589839,70.95182 68.335934,70.515297 67.486328,69.64225 C 66.642576,68.769205 66.220702,67.477215 66.220703,65.766274 L 66.220703,57.574868"
         transform="translate(48.2427,196.98)"
         style="font-size:18px;font-style:normal;font-variant:normal;font-weight:normal;font-stretch:normal;text-align:start;line-height:100%;text-anchor:start;fill:#0055d4;font-family:Bitstream Vera Sans"
         id="flowRoot1915" />
      <path
         d="M 65.927734,56.870622 L 67.192383,56.870622 L 67.192383,63.152848 L 70.945312,59.851091 L 72.551758,59.851091 L 68.491211,63.433122 L 72.722656,67.507341 L 71.082031,67.507341 L 67.192383,63.768083 L 67.192383,67.507341 L 65.927734,67.507341 L 65.927734,56.870622 M 77.972656,56.870622 L 77.972656,57.91652 L 76.769531,57.91652 C 76.318356,57.91653 76.003903,58.007676 75.826172,58.189958 C 75.652992,58.372259 75.566403,58.700383 75.566406,59.174333 L 75.566406,59.851091 L 77.637695,59.851091 L 77.637695,60.82863 L 75.566406,60.82863 L 75.566406,67.507341 L 74.301758,67.507341 L 74.301758,60.82863 L 73.098633,60.82863 L 73.098633,59.851091 L 74.301758,59.851091 L 74.301758,59.317887 C 74.301756,58.465683 74.499998,57.845892 74.896484,57.458512 C 75.292966,57.066596 75.921872,56.870632 76.783203,56.870622 L 77.972656,56.870622"
         transform="translate(61.4762,205.183)"
         style="font-size:14px;font-style:normal;font-variant:normal;font-weight:normal;font-stretch:normal;text-align:start;line-height:100%;text-anchor:start;fill:#0055d4;font-family:Bitstream Vera Sans"
         id="flowRoot1927" />
    </g>
    <g
       transform="translate(-51.206896,-353.57142)"
       id="g2546">
      <path
         d="M 66.422852,57.574868 L 68.198242,57.574868 L 68.198242,63.120766 L 74.086914,57.574868 L 76.37207,57.574868 L 69.859375,63.692055 L 76.837891,70.696938 L 74.5,70.696938 L 68.198242,64.377602 L 68.198242,70.696938 L 66.422852,70.696938 L 66.422852,57.574868"
         transform="translate(34.0406,260.619)"
         style="font-size:18px;font-style:normal;font-variant:normal;font-weight:normal;font-stretch:normal;text-align:start;line-height:100%;text-anchor:start;font-family:Bitstream Vera Sans"
         id="flowRoot1935" />
      <path
         d="M 66.030273,57.301286 L 71.895508,57.301286 L 71.895508,58.463395 L 67.411133,58.463395 L 67.411133,61.471208 L 71.458008,61.471208 L 71.458008,62.633317 L 67.411133,62.633317 L 67.411133,67.507341 L 66.030273,67.507341 L 66.030273,57.301286"
         transform="translate(47.2741,268.823)"
         style="font-size:14px;font-style:normal;font-variant:normal;font-weight:normal;font-stretch:normal;text-align:start;line-height:100%;text-anchor:start;font-family:Bitstream Vera Sans"
         id="flowRoot1943" />
    </g>
    <g
       transform="translate(-51.206896,-353.57142)"
       id="g2542">
      <path
         d="M 74.535156,60.853188 L 70.975586,65.643227 L 74.719727,70.696938 L 72.8125,70.696938 L 69.947266,66.82975 L 67.082031,70.696938 L 65.174805,70.696938 L 68.998047,65.546547 L 65.5,60.853188 L 67.407227,60.853188 L 70.017578,64.360024 L 72.62793,60.853188 L 74.535156,60.853188"
         transform="translate(298.985,313.249)"
         style="font-size:18px;font-style:normal;font-variant:normal;font-weight:normal;font-stretch:normal;text-align:start;line-height:100%;text-anchor:start;fill:#0055d4;font-family:Bitstream Vera Sans"
         id="flowRoot1951" />
      <path
         d="M 65.927734,56.870622 L 67.192383,56.870622 L 67.192383,63.152848 L 70.945312,59.851091 L 72.551758,59.851091 L 68.491211,63.433122 L 72.722656,67.507341 L 71.082031,67.507341 L 67.192383,63.768083 L 67.192383,67.507341 L 65.927734,67.507341 L 65.927734,56.870622 M 77.972656,56.870622 L 77.972656,57.91652 L 76.769531,57.91652 C 76.318356,57.91653 76.003903,58.007676 75.826172,58.189958 C 75.652992,58.372259 75.566403,58.700383 75.566406,59.174333 L 75.566406,59.851091 L 77.637695,59.851091 L 77.637695,60.82863 L 75.566406,60.82863 L 75.566406,67.507341 L 74.301758,67.507341 L 74.301758,60.82863 L 73.098633,60.82863 L 73.098633,59.851091 L 74.301758,59.851091 L 74.301758,59.317887 C 74.301756,58.465683 74.499998,57.845892 74.896484,57.458512 C 75.292966,57.066596 75.921872,56.870632 76.783203,56.870622 L 77.972656,56.870622"
         transform="translate(312.218,321.452)"
         style="font-size:14px;font-style:normal;font-variant:normal;font-weight:normal;font-stretch:normal;text-align:start;line-height:100%;text-anchor:start;fill:#0055d4;font-family:Bitstream Vera Sans"
         id="flowRoot1959" />
    </g>
    <g
       transform="translate(-51.206896,-353.57142)"
       id="g4035">
      <path
         d="M 149.59375,354.9375 L 149.59375,357.75 L 627.375,357.75 L 627.375,354.9375 L 149.59375,354.9375 z "
         style="fill:#000000;fill-opacity:1;fill-rule:evenodd;stroke:none;stroke-width:2.83465004;stroke-linecap:butt;stroke-linejoin:miter;stroke-miterlimit:4;stroke-opacity:1"
         id="path1997" />
      <path
         d="M 616.04737,356.34677 L 610.37808,362.01606 L 630.2206,356.34677 L 610.37808,350.67748 L 616.04737,356.34677 z "
         style="fill-rule:evenodd;stroke:#000000;stroke-width:1.13386002pt;marker-start:none"
         id="path4041" />
    </g>
    <g
       transform="translate(-51.206896,-353.57142)"
       id="g4027">
      <path
         d="M 157.9375,133.21875 L 155.09375,133.25 L 157.09375,364.5625 L 159.9375,364.5625 L 157.9375,133.21875 z "
         style="fill:#000000;fill-opacity:1;fill-rule:evenodd;stroke:none;stroke-width:2.83465004;stroke-linecap:butt;stroke-linejoin:miter;stroke-miterlimit:4;stroke-opacity:1"
         id="path3066" />
      <path
         d="M 156.60398,144.57489 L 162.32257,150.19445 L 156.4802,130.4022 L 150.98442,150.29348 L 156.60398,144.57489 z "
         style="fill-rule:evenodd;stroke:#000000;stroke-width:1.13386002pt;marker-start:none"
         id="path4033" />
    </g>
    <path
       d="M 108.48854,-60.233784 L 582.82157,-117.70614"
       style="fill:#656565;fill-opacity:1;fill-rule:evenodd;stroke:#d40000;stroke-width:2;stroke-linecap:butt;stroke-linejoin:miter;marker-start:none;marker-end:none;stroke-miterlimit:4;stroke-dasharray:none;stroke-opacity:1"
       id="path3068" />
    <path
       d="M 109.56425,0.24348612 L 552.51272,-178.89768"
       style="fill:#656565;fill-opacity:1;fill-rule:evenodd;stroke:#00aa00;stroke-width:2;stroke-linecap:butt;stroke-linejoin:miter;marker-start:none;marker-end:none;stroke-miterlimit:4;stroke-dasharray:none;stroke-opacity:1"
       id="path3955" />
    <path
       d="M 96.601694,-86.296654 L 323.88601,-86.296654"
       style="fill:#0055d4;fill-opacity:1;fill-rule:evenodd;stroke:#0066ff;stroke-width:2;stroke-linecap:butt;stroke-linejoin:miter;marker-start:none;marker-end:none;stroke-miterlimit:4;stroke-dasharray:none;stroke-opacity:1"
       id="path3957" />
    <path
       d="M 323.73809,14.866536 L 323.73809,-87.158854"
       style="fill:#0055d4;fill-opacity:1;fill-rule:evenodd;stroke:#0066ff;stroke-width:2;stroke-linecap:butt;stroke-linejoin:miter;marker-start:none;marker-end:none;stroke-miterlimit:4;stroke-dasharray:none;stroke-opacity:1"
       id="path3959" />
    <path
       d="M 96.121104,2.2027861 C 96.121104,1.5627861 95.737104,1.5627861 95.097104,1.4987861 C 90.041114,1.1787861 87.673104,-1.7012139 87.097104,-4.0052139 C 86.905104,-4.7092139 86.905104,-4.8372139 86.905104,-7.0772139 L 86.905104,-16.677214 C 86.905104,-18.597214 86.905104,-21.861214 86.777104,-22.501214 C 85.945104,-26.725204 81.849104,-28.389214 79.353104,-29.093214 C 86.905094,-31.269214 86.905104,-35.813214 86.905104,-37.605214 L 86.905104,-49.125214 C 86.905104,-53.733204 86.905104,-55.141214 88.441104,-56.741214 C 89.593104,-57.893214 91.065104,-59.429214 95.545104,-59.685214 C 95.865104,-59.749214 96.121104,-60.005214 96.121104,-60.389214 C 96.121104,-61.093214 95.609104,-61.093214 94.841104,-61.093214 C 88.441114,-61.093214 82.745104,-57.829204 82.617104,-53.221214 L 82.617104,-41.509214 C 82.617104,-35.493214 82.617104,-34.469214 80.953104,-32.677214 C 80.057104,-31.781214 78.329104,-30.053214 74.297104,-29.797214 C 73.849104,-29.797214 73.401104,-29.733214 73.401104,-29.093214 C 73.401104,-28.453214 73.785104,-28.453214 74.425104,-28.389214 C 77.177104,-28.197214 82.617104,-26.853204 82.617104,-20.453214 L 82.617104,-7.7812139 C 82.617104,-4.0692139 82.617104,-1.8932139 85.945104,0.47478612 C 88.697104,2.3947861 92.857104,2.9067861 94.841104,2.9067861 C 95.609104,2.9067861 96.121104,2.9067861 96.121104,2.2027861"
       style="font-size:64px;font-style:normal;font-variant:normal;font-weight:normal;font-stretch:normal;text-align:start;line-height:125%;text-anchor:start;font-family:LMSans10"
       id="flowRoot3997" />
    <text
       xml:space="preserve"
       style="font-size:51.95642853px;font-style:normal;font-weight:normal;line-height:125%;letter-spacing:0px;word-spacing:0px;fill:#000000;fill-opacity:1;stroke:none;font-family:Sans"
       x="31.605906"
       y="-252.47153"
       id="text3055"
       sodipodi:linespacing="125%"
       transform="scale(1.0317536,0.96922364)"><tspan
         sodipodi:role="line"
         x="31.605906"
         y="-252.47153"
         style="font-size:18.687994px"
         id="tspan3061">Opbrengsten of</tspan><tspan
         sodipodi:role="line"
         x="31.605906"
         y="-229.11154"
         style="font-size:18.687994px"
         id="tspan3083">kosten</tspan></text>
    <text
       xml:space="preserve"
       style="font-size:35.07329178px;font-style:normal;font-weight:normal;line-height:125%;letter-spacing:0px;word-spacing:0px;fill:#00aa00;fill-opacity:1;stroke:none;font-family:Sans"
       x="354.26675"
       y="-169.35675"
       id="text3065"
       sodipodi:linespacing="125%"><tspan
         sodipodi:role="line"
         x="354.26675"
         y="-169.35675"
         style="font-size:17.53664589px;font-weight:normal;fill:#00aa00;fill-opacity:1;-inkscape-font-specification:Sans"
         id="tspan3069">Totale opbrengsten</tspan></text>
    <text
       xml:space="preserve"
       style="font-size:35.07329178px;font-style:normal;font-weight:normal;line-height:125%;letter-spacing:0px;word-spacing:0px;fill:#d40000;fill-opacity:1;stroke:none;font-family:Sans"
       x="462.25116"
       y="-80.027481"
       id="text3071"
       sodipodi:linespacing="125%"><tspan
         sodipodi:role="line"
         x="462.25116"
         y="-80.027481"
         style="font-size:17.53664589px"
         id="tspan3075">Totale kosten</tspan></text>
  </g>
  <text
     xml:space="preserve"
     style="font-size:40.94488144px;font-style:normal;font-weight:normal;line-height:125%;letter-spacing:0px;word-spacing:0px;fill:#000000;fill-opacity:1;stroke:none;font-family:Sans"
     x="506.29501"
     y="309.35736"
     id="text3085"
     sodipodi:linespacing="125%"><tspan
       sodipodi:role="line"
       id="tspan3087"
       x="506.29501"
       y="309.35736"
       style="font-size:20.47244072px">Eenheden</tspan></text>
</svg>
