<svg xmlns="http://www.w3.org/2000/svg" width="860" height="320" viewBox="0 0 860 320" role="img" aria-labelledby="title desc">
  <title id="title">Tangent and Cotangent</title>
  <desc id="desc">Basic shapes with vertical asymptotes.</desc>

  <text x="200" y="40" font-family="Arial, sans-serif" font-size="16" text-anchor="middle" fill="#000000">tan x</text>
  <line x1="120" y1="160" x2="280" y2="160" stroke="#000000" stroke-width="2" />
  <line x1="200" y1="240" x2="200" y2="80" stroke="#000000" stroke-width="2" />
  <line x1="140" y1="240" x2="140" y2="80" stroke="#000000" stroke-width="2" stroke-dasharray="6 6" />
  <line x1="260" y1="240" x2="260" y2="80" stroke="#000000" stroke-width="2" stroke-dasharray="6 6" />
  <path d="M150 230 C170 200 190 175 200 160 C210 145 230 120 250 90" fill="none" stroke="#000000" stroke-width="2" />

  <text x="660" y="40" font-family="Arial, sans-serif" font-size="16" text-anchor="middle" fill="#000000">cot x</text>
  <line x1="580" y1="160" x2="740" y2="160" stroke="#000000" stroke-width="2" />
  <line x1="660" y1="240" x2="660" y2="80" stroke="#000000" stroke-width="2" />
  <line x1="600" y1="240" x2="600" y2="80" stroke="#000000" stroke-width="2" stroke-dasharray="6 6" />
  <line x1="720" y1="240" x2="720" y2="80" stroke="#000000" stroke-width="2" stroke-dasharray="6 6" />
  <path d="M610 90 C630 120 650 145 660 160 C670 175 690 200 710 230" fill="none" stroke="#000000" stroke-width="2" />
</svg>
