<?xml version="1.0" encoding="UTF-8" standalone="no"?>
<!-- Created with Inkscape (http://www.inkscape.org/) -->
<svg
   xmlns:dc="http://purl.org/dc/elements/1.1/"
   xmlns:cc="http://creativecommons.org/ns#"
   xmlns:rdf="http://www.w3.org/1999/02/22-rdf-syntax-ns#"
   xmlns:svg="http://www.w3.org/2000/svg"
   xmlns="http://www.w3.org/2000/svg"
   xmlns:sodipodi="http://sodipodi.sourceforge.net/DTD/sodipodi-0.dtd"
   xmlns:inkscape="http://www.inkscape.org/namespaces/inkscape"
   width="744.09448"
   height="1052.3622"
   id="svg5103"
   sodipodi:version="0.32"
   inkscape:version="0.46"
   version="1.0"
   sodipodi:docbase="C:\Documents and Settings\David Nelson\Archives\Svg"
   sodipodi:docname="ModuloBold.svg"
   inkscape:output_extension="org.inkscape.output.svg.inkscape">
  <defs
     id="defs5105">
    <inkscape:perspective
       sodipodi:type="inkscape:persp3d"
       inkscape:vp_x="0 : 100.99998 : 1"
       inkscape:vp_y="0 : 1000 : 0"
       inkscape:vp_z="142 : 100.99998 : 1"
       inkscape:persp3d-origin="71 : 67.333318 : 1"
       id="perspective24" />
  </defs>
  <sodipodi:namedview
     id="base"
     pagecolor="#ffffff"
     bordercolor="#666666"
     borderopacity="1.0"
     gridtolerance="10000"
     guidetolerance="10"
     objecttolerance="10"
     inkscape:pageopacity="0.0"
     inkscape:pageshadow="2"
     inkscape:zoom="0.35355339"
     inkscape:cx="-22.388834"
     inkscape:cy="515.25405"
     inkscape:document-units="px"
     inkscape:current-layer="layer1"
     inkscape:window-width="1280"
     inkscape:window-height="728"
     inkscape:window-x="0"
     inkscape:window-y="25"
     showgrid="false"
     showguides="true"
     inkscape:guide-bbox="true">
    <sodipodi:guide
       orientation="1,0"
       position="2350.4229,150.61374"
       id="guide3927" />
  </sodipodi:namedview>
  <metadata
     id="metadata5108">
    <rdf:RDF>
      <cc:Work
         rdf:about="">
        <dc:format>image/svg+xml</dc:format>
        <dc:type
           rdf:resource="http://purl.org/dc/dcmitype/StillImage" />
      </cc:Work>
    </rdf:RDF>
  </metadata>
  <g
     inkscape:label="Layer 1"
     inkscape:groupmode="layer"
     id="layer1"
     transform="translate(0.99995,-851.3621)">
    <g
       id="g3462"
       transform="matrix(6.1171354,0,0,6.1171354,-5010.8978,-5836.712)">
      <path
         sodipodi:nodetypes="ccccccc"
         id="path3430"
         d="M 867.97726,1097.2517 L 845.58296,1097.268 L 833.15287,1109.5569 L 845.54947,1121.9788 L 867.96051,1121.9458 L 880.19297,1109.5569 L 867.97726,1097.2517 z"
         style="fill:#000000;fill-opacity:1;fill-rule:nonzero;stroke:#ffffff;stroke-width:1.92840683;stroke-linecap:square;stroke-miterlimit:4;stroke-dasharray:none;stroke-opacity:1" />
      <path
         sodipodi:nodetypes="ccccccc"
         id="path3432"
         d="M 914.81545,1097.3014 L 892.62828,1097.268 L 880.19819,1109.5569 L 892.59479,1121.9788 L 914.7987,1121.9955 L 927.03116,1109.6066 L 914.81545,1097.3014 z"
         style="fill:#000000;fill-opacity:1;fill-rule:nonzero;stroke:#ffffff;stroke-width:1.92799997;stroke-linecap:square;stroke-miterlimit:4;stroke-dasharray:none;stroke-opacity:1" />
      <path
         sodipodi:nodetypes="ccccccc"
         id="path3434"
         d="M 939.31818,1167.3988 L 939.35166,1122.2243 L 927.06274,1109.7942 L 914.64084,1122.1908 L 914.62409,1167.3821 L 927.013,1179.6145 L 939.31818,1167.3988 z"
         style="fill:#000000;fill-opacity:1;fill-rule:nonzero;stroke:#ffffff;stroke-width:1.92799997;stroke-linecap:square;stroke-miterlimit:4;stroke-dasharray:none;stroke-opacity:1" />
      <path
         sodipodi:nodetypes="ccccccc"
         id="path3436"
         d="M 939.26844,1237.453 L 939.30192,1192.2784 L 927.013,1179.8483 L 914.5911,1192.2449 L 914.57435,1237.4362 L 926.96326,1249.6687 L 939.26844,1237.453 z"
         style="fill:#000000;fill-opacity:1;fill-rule:nonzero;stroke:#ffffff;stroke-width:1.92799997;stroke-linecap:square;stroke-miterlimit:4;stroke-dasharray:none;stroke-opacity:1" />
      <path
         sodipodi:nodetypes="ccccccc"
         id="path3438"
         d="M 845.39227,1167.2152 L 845.42575,1122.0406 L 833.13683,1109.6105 L 820.71493,1122.0071 L 820.69818,1167.1985 L 833.08709,1179.4309 L 845.39227,1167.2152 z"
         style="fill:#000000;fill-opacity:1;fill-rule:nonzero;stroke:#ffffff;stroke-width:1.92799997;stroke-linecap:square;stroke-miterlimit:4;stroke-dasharray:none;stroke-opacity:1" />
      <path
         sodipodi:nodetypes="ccccccc"
         id="path3440"
         d="M 845.34253,1237.2693 L 845.37601,1192.0948 L 833.08709,1179.6647 L 820.66519,1192.0613 L 820.64844,1237.2525 L 833.03735,1249.485 L 845.34253,1237.2693 z"
         style="fill:#000000;fill-opacity:1;fill-rule:nonzero;stroke:#ffffff;stroke-width:1.92799997;stroke-linecap:square;stroke-miterlimit:4;stroke-dasharray:none;stroke-opacity:1" />
      <path
         sodipodi:nodetypes="ccccccc"
         id="path3442"
         d="M 867.96122,1237.4533 L 845.56692,1237.4695 L 833.13683,1249.7585 L 845.53343,1262.1804 L 867.94447,1262.1474 L 880.17693,1249.7585 L 867.96122,1237.4533 z"
         style="fill:#000000;fill-opacity:1;fill-rule:nonzero;stroke:#ffffff;stroke-width:1.92840683;stroke-linecap:square;stroke-miterlimit:4;stroke-dasharray:none;stroke-opacity:1" />
      <path
         sodipodi:nodetypes="ccccccc"
         id="path3444"
         d="M 914.79941,1237.503 L 892.61224,1237.4695 L 880.18215,1249.7585 L 892.57875,1262.1804 L 914.78266,1262.1971 L 927.01512,1249.8082 L 914.79941,1237.503 z"
         style="fill:#000000;fill-opacity:1;fill-rule:nonzero;stroke:#ffffff;stroke-width:1.92799997;stroke-linecap:square;stroke-miterlimit:4;stroke-dasharray:none;stroke-opacity:1" />
      <path
         sodipodi:nodetypes="ccccccc"
         id="path3446"
         d="M 867.96122,1167.3535 L 845.56692,1167.3698 L 833.13683,1179.6587 L 845.53343,1192.0806 L 867.94447,1192.0476 L 880.17693,1179.6587 L 867.96122,1167.3535 z"
         style="fill:#000000;fill-opacity:1;fill-rule:nonzero;stroke:#ffffff;stroke-width:1.92840683;stroke-linecap:square;stroke-miterlimit:4;stroke-dasharray:none;stroke-opacity:1" />
      <path
         sodipodi:nodetypes="ccccccc"
         id="path3448"
         d="M 914.79941,1167.4033 L 892.61224,1167.3698 L 880.18215,1179.6587 L 892.57875,1192.0806 L 914.78266,1192.0973 L 927.01512,1179.7085 L 914.79941,1167.4033 z"
         style="fill:#000000;fill-opacity:1;fill-rule:nonzero;stroke:#ffffff;stroke-width:1.92799997;stroke-linecap:square;stroke-miterlimit:4;stroke-dasharray:none;stroke-opacity:1" />
      <path
         sodipodi:nodetypes="ccccccc"
         id="path3450"
         d="M 892.4295,1167.4886 L 892.46298,1122.3141 L 880.17406,1109.884 L 867.75216,1122.2806 L 867.73541,1167.4719 L 880.12432,1179.7044 L 892.4295,1167.4886 z"
         style="fill:#000000;fill-opacity:1;fill-rule:nonzero;stroke:#ffffff;stroke-width:1.92799997;stroke-linecap:square;stroke-miterlimit:4;stroke-dasharray:none;stroke-opacity:1" />
      <path
         sodipodi:nodetypes="ccccccc"
         id="path3452"
         d="M 892.37976,1237.5428 L 892.41324,1192.3682 L 880.12432,1179.9381 L 867.70242,1192.3347 L 867.68567,1237.526 L 880.07458,1249.7585 L 892.37976,1237.5428 z"
         style="fill:#000000;fill-opacity:1;fill-rule:nonzero;stroke:#ffffff;stroke-width:1.92799997;stroke-linecap:square;stroke-miterlimit:4;stroke-dasharray:none;stroke-opacity:1" />
      <path
         id="path3454"
         style="fill:#000000;fill-opacity:1;fill-rule:nonzero;stroke:#ffffff;stroke-width:2.53372145;stroke-linecap:square;stroke-miterlimit:4;stroke-dasharray:none;stroke-opacity:1"
         d="M 858.35594,1122.3699 L 867.31919,1141.6212 L 867.44897,1166.9065 L 854.75474,1166.9712 L 845.79146,1147.72 L 845.66172,1122.4345 L 858.35594,1122.3699 z"
         sodipodi:nodetypes="ccccccc" />
      <path
         id="path3456"
         style="fill:#000000;fill-opacity:1;fill-rule:nonzero;stroke:#ffffff;stroke-width:2.53344131;stroke-linecap:square;stroke-miterlimit:4;stroke-dasharray:none;stroke-opacity:1"
         d="M 905.3686,1192.5472 L 914.33197,1211.7939 L 914.46175,1237.0734 L 901.76736,1237.138 L 892.80396,1217.8914 L 892.67422,1192.6118 L 905.3686,1192.5472 z"
         sodipodi:nodetypes="ccccccc" />
      <path
         id="path3458"
         style="fill:#000000;fill-opacity:1;fill-rule:nonzero;stroke:#ffffff;stroke-width:2.53372145;stroke-linecap:square;stroke-miterlimit:4;stroke-dasharray:none;stroke-opacity:1"
         d="M 901.71755,1122.2498 L 892.7543,1141.5011 L 892.62452,1166.7865 L 905.31875,1166.8511 L 914.28203,1147.6 L 914.41177,1122.3144 L 901.71755,1122.2498 z"
         sodipodi:nodetypes="ccccccc" />
      <path
         id="path3460"
         style="fill:#000000;fill-opacity:1;fill-rule:nonzero;stroke:#ffffff;stroke-width:2.53344131;stroke-linecap:square;stroke-miterlimit:4;stroke-dasharray:none;stroke-opacity:1"
         d="M 854.70489,1192.4272 L 845.74152,1211.6739 L 845.61174,1236.9534 L 858.30613,1237.018 L 867.26953,1217.7714 L 867.39927,1192.4918 L 854.70489,1192.4272 z"
         sodipodi:nodetypes="ccccccc" />
    </g>
  </g>
</svg>
